<?xml version="1.0" encoding="UTF-8"?>
<svg width="458px" height="136px" viewBox="0 0 458 136" version="1.1" xmlns="http://www.w3.org/2000/svg" xmlns:xlink="http://www.w3.org/1999/xlink">
    <defs>
        <linearGradient x1="-0.00283004884%" y1="49.998784%" x2="99.9984827%" y2="49.998784%" id="linearGradient-1">
            <stop stop-color="#2B39BB" offset="20.43%"></stop>
            <stop stop-color="#262262" offset="100%"></stop>
        </linearGradient>
        <linearGradient x1="21.8063746%" y1="103.028282%" x2="79.3099694%" y2="12.0160954%" id="linearGradient-2">
            <stop stop-color="#272DFF" offset="0%"></stop>
            <stop stop-color="#03FAF1" offset="100%"></stop>
        </linearGradient>
    </defs>
    <g id="Page-1" stroke="none" stroke-width="1" fill="none" fill-rule="evenodd">
        <g id="Group-2">
            <path d="M403.303,2.342 L403.317,2.339 C403.633,1.172 404.69,0.31 405.958,0.302 C405.96,0.302 405.962,0.301 405.964,0.301 C400.511,0.301 350.501,0.301 350.501,0.301 C347.216,0.301 344.163,1.248 341.556,2.85 C341.314,2.996 341.07,3.136 340.833,3.295 C340.655,3.415 340.483,3.548 340.312,3.676 C339.949,3.943 339.595,4.221 339.251,4.518 C339.12,4.63 338.995,4.746 338.866,4.862 C338.694,5.023 338.511,5.172 338.339,5.341 C338.157,5.522 338.003,5.717 337.833,5.904 C337.724,6.02 337.616,6.135 337.513,6.256 C337.191,6.628 336.888,7.015 336.605,7.411 C336.533,7.509 336.447,7.599 336.375,7.702 L336.387,7.709 C331.932,14.195 332.574,23.126 338.34,28.894 L383.776,74.315 L403.303,2.342 Z" id="Path" fill="url(#linearGradient-1)"></path>
            <path d="M455.352,64.085 L408.168,1.387 L408.16,1.391 C407.652,0.732 406.865,0.301 405.974,0.301 C404.701,0.301 403.636,1.167 403.316,2.339 L403.302,2.342 L375.038,106.509 L375.058,106.515 C375.017,106.663 374.974,106.811 374.945,106.965 C373.746,112.721 376.888,118.363 382.14,120.516 L382.136,120.523 C382.208,120.551 382.282,120.57 382.355,120.598 C382.699,120.73 383.05,120.85 383.412,120.952 C383.508,120.978 383.605,121.001 383.701,121.026 C383.887,121.075 384.066,121.13 384.254,121.172 C384.432,121.208 384.608,121.225 384.787,121.257 C384.894,121.273 385.002,121.291 385.111,121.306 C385.453,121.353 385.795,121.383 386.134,121.399 C386.275,121.406 386.413,121.417 386.554,121.42 C386.783,121.425 387.009,121.411 387.24,121.4 C389.424,121.323 391.621,120.69 393.586,119.402 L451.774,81.266 C457.508,77.509 459.107,69.818 455.352,64.085 Z" id="Path" fill="url(#linearGradient-2)"></path>
            <g id="Group" transform="translate(228.000000, 64.000000)" fill="#FFFFFF">
                <path d="M6.457,42.31 C4.316,42.31 2.748,41.814 1.756,40.823 C0.766,39.832 0.27,38.224 0.27,36.003 L0.27,6.785 C0.27,2.462 2.371,0.3 6.576,0.3 L12.469,0.3 C17.428,0.3 21.178,0.677 23.715,1.429 C30.697,3.453 34.188,9.92 34.188,20.83 C34.188,26.304 33.405,30.647 31.838,33.861 C30.27,37.075 27.504,39.415 23.535,40.882 C20.998,41.834 17.07,42.31 11.754,42.31 L6.457,42.31 Z M10.684,35.169 L14.194,35.169 C16.733,35.169 18.757,34.794 20.264,34.039 C22.327,33.087 23.744,31.579 24.518,29.516 C25.293,27.453 25.68,24.577 25.68,20.888 C25.68,17.319 25.301,14.57 24.549,12.647 C23.795,10.724 22.445,9.324 20.502,8.45 C18.953,7.737 16.711,7.38 13.777,7.38 L10.384,7.38 C9.114,7.38 8.48,8.114 8.48,9.582 L8.48,32.849 C8.48,34.396 9.215,35.169 10.684,35.169 Z" id="Shape" fill-rule="nonzero"></path>
                <path d="M44.273,42.31 C42.132,42.31 40.535,41.825 39.484,40.853 C38.431,39.881 37.906,38.245 37.906,35.944 L37.906,6.844 C37.906,2.481 40.029,0.299 44.273,0.299 L62.127,0.299 C63.238,0.299 63.793,0.834 63.793,1.906 L63.793,6.07 C63.793,6.982 63.238,7.439 62.127,7.439 L48.022,7.439 C46.754,7.439 46.12,8.172 46.12,9.64 L46.12,16.959 L60.64,16.959 C61.751,16.959 62.306,17.495 62.306,18.565 L62.306,22.732 C62.306,23.684 61.751,24.159 60.64,24.159 L46.12,24.159 L46.12,32.847 C46.12,33.68 46.288,34.276 46.626,34.633 C46.962,34.99 47.55,35.168 48.382,35.168 L63.138,35.168 C64.249,35.168 64.806,35.704 64.806,36.775 L64.806,40.88 C64.806,41.832 64.249,42.308 63.138,42.308 L44.273,42.308 L44.273,42.31 Z" id="Path"></path>
                <path d="M96.838,2.083 C97.234,0.774 97.949,0.119 98.981,0.119 C101.719,0.119 103.585,0.239 104.577,0.477 C105.171,0.635 105.47,1.032 105.47,1.666 C105.47,2.062 105.31,2.698 104.993,3.57 L92.972,38.501 C92.534,39.81 91.951,40.803 91.218,41.476 C90.484,42.151 89.243,42.487 87.497,42.487 L85.237,42.487 C83.489,42.487 82.251,42.131 81.516,41.417 C80.782,40.704 80.159,39.632 79.641,38.204 L67.918,3.69 C67.641,2.935 67.502,2.281 67.502,1.726 C67.502,1.131 67.76,0.713 68.275,0.477 C68.83,0.239 70.834,0.119 74.285,0.119 C74.881,0.119 75.316,0.259 75.596,0.536 C75.871,0.813 76.131,1.329 76.369,2.083 C82.279,20.293 85.631,30.865 86.426,33.801 C87.021,31.817 90.49,21.245 96.838,2.083 Z" id="Path"></path>
            </g>
            <g id="Group" transform="translate(0.000000, 121.000000)" fill="#FFFFFF">
                <path d="M3.564,11.629 C4.053,12.451 4.965,12.861 6.305,12.861 C7.181,12.861 8.07,12.747 8.97,12.522 C9.234,12.446 9.44,12.408 9.59,12.408 C9.753,12.408 9.866,12.498 9.928,12.673 C10.065,13.061 10.135,13.391 10.135,13.668 C10.135,13.88 9.991,14.037 9.703,14.137 C8.626,14.511 7.332,14.7 5.818,14.7 C4.077,14.7 2.777,14.203 1.914,13.207 C1.05,12.212 0.618,10.49 0.618,8.038 C0.618,5.509 1.038,3.698 1.876,2.601 C2.714,1.507 4.185,0.96 6.287,0.96 C7.614,0.96 8.652,1.054 9.402,1.24 C9.716,1.316 9.872,1.473 9.872,1.71 C9.872,2.06 9.798,2.444 9.646,2.856 C9.596,3.005 9.477,3.081 9.289,3.081 C9.165,3.081 8.957,3.051 8.67,2.986 C8.082,2.862 7.337,2.798 6.437,2.798 C5.022,2.798 4.068,3.191 3.573,3.972 C3.079,4.755 2.833,6.017 2.833,7.755 C2.833,9.519 3.076,10.812 3.564,11.629 Z" id="Path"></path>
                <path d="M33.057,11.143 C32.84,12.051 32.484,12.763 31.997,13.284 C31.508,13.802 30.927,14.168 30.25,14.382 C29.575,14.594 28.737,14.7 27.735,14.7 C26.759,14.7 25.946,14.596 25.296,14.39 C24.645,14.183 24.082,13.821 23.607,13.301 C23.131,12.78 22.783,12.07 22.564,11.161 C22.345,10.255 22.236,9.119 22.236,7.755 C22.236,6.391 22.373,5.249 22.649,4.329 C22.924,3.409 23.331,2.712 23.869,2.235 C24.407,1.759 24.993,1.428 25.624,1.24 C26.257,1.053 27.009,0.96 27.886,0.96 C28.674,0.96 29.341,1.011 29.886,1.11 C30.429,1.21 30.936,1.401 31.406,1.681 C31.875,1.963 32.247,2.354 32.523,2.855 C32.798,3.354 33.011,4.005 33.161,4.807 C33.311,5.608 33.387,6.584 33.387,7.736 C33.387,9.101 33.277,10.234 33.057,11.143 Z M30.805,4.591 C30.574,3.872 30.232,3.393 29.783,3.155 C29.332,2.917 28.675,2.798 27.812,2.798 C27.236,2.798 26.754,2.868 26.366,3.005 C25.978,3.144 25.634,3.388 25.333,3.737 C25.033,4.089 24.811,4.596 24.667,5.258 C24.524,5.92 24.451,6.754 24.451,7.755 C24.451,8.83 24.517,9.71 24.648,10.392 C24.781,11.075 25,11.593 25.305,11.95 C25.612,12.307 25.952,12.548 26.329,12.674 C26.704,12.798 27.185,12.862 27.773,12.862 C28.361,12.862 28.84,12.8 29.21,12.682 C29.579,12.563 29.922,12.328 30.242,11.979 C30.561,11.627 30.793,11.109 30.936,10.421 C31.08,9.733 31.153,8.849 31.153,7.773 C31.153,6.372 31.037,5.311 30.805,4.591 Z" id="Shape" fill-rule="nonzero"></path>
                <path d="M48.772,14.493 L47.609,14.493 C47.308,14.493 47.159,14.325 47.159,13.986 L47.159,2.649 C47.159,2.123 47.271,1.738 47.496,1.495 C47.722,1.251 48.091,1.128 48.604,1.128 L49.186,1.128 C49.473,1.128 49.707,1.179 49.89,1.278 C50.071,1.378 50.203,1.489 50.284,1.605 C50.366,1.725 50.482,1.929 50.631,2.216 C53.085,6.897 54.685,10.087 55.437,11.789 C55.412,10.713 55.399,7.373 55.399,1.767 C55.399,1.367 55.568,1.164 55.906,1.164 L57.014,1.164 C57.314,1.164 57.465,1.353 57.465,1.728 L57.465,13.346 C57.465,13.822 57.354,14.147 57.137,14.324 C56.917,14.499 56.62,14.586 56.245,14.586 L55.756,14.586 C55.318,14.586 54.999,14.501 54.799,14.333 C54.599,14.162 54.374,13.836 54.124,13.347 C51.533,8.367 49.9,5.145 49.225,3.68 C49.249,5.608 49.263,9.043 49.263,13.986 C49.261,14.325 49.098,14.493 48.772,14.493 Z" id="Path"></path>
                <path d="M73.451,14.493 L72.212,14.493 C71.912,14.493 71.761,14.325 71.761,13.986 L71.761,3.173 C71.761,2.499 71.915,2.001 72.221,1.681 C72.527,1.362 73.007,1.202 73.656,1.202 L79.137,1.202 C79.449,1.202 79.607,1.354 79.607,1.654 L79.607,2.723 C79.607,2.985 79.449,3.118 79.137,3.118 L74.539,3.118 C74.125,3.118 73.919,3.362 73.919,3.85 L73.919,7.078 L78.348,7.078 C78.673,7.078 78.836,7.235 78.836,7.549 L78.836,8.6 C78.836,8.874 78.673,9.012 78.348,9.012 L73.919,9.012 L73.919,13.966 C73.92,14.319 73.764,14.493 73.451,14.493 Z" id="Path"></path>
                <path d="M94.582,14.455 C93.919,14.455 93.432,14.311 93.118,14.023 C92.806,13.736 92.649,13.241 92.649,12.542 L92.649,3.174 C92.649,2.5 92.8,2.002 93.099,1.682 C93.4,1.363 93.888,1.203 94.564,1.203 L100.119,1.203 C100.432,1.203 100.59,1.355 100.59,1.655 L100.59,2.724 C100.59,2.986 100.432,3.119 100.119,3.119 L95.408,3.119 C95.008,3.119 94.807,3.349 94.807,3.813 L94.807,6.627 L99.612,6.627 C99.938,6.627 100.101,6.779 100.101,7.078 L100.101,8.131 C100.101,8.405 99.938,8.542 99.612,8.542 L94.807,8.542 L94.807,11.811 C94.807,12.073 94.861,12.259 94.967,12.374 C95.072,12.487 95.257,12.543 95.52,12.543 L100.418,12.543 C100.743,12.543 100.906,12.697 100.906,13.013 L100.906,14.044 C100.906,14.32 100.743,14.456 100.418,14.456 L94.582,14.456 L94.582,14.455 Z" id="Path"></path>
                <path d="M116.051,14.493 L114.831,14.493 C114.531,14.493 114.381,14.325 114.381,13.986 L114.381,3.212 C114.381,2.524 114.528,2.016 114.821,1.693 C115.115,1.367 115.613,1.202 116.314,1.202 L117.76,1.202 C119.473,1.202 120.694,1.347 121.42,1.634 C122.684,2.149 123.316,3.293 123.316,5.071 C123.316,6.91 122.553,8.111 121.026,8.675 L123.747,13.519 C123.91,13.843 123.992,14.049 123.992,14.138 C123.992,14.313 123.91,14.413 123.747,14.439 C123.522,14.489 123.015,14.512 122.227,14.512 C121.977,14.512 121.777,14.374 121.626,14.1 L118.98,9.069 C118.753,9.083 118.385,9.089 117.871,9.089 L116.539,9.089 L116.539,13.988 C116.54,14.325 116.375,14.493 116.051,14.493 Z M117.946,7.322 C118.847,7.322 119.541,7.235 120.03,7.059 C120.744,6.771 121.1,6.146 121.1,5.182 C121.1,4.144 120.756,3.499 120.067,3.25 C119.692,3.111 119.035,3.044 118.097,3.044 L117.195,3.044 C116.757,3.044 116.539,3.26 116.539,3.697 L116.539,7.321 L117.946,7.321 L117.946,7.322 Z" id="Shape" fill-rule="nonzero"></path>
                <path d="M139.096,14.455 C138.433,14.455 137.945,14.311 137.631,14.023 C137.319,13.736 137.162,13.241 137.162,12.542 L137.162,3.174 C137.162,2.5 137.313,2.002 137.614,1.682 C137.914,1.363 138.403,1.203 139.077,1.203 L144.634,1.203 C144.947,1.203 145.103,1.355 145.103,1.655 L145.103,2.724 C145.103,2.986 144.947,3.119 144.634,3.119 L139.922,3.119 C139.521,3.119 139.321,3.349 139.321,3.813 L139.321,6.627 L144.126,6.627 C144.452,6.627 144.615,6.779 144.615,7.078 L144.615,8.131 C144.615,8.405 144.452,8.542 144.126,8.542 L139.321,8.542 L139.321,11.811 C139.321,12.073 139.375,12.259 139.481,12.374 C139.587,12.487 139.771,12.543 140.035,12.543 L144.934,12.543 C145.259,12.543 145.422,12.697 145.422,13.013 L145.422,14.044 C145.422,14.32 145.259,14.456 144.934,14.456 L139.096,14.456 L139.096,14.455 Z" id="Path"></path>
                <path d="M160.508,14.493 L159.344,14.493 C159.045,14.493 158.894,14.325 158.894,13.986 L158.894,2.649 C158.894,2.123 159.007,1.738 159.232,1.495 C159.458,1.251 159.826,1.128 160.34,1.128 L160.922,1.128 C161.21,1.128 161.444,1.179 161.625,1.278 C161.807,1.378 161.938,1.489 162.02,1.605 C162.102,1.725 162.218,1.929 162.367,2.216 C164.819,6.897 166.422,10.087 167.172,11.789 C167.148,10.713 167.134,7.373 167.134,1.767 C167.134,1.367 167.304,1.164 167.642,1.164 L168.749,1.164 C169.049,1.164 169.199,1.353 169.199,1.728 L169.199,13.346 C169.199,13.822 169.09,14.147 168.87,14.324 C168.652,14.499 168.354,14.586 167.979,14.586 L167.491,14.586 C167.053,14.586 166.733,14.501 166.533,14.333 C166.333,14.162 166.108,13.836 165.858,13.347 C163.268,8.367 161.634,5.145 160.959,3.68 C160.984,5.608 160.996,9.043 160.996,13.986 C160.997,14.325 160.834,14.493 160.508,14.493 Z" id="Path"></path>
                <path d="M185.73,11.629 C186.219,12.451 187.132,12.861 188.472,12.861 C189.347,12.861 190.237,12.747 191.137,12.522 C191.401,12.446 191.607,12.408 191.757,12.408 C191.92,12.408 192.033,12.498 192.095,12.673 C192.232,13.061 192.301,13.391 192.301,13.668 C192.301,13.88 192.156,14.037 191.87,14.137 C190.794,14.511 189.497,14.7 187.984,14.7 C186.245,14.7 184.944,14.203 184.08,13.207 C183.216,12.212 182.785,10.49 182.785,8.038 C182.785,5.509 183.204,3.698 184.042,2.601 C184.88,1.507 186.351,0.96 188.454,0.96 C189.78,0.96 190.818,1.054 191.57,1.24 C191.883,1.316 192.039,1.473 192.039,1.71 C192.039,2.06 191.964,2.444 191.815,2.856 C191.764,3.005 191.646,3.081 191.458,3.081 C191.333,3.081 191.127,3.051 190.838,2.986 C190.25,2.862 189.505,2.798 188.605,2.798 C187.19,2.798 186.237,3.191 185.743,3.972 C185.248,4.755 185.001,6.017 185.001,7.755 C184.999,9.519 185.244,10.812 185.73,11.629 Z" id="Path"></path>
                <path d="M207.067,14.455 C206.405,14.455 205.916,14.311 205.603,14.023 C205.29,13.736 205.133,13.241 205.133,12.542 L205.133,3.174 C205.133,2.5 205.285,2.002 205.585,1.682 C205.885,1.363 206.372,1.203 207.048,1.203 L212.605,1.203 C212.918,1.203 213.074,1.355 213.074,1.655 L213.074,2.724 C213.074,2.986 212.918,3.119 212.605,3.119 L207.894,3.119 C207.494,3.119 207.293,3.349 207.293,3.813 L207.293,6.627 L212.098,6.627 C212.422,6.627 212.585,6.779 212.585,7.078 L212.585,8.131 C212.585,8.405 212.422,8.542 212.098,8.542 L207.293,8.542 L207.293,11.811 C207.293,12.073 207.346,12.259 207.453,12.374 C207.558,12.487 207.743,12.543 208.005,12.543 L212.904,12.543 C213.23,12.543 213.393,12.697 213.393,13.013 L213.393,14.044 C213.393,14.32 213.23,14.456 212.904,14.456 L207.067,14.456 L207.067,14.455 Z" id="Path"></path>
            </g>
            <g id="Group" transform="translate(0.000000, 63.000000)" fill="#FFFFFF">
                <path d="M11.328,33.729 C12.836,36.07 15.513,37.241 19.362,37.241 C21.901,37.241 24.519,36.923 27.216,36.288 C28.049,36.05 28.704,35.933 29.18,35.933 C29.735,35.933 30.112,36.208 30.311,36.765 C30.906,38.391 31.203,39.702 31.203,40.693 C31.203,41.406 30.726,41.942 29.775,42.299 C26.403,43.487 22.218,44.083 17.22,44.083 C11.705,44.083 7.56,42.507 4.783,39.353 C2.005,36.199 0.617,30.735 0.617,22.959 C0.617,14.946 1.975,9.203 4.694,5.732 C7.411,2.259 12.123,0.525 18.826,0.525 C23.269,0.525 26.602,0.823 28.824,1.418 C29.815,1.655 30.311,2.17 30.311,2.966 C30.311,4.434 30.013,5.901 29.418,7.368 C29.26,7.884 28.863,8.142 28.228,8.142 C27.792,8.142 27.118,8.043 26.205,7.843 C24.499,7.526 22.336,7.367 19.719,7.367 C15.633,7.367 12.837,8.468 11.329,10.67 C9.822,12.871 9.067,16.67 9.067,22.066 C9.066,27.501 9.821,31.39 11.328,33.729 Z" id="Path"></path>
                <path d="M42.091,43.37 L37.151,43.37 C36.16,43.37 35.665,42.813 35.665,41.704 L35.665,19.21 C35.665,18.219 35.793,17.455 36.051,16.92 C36.31,16.383 36.776,15.878 37.45,15.402 C38.481,14.727 40.177,14.102 42.538,13.526 C44.898,12.952 47.13,12.664 49.233,12.664 C51.176,12.664 52.506,12.783 53.22,13.021 C53.934,13.298 54.291,13.814 54.291,14.568 C54.291,16.314 54.172,17.664 53.934,18.614 C53.774,19.29 53.278,19.626 52.446,19.626 C52.169,19.626 51.592,19.607 50.719,19.566 C49.847,19.527 49.251,19.506 48.934,19.506 C47.148,19.506 45.741,19.764 44.709,20.28 C44.272,20.519 43.995,20.775 43.876,21.053 C43.717,21.331 43.638,21.847 43.638,22.601 L43.638,41.703 C43.639,42.813 43.123,43.37 42.091,43.37 Z" id="Path"></path>
                <path d="M64.411,43.37 L59.473,43.37 C58.481,43.37 57.985,42.813 57.985,41.704 L57.985,15.104 C57.985,13.954 58.5,13.376 59.532,13.376 L64.471,13.376 C65.463,13.376 65.959,13.934 65.959,15.043 L65.959,41.703 C65.958,42.813 65.443,43.37 64.411,43.37 Z" id="Path"></path>
                <path d="M79.155,35.424 C80.088,36.794 81.783,37.48 84.242,37.48 C86.028,37.48 87.675,37.34 89.181,37.062 C89.974,36.864 90.59,36.765 91.026,36.765 C91.661,36.765 92.077,37.082 92.275,37.717 C92.712,39.104 92.93,40.295 92.93,41.288 C92.93,42.08 92.593,42.597 91.918,42.834 C89.696,43.667 86.82,44.083 83.29,44.083 C78.689,44.083 75.267,42.942 73.025,40.662 C70.783,38.381 69.663,34.444 69.663,28.849 C69.663,23.177 70.783,19.051 73.025,16.473 C75.266,13.893 79.046,12.605 84.361,12.605 C87.098,12.605 89.459,12.883 91.443,13.437 C92.157,13.676 92.514,14.132 92.514,14.806 C92.514,15.957 92.295,17.327 91.86,18.913 C91.662,19.587 91.265,19.925 90.67,19.925 C90.472,19.925 90.125,19.884 89.629,19.806 C89.133,19.726 88.845,19.687 88.766,19.687 C87.536,19.449 86.148,19.33 84.6,19.33 C81.903,19.33 80.088,20.033 79.155,21.442 C78.223,22.851 77.757,25.161 77.757,28.375 C77.757,31.705 78.223,34.056 79.155,35.424 Z" id="Path"></path>
                <path d="M103.925,8.024 C103.26,8.67 102.245,8.993 100.88,8.993 C98.259,8.993 96.948,7.626 96.948,4.895 C96.948,2.125 98.259,0.741 100.88,0.741 C102.209,0.741 103.215,1.047 103.898,1.655 C104.581,2.264 104.923,3.326 104.923,4.84 C104.922,6.316 104.588,7.377 103.925,8.024 Z" id="Path"></path>
                <path d="M64.961,8.024 C64.297,8.67 63.282,8.993 61.916,8.993 C59.295,8.993 57.985,7.626 57.985,4.895 C57.985,2.125 59.295,0.741 61.916,0.741 C63.245,0.741 64.251,1.047 64.933,1.655 C65.617,2.264 65.958,3.326 65.958,4.84 C65.958,6.316 65.625,7.377 64.961,8.024 Z" id="Path"></path>
                <path d="M103.375,43.37 L98.436,43.37 C97.445,43.37 96.948,42.813 96.948,41.704 L96.948,15.104 C96.948,13.954 97.464,13.376 98.495,13.376 L103.434,13.376 C104.425,13.376 104.922,13.934 104.922,15.043 L104.922,41.703 C104.922,42.813 104.406,43.37 103.375,43.37 Z" id="Path"></path>
                <path d="M145.646,43.37 L140.708,43.37 C139.716,43.37 139.22,42.813 139.22,41.704 L139.22,18.674 C139.22,16.968 139.894,15.818 141.243,15.224 C145.409,13.517 150.269,12.664 155.822,12.664 C159.632,12.664 162.091,13.557 163.201,15.342 C165.463,13.557 169.29,12.664 174.686,12.664 C177.264,12.664 179.187,12.972 180.457,13.586 C181.726,14.201 182.599,15.144 183.076,16.413 C183.433,17.445 183.611,19.389 183.611,22.245 L183.611,41.704 C183.611,42.813 183.135,43.37 182.183,43.37 L177.184,43.37 C176.193,43.37 175.696,42.813 175.696,41.704 L175.696,24.03 C175.696,22.68 175.597,21.709 175.399,21.114 C175.042,19.962 173.792,19.388 171.649,19.388 C170.141,19.388 168.614,19.646 167.067,20.161 C166.591,20.319 166.154,20.598 165.758,20.994 C165.521,21.232 165.401,21.609 165.401,22.125 C165.401,22.244 165.411,22.551 165.431,23.047 C165.451,23.542 165.461,23.85 165.461,23.97 L165.461,41.703 C165.461,42.812 164.964,43.369 163.973,43.369 L158.975,43.369 C157.984,43.369 157.488,42.812 157.488,41.703 L157.488,23.91 C157.488,22.64 157.388,21.708 157.19,21.113 C156.952,20.478 156.565,20.031 156.03,19.774 C155.494,19.516 154.651,19.387 153.501,19.387 C151.834,19.387 150.287,19.624 148.858,20.1 C148.105,20.418 147.649,20.716 147.49,20.994 C147.292,21.232 147.192,21.887 147.192,22.958 L147.192,41.703 C147.193,42.813 146.677,43.37 145.646,43.37 Z" id="Path"></path>
                <path d="M212.68,41.049 C212.123,41.685 211.428,42.14 210.597,42.417 C209.368,42.853 207.572,43.24 205.211,43.577 C202.85,43.915 200.658,44.083 198.636,44.083 C194.312,44.083 191.346,43.221 189.74,41.495 C188.134,39.77 187.33,37.399 187.33,34.385 C187.33,30.972 188.441,28.533 190.663,27.065 C192.527,25.795 195.701,25.161 200.184,25.161 C202.325,25.161 204.091,25.24 205.479,25.399 L205.479,23.912 C205.479,22.642 205.381,21.729 205.182,21.175 C204.707,20.025 203.02,19.449 200.124,19.449 C198.26,19.449 196.275,19.627 194.173,19.985 C192.627,20.222 191.774,20.341 191.614,20.341 C190.94,20.341 190.503,19.962 190.305,19.21 C189.908,17.623 189.71,16.473 189.71,15.758 C189.71,14.847 190.146,14.251 191.02,13.974 C193.916,13.061 197.328,12.605 201.254,12.605 C206.254,12.605 209.586,13.419 211.253,15.044 C212.681,16.434 213.395,19.071 213.395,22.959 L213.395,38.192 C213.394,39.502 213.156,40.454 212.68,41.049 Z M201.194,30.576 C198.576,30.576 196.87,30.873 196.078,31.469 C195.324,31.945 194.947,32.858 194.947,34.205 C194.947,35.475 195.284,36.437 195.958,37.092 C196.633,37.746 197.843,38.074 199.589,38.074 C201.731,38.074 203.338,37.836 204.408,37.36 C204.885,37.162 205.181,36.844 205.301,36.408 C205.419,36.05 205.478,35.375 205.478,34.385 L205.478,30.815 C203.893,30.656 202.465,30.576 201.194,30.576 Z" id="Shape" fill-rule="nonzero"></path>
                <path d="M108.662,15.044 C108.662,13.935 109.158,13.377 110.15,13.377 L115.148,13.377 C116.141,13.377 116.636,13.935 116.636,15.044 L116.636,32.184 C116.636,33.888 116.775,35.039 117.053,35.634 C117.49,36.785 118.898,37.361 121.279,37.361 C123.381,37.361 124.948,37.202 125.98,36.882 C126.496,36.725 126.872,36.528 127.111,36.288 C127.388,36.011 127.528,35.475 127.528,34.681 L127.528,15.044 C127.528,13.935 128.043,13.377 129.075,13.377 L134.013,13.377 C135.005,13.377 135.501,13.935 135.501,15.044 L135.501,38.43 C135.501,40.334 134.787,41.605 133.358,42.239 C130.462,43.469 126.019,44.084 120.028,44.084 C114.039,44.084 110.507,42.735 109.436,40.038 C108.92,38.729 108.662,36.469 108.662,33.254 L108.662,15.044 Z" id="Path"></path>
                <path d="M121.988,9.599 C121.16,9.599 120.403,9.548 119.713,9.444 C119.024,9.342 118.679,9.014 118.679,8.463 C118.679,8.05 118.851,7.635 119.196,7.222 L123.695,1.326 C124.281,0.532 125.057,0.137 126.022,0.137 C127.333,0.137 128.487,0.189 129.487,0.291 C130.349,0.395 130.78,0.724 130.78,1.274 C130.78,1.62 130.521,2.085 130.004,2.67 L124.263,8.67 C123.747,9.289 122.988,9.599 121.988,9.599 Z" id="Path"></path>
            </g>
            <path d="M403.303,2.342 L403.317,2.339 C403.633,1.172 404.69,0.31 405.958,0.302 C405.96,0.302 405.962,0.301 405.964,0.301 C404.966,0.301 406.155,0.301 402.751,0.301 C401.034,0.301 400.212,0.669 399.46,1.109 C398.597,1.614 397.843,3.621 397.565,4.316 C397.565,4.316 383.239,40.551 373.813,64.355 L383.774,74.314 L403.303,2.342 Z" id="Path" fill="#060E33" opacity="0.2"></path>
        </g>
    </g>
</svg>