<?xml version="1.0" standalone="no"?>
<!DOCTYPE svg PUBLIC "-//W3C//DTD SVG 20010904//EN"
 "http://www.w3.org/TR/2001/REC-SVG-20010904/DTD/svg10.dtd">
<svg version="1.0" xmlns="http://www.w3.org/2000/svg"
 width="1250.000000pt" height="1250.000000pt" viewBox="0 0 1250.000000 1250.000000"
 preserveAspectRatio="xMidYMid meet">
<metadata>
Created by potrace 1.11, written by Peter Selinger 2001-2013
</metadata>
<g transform="translate(0.000000,1250.000000) scale(0.100000,-0.100000)"
fill="#000000" stroke="none">
<path d="M1600 12364 c-132 -20 -177 -27 -190 -29 -235 -48 -480 -158 -680
-304 -171 -125 -314 -280 -433 -469 -59 -94 -157 -301 -157 -332 0 -9 -4 -20
-9 -25 -10 -11 -45 -150 -60 -240 -40 -239 -27 -502 35 -715 44 -152 57 -186
108 -290 62 -126 130 -230 222 -340 34 -41 1093 -1105 2352 -2364 2115 -2114
2290 -2291 2281 -2313 -5 -13 -11 -34 -13 -46 -4 -23 -37 -146 -80 -302 -57
-208 -128 -471 -131 -485 -2 -8 -22 -82 -45 -165 -36 -131 -60 -217 -90 -330
-32 -121 -128 -475 -160 -590 -21 -77 -73 -268 -115 -425 -42 -157 -90 -330
-105 -385 -60 -216 -81 -295 -85 -312 -2 -10 -12 -52 -24 -93 -85 -315 -60
-614 75 -884 142 -283 400 -507 695 -605 68 -22 80 -25 164 -41 268 -51 573
-4 805 123 54 30 175 104 195 119 10 8 93 63 560 368 269 176 467 306 745 488
193 127 655 429 850 556 69 45 138 91 154 101 16 11 36 25 45 30 9 6 95 62
191 125 254 168 489 322 657 432 82 53 256 167 388 253 132 87 283 186 335
220 52 34 183 120 290 191 107 71 200 131 205 134 6 3 69 43 140 91 141 93
436 286 635 416 69 45 130 87 137 92 7 6 14 11 17 11 3 0 65 40 138 88 73 49
171 114 218 145 158 105 269 213 367 360 146 218 213 449 208 716 -3 136 -24
258 -66 379 -65 184 -63 182 -949 1357 -124 165 -329 437 -455 605 -126 168
-233 310 -237 315 -5 6 -49 64 -99 130 -49 66 -95 127 -102 135 -7 8 -23 31
-37 50 -13 19 -27 37 -30 40 -6 6 -149 197 -170 227 -14 21 -214 286 -233 308
-8 10 -329 438 -905 1205 -164 217 -303 402 -309 410 -7 8 -139 184 -294 390
-155 206 -450 598 -655 871 -205 272 -388 510 -406 528 -18 18 -51 42 -73 54
l-40 22 -2875 1 c-1581 1 -2886 0 -2900 -2z"/>
</g>
</svg>
