<?xml version="1.0" standalone="no"?>
<!DOCTYPE svg PUBLIC "-//W3C//DTD SVG 20010904//EN"
 "http://www.w3.org/TR/2001/REC-SVG-20010904/DTD/svg10.dtd">
<svg version="1.0" xmlns="http://www.w3.org/2000/svg"
 width="260.000000pt" height="260.000000pt" viewBox="0 0 260.000000 260.000000"
 preserveAspectRatio="xMidYMid meet">
<metadata>
Created by potrace 1.11, written by Peter Selinger 2001-2013
</metadata>
<g transform="translate(0.000000,260.000000) scale(0.100000,-0.100000)"
fill="#000000" stroke="none">
<path d="M355 1908 c-165 -287 -310 -541 -323 -565 l-22 -43 22 -43 c13 -24
158 -278 323 -565 l300 -522 642 0 642 0 40 68 c22 37 168 291 326 565 l286
498 -323 564 -323 565 -645 0 -645 0 -300 -522z m1369 65 c13 -21 106 -182
206 -357 139 -243 180 -324 173 -335 -6 -9 -97 -168 -202 -354 l-193 -337
-406 2 -406 3 -202 353 -202 352 190 333 c105 182 196 342 204 355 l14 22 400
0 400 0 24 -37z"/>
</g>
</svg>
