<?xml version="1.0" encoding="UTF-8"?>
<svg width="1142px" height="260px" viewBox="0 0 1142 260" version="1.1" xmlns="http://www.w3.org/2000/svg" xmlns:xlink="http://www.w3.org/1999/xlink">
    <!-- Generator: Sketch 53.2 (72643) - https://sketchapp.com -->
    <title>logo-organizze</title>
    <desc>Created with Sketch.</desc>
    <g id="Page-1" stroke="none" stroke-width="1" fill="none" fill-rule="evenodd">
        <g id="organizze-1" transform="translate(-389.000000, -410.000000)" fill="#1BD273" fill-rule="nonzero">
            <path d="M735.945104,591.704545 C704.102273,591.704545 682.977273,571.831095 682.977273,541.846591 C682.977273,512.036415 704.102273,491.988636 735.945104,491.988636 C767.321942,491.988636 788.602273,512.036415 788.602273,541.846591 C788.602273,571.831095 767.321942,591.704545 735.945104,591.704545 Z M736.315225,560.681818 C747.713045,560.681818 755.363636,553.365137 755.363636,542.215909 C755.363636,531.066681 747.713045,523.75 736.315225,523.75 C724.761271,523.75 716.954545,531.066681 716.954545,542.215909 C716.954545,553.365137 724.761271,560.681818 736.315225,560.681818 Z M831.79213,504.826715 C839.585895,496.846288 850.964792,491.988636 864.681818,491.988636 L863.104239,516.319221 C862.75233,521.746665 859.05894,526.381355 853.846967,527.935809 C839.55941,532.197025 832.415631,537.158585 832.415631,542.820487 L832.415631,589.488636 L799.681818,589.488636 L799.681818,493.723512 L831.324504,493.723512 L831.79213,504.826715 Z M948.778259,493.713986 L970.306818,493.713986 L970.306818,577.738536 C970.306818,608.449768 946.486343,628.636364 910.28549,628.636364 C893.046989,628.636364 877.845765,624.668058 867.189237,617.076518 L870.790749,602.713994 C872.538295,595.744936 879.569598,591.52087 886.495605,593.279279 C886.717018,593.335492 886.936913,593.397596 887.155058,593.465525 C896.333321,596.323573 903.730037,597.752597 909.345208,597.752597 C925.330001,597.752597 936.143243,590.678662 937.240238,579.808956 C930.971692,586.710356 922.039014,590.678662 910.598918,590.678662 C885.36802,590.678662 864.681818,570.664601 864.681818,540.816044 C864.681818,511.485092 885.36802,491.988636 910.598918,491.988636 C922.665869,491.988636 931.75526,496.302012 938.18052,503.893552 C938.443629,498.196671 943.110462,493.713986 948.778259,493.713986 Z M918.232955,559.943182 C929.914131,559.943182 937.806818,552.772834 937.806818,541.846591 C937.806818,530.920347 929.914131,523.75 918.232955,523.75 C906.551778,523.75 898.659091,531.09107 898.659091,541.675868 C898.659091,552.772834 906.551778,559.943182 918.232955,559.943182 Z M1027.02036,491.988636 C1052.66541,491.988636 1070.02273,506.980888 1070.02273,529.643595 L1070.02273,589.96126 L1046.63778,589.96126 C1041.97545,589.96126 1038.15145,586.259346 1037.99035,581.589914 L1037.96642,580.896178 C1031.8679,588.043647 1022.95468,591.704545 1013.57235,591.704545 C993.087584,591.704545 979.170455,579.152893 979.170455,560.325413 C979.170455,541.323605 995.902284,528.597624 1021.07822,528.597624 C1025.92575,528.597624 1031.39878,529.12061 1037.02818,529.992252 C1035.77721,523.716426 1029.36594,520.578512 1018.41989,520.578512 C1014.77099,520.578512 1010.34602,521.381899 1005.14499,522.988672 C1001.45119,524.129816 997.45016,522.677379 995.342629,519.430263 L985.1126,503.668647 C996.527773,495.823864 1009.19393,491.988636 1027.02036,491.988636 Z M1023.2776,565.852273 C1031.19156,565.852273 1036.88961,561.25 1037.52273,553.579545 C1033.24919,552.897727 1029.13393,552.556818 1025.49351,552.556818 C1018.05438,552.556818 1013.14773,555.284091 1013.14773,559.204545 C1013.14773,563.295455 1016.15503,565.852273 1023.2776,565.852273 Z M1146.66067,491.988636 C1169.24386,491.988636 1184.51136,509.163903 1184.51136,534.84006 L1184.51136,576.488636 C1184.51136,583.668338 1178.68819,589.488636 1171.50494,589.488636 L1151.11369,589.488636 L1151.11369,540.044686 C1151.11369,529.808921 1144.59319,523.216394 1134.57389,523.216394 C1124.71363,523.216394 1118.19313,529.808921 1118.19313,540.044686 L1118.19313,589.488636 L1084.79545,589.488636 L1084.79545,493.723512 L1117.07987,493.723512 L1117.55698,503.438814 C1125.19074,495.631875 1136.00522,491.988636 1146.66067,491.988636 Z M1213.11198,490.511364 C1201.69389,490.511364 1193.375,482.287051 1193.375,470.9375 C1193.375,459.587949 1201.69389,451.363636 1213.11198,451.363636 C1224.36695,451.363636 1232.52273,459.587949 1232.52273,470.9375 C1232.52273,482.287051 1224.36695,490.511364 1213.11198,490.511364 Z M1197.80682,589.488636 L1197.80682,494.204545 L1230.30682,494.204545 L1230.30682,589.488636 L1197.80682,589.488636 Z M1240.64773,589.488636 L1240.64773,569.721204 C1240.64773,567.557788 1241.4559,565.472679 1242.91327,563.876055 L1279.56513,523.7219 L1254.57198,523.7219 C1247.4082,523.7219 1241.60081,517.904608 1241.60081,510.728615 L1241.60081,494.204545 L1327.69563,494.204545 L1327.83107,513.927626 C1327.84611,516.117599 1327.03248,518.231994 1325.55393,519.845268 L1288.93707,559.798666 L1329.28409,559.798666 L1329.28409,576.495351 C1329.28409,583.671344 1323.4767,589.488636 1316.31292,589.488636 L1240.64773,589.488636 Z M1335.93182,585.157541 L1335.93182,569.721204 C1335.93182,567.557788 1336.73999,565.472679 1338.19736,563.876055 L1374.84922,523.7219 L1349.85607,523.7219 C1342.69229,523.7219 1336.8849,517.904608 1336.8849,510.728615 L1336.8849,494.204545 L1418.68563,494.204545 C1421.06195,494.204545 1422.99291,496.125533 1423.00926,498.505847 L1423.11516,513.927626 C1423.1302,516.117599 1422.31657,518.231994 1420.83802,519.845268 L1384.22116,559.798666 L1424.56818,559.798666 L1424.56818,576.495351 C1424.56818,583.671344 1418.76079,589.488636 1411.59701,589.488636 L1340.25554,589.488636 C1337.86762,589.488636 1335.93182,587.549539 1335.93182,585.157541 Z M1530.93182,540.277634 C1530.93182,541.827951 1530.86813,543.747059 1530.74076,546.034957 C1530.48497,550.629412 1526.68479,554.223915 1522.08322,554.223915 L1466.75046,554.223915 C1468.78548,559.802428 1473.32514,563.114669 1482.24791,563.114669 C1487.14579,563.114669 1491.67671,561.965832 1495.84067,559.668156 L1495.84066,559.668134 C1498.42308,558.243155 1501.55276,558.228611 1504.14831,559.629527 L1525.13984,570.959452 C1517.15631,582.813791 1501.65886,591.704545 1482.71753,591.704545 C1451.87917,591.704545 1431.21591,572.528409 1431.21591,543.415548 C1431.21591,512.733729 1451.09647,491.988636 1480.99559,491.988636 C1511.05125,491.988636 1530.93182,511.339101 1530.93182,540.277634 Z M1480.76411,520.795455 C1473.17522,520.795455 1468.83871,524.300847 1466.67045,531.136364 L1495.47727,531.136364 C1493.30902,524.300847 1488.66276,520.795455 1480.76411,520.795455 Z M389,540.008699 C389,468.199371 447.033228,410 518.639479,410 C590.216939,410 648.261364,468.199371 648.261364,540.008699 C648.261364,611.800629 590.216939,670 518.639479,670 C447.033228,670 389,611.800629 389,540.008699 Z M510.068304,614.276658 L511.35273,626.420455 L526.653851,624.822336 C534.951813,623.955659 540.971622,616.568471 540.099472,608.322589 C585.97264,599.115781 590.966577,557.855254 575.059721,539.062838 C560.13811,521.392014 532.935305,522.666871 510.260889,519.062169 C492.88283,516.299463 494.59103,496.961125 523.291571,500.519453 C537.544,502.260766 542.872745,506.229445 552.498952,509.670005 C555.633423,505.087251 568.026107,485.435587 570.339281,481.437857 C556.579423,472.709498 543.353619,468.270534 525.414059,467.633007 L525.408328,467.653274 L522.074954,467.653274 C520.784549,467.653274 519.10237,467.78693 517.028415,468.05424 L524.861328,464.944795 C524.596565,462.533796 524.19428,458.499168 523.654474,452.840909 L507.299046,454.549145 C499.583361,455.355006 493.985968,462.223827 494.79692,469.891085 C485.42445,472.833229 481.044537,474.425792 473.681515,479.49236 C451.731201,494.542645 447.974883,519.740286 460.022532,536.733032 C478.056081,562.220209 524.581544,553.753954 539.690274,561.537644 C542.86849,563.022201 543.663982,566.472613 542.553004,569.955168 C539.544256,581.288502 492.667529,578.889521 478.247858,568.469394 C477.148377,567.676821 475.424915,566.603658 474.707016,565.783036 C469.025171,576.654817 462.257069,587.415728 457.055771,596.985836 C471.499523,603.923676 482.483645,610.492493 509.155444,611.709809 C510.315444,611.727953 511.540646,611.737025 512.831051,611.737025 C514.121456,611.737025 515.803636,611.60337 517.87759,611.336059 L510.068304,614.276658 Z" id="logo-organizze"></path>
        </g>
    </g>
</svg>