<?xml version="1.0" encoding="UTF-8"?>
<svg width="99px" height="20px" viewBox="0 0 99 20" version="1.1" xmlns="http://www.w3.org/2000/svg" xmlns:xlink="http://www.w3.org/1999/xlink">
    <!-- Generator: Sketch 53.2 (72643) - https://sketchapp.com -->
    <title>logo-ebanx</title>
    <desc>Created with Sketch.</desc>
    <g id="Page-1" stroke="none" stroke-width="1" fill="none" fill-rule="evenodd">
        <g id="logo-ebanx" transform="translate(0.000000, 0.900000)" fill-rule="nonzero">
            <path d="M0.2,0.1 L8.6,7 L14.7,0.4 C14.8,0.3 14.7,0.2 14.6,0.2 L0.2,0.2 L0.2,0.1 Z M0.2,18.7 L8.6,11.8 L14.7,18.4 C14.8,18.5 14.7,18.6 14.6,18.6 L0.2,18.6 L0.2,18.7 Z" id="Shape" fill="#2397D4"></path>
            <path d="M0.3,0.2 L11.5,9.3 C11.6,9.4 11.6,9.5 11.5,9.5 L0.3,18.6 C0.2,18.7 -3.55271368e-14,18.6 -3.55271368e-14,18.5 L-3.55271368e-14,0.3 C-3.55271368e-14,0.1 0.2,0.1 0.3,0.2 Z M46.5,13.3 C46.5,16.5 43.9,18.7 40.7,18.7 L33,18.7 C32.9,18.7 32.8,18.6 32.8,18.5 L32.8,0.3 C32.9,0.2 32.9,0.1 33,0.1 L40.2,0.1 C43.3,0.1 45.8,2.2 45.8,5.3 C45.8,6.9 45.1,8.1 44.1,9 C45.6,9.9 46.5,11.4 46.5,13.3 Z M36.5,3.7 L36.5,7.5 C36.5,7.6 36.6,7.7 36.7,7.7 L40.2,7.7 C41.4,7.7 42.3,6.7 42.2,5.5 C42.1,4.5 41.2,3.7 40.1,3.7 L36.7,3.7 C36.6,3.5 36.5,3.6 36.5,3.7 Z M42.9,12.9 C42.8,11.8 41.8,10.9 40.7,10.9 L36.5,10.9 L36.5,15.3 L40.7,15.3 C42,15.3 43,14.2 42.9,12.9 Z M59.6,15.3 L52.4,15.3 C52.3,15.3 52.3,15.3 52.3,15.4 L51.3,18.5 C51.3,18.6 51.2,18.6 51.2,18.6 L47.5,18.6 C47.4,18.6 47.3,18.5 47.4,18.4 L53.8,0.1 C53.8,2.30926389e-14 53.9,2.30926389e-14 53.9,2.30926389e-14 L58.2,2.30926389e-14 C58.3,2.30926389e-14 58.3,2.30926389e-14 58.3,0.1 L64.7,18.4 C64.7,18.5 64.7,18.6 64.6,18.6 L60.9,18.6 C60.8,18.6 60.8,18.6 60.8,18.5 L59.8,15.4 C59.7,15.4 59.7,15.3 59.6,15.3 L59.6,15.3 Z M58.5,11.7 L56.1,4.7 C56.1,4.6 55.9,4.6 55.8,4.7 L53.4,11.7 C53.4,11.8 53.4,11.9 53.5,11.9 L58.2,11.9 C58.5,11.9 58.5,11.8 58.5,11.7 L58.5,11.7 Z M81,0.3 L81,18.5 C81,18.6 80.9,18.6 80.9,18.6 L78.3,18.6 C78.3,18.6 78.2,18.6 78.2,18.5 L70.3,7.3 L70.3,18.5 C70.3,18.6 70.2,18.6 70.2,18.6 L66.8,18.6 C66.7,18.6 66.7,18.5 66.7,18.5 L66.7,0.3 C66.7,0.2 66.8,0.2 66.8,0.2 L69.4,0.2 C69.4,0.2 69.5,0.2 69.5,0.3 L77.4,11.5 L77.4,0.3 C77.4,0.2 77.5,0.2 77.5,0.2 L80.9,0.2 C80.9,0.1 81,0.2 81,0.3 L81,0.3 Z M94.4,18.6 L91,12.9 C90.9,12.8 90.8,12.8 90.7,12.9 L87.3,18.6 L87.2,18.7 L83.4,18.7 C83.3,18.7 83.2,18.6 83.3,18.5 L88.8,9.3 L88.8,9.1 L83.6,0.4 C83.5,0.3 83.6,0.2 83.7,0.2 L87.5,0.2 C87.6,0.2 87.6,0.2 87.6,0.3 L90.7,5.6 C90.8,5.7 90.9,5.7 91,5.6 L94.1,0.3 L94.2,0.2 L98,0.2 C98.1,0.2 98.2,0.3 98.1,0.4 L92.9,9.1 L92.9,9.3 L98.4,18.5 C98.5,18.6 98.4,18.7 98.3,18.7 L94.5,18.7 C94.4,18.7 94.4,18.6 94.4,18.6 L94.4,18.6 Z M23.3,15.2 C22.8,15.1 22.5,14.7 22.5,14.2 L22.5,11.2 C22.5,11.1 22.6,11.1 22.6,11.1 L29.3,11.1 C29.4,11.1 29.4,11 29.4,11 L29.4,7.7 C29.4,7.6 29.3,7.6 29.3,7.6 L22.6,7.6 C22.5,7.6 22.5,7.5 22.5,7.5 L22.5,3.8 C22.5,3.7 22.6,3.7 22.6,3.7 L30,3.7 C30.1,3.7 30.1,3.6 30.1,3.6 L30.1,0.3 C30.2,0.2 30.1,0.1 30,0.1 L19,0.1 C18.9,0.1 18.9,0.2 18.9,0.2 L18.9,15.2 C18.9,17.1 20.5,18.7 22.4,18.7 L30.4,18.7 L30.4,15.2 L23.3,15.2 L23.3,15.2 Z" fill="#2F4A75"></path>
        </g>
    </g>
</svg>