<?xml version="1.0" encoding="UTF-8"?>
<svg width="180px" height="64px" viewBox="0 0 180 64" version="1.1" xmlns="http://www.w3.org/2000/svg" xmlns:xlink="http://www.w3.org/1999/xlink">
    <!-- Generator: Sketch 55.2 (78181) - https://sketchapp.com -->
    <title>plurall</title>
    <desc>Created with Sketch.</desc>
    <g id="Page-1" stroke="none" stroke-width="1" fill="none" fill-rule="evenodd">
        <g id="plurall" transform="translate(0.000000, -0.000000)" fill-rule="nonzero">
            <path d="M37.2120111,56.2926623 L36.8101002,56.60641 C36.1044601,55.8648701 35.2368534,55.4945176 34.2074471,55.4945176 C33.0960557,55.4945176 32.1948868,55.8648701 31.5046085,56.60641 C30.8347013,57.3237384 30.4994137,58.2446104 30.4994137,59.3681911 C30.4994137,60.4961132 30.8325306,61.4203247 31.4990983,62.1421614 C32.1850353,62.8873748 33.0878738,63.2600649 34.2074471,63.2600649 C35.2131429,63.2600649 36.0807495,62.8753525 36.8101002,62.1069295 L37.0941262,62.5918275 C36.2777811,63.3762801 35.315666,63.7686735 34.2074471,63.7686735 C32.934256,63.7686735 31.9010093,63.3547403 31.1088757,62.5263729 C30.331603,61.7105288 29.943384,60.6612523 29.943384,59.3803803 C29.943384,58.1103618 30.3376141,57.0644249 31.1264082,56.2425696 C31.9147013,55.4202134 32.9419369,55.0094527 34.2074471,55.0094527 C35.3789499,55.0094527 36.3803043,55.4372449 37.2120111,56.2926623 Z" id="Fill-48" fill="#1A1919"></path>
            <path d="M52.503846,59.3681911 C52.503846,58.1103618 52.2418609,57.1976716 51.7172226,56.6301206 C51.015423,55.872551 50.1262764,55.4945176 49.0501169,55.4945176 C47.9617681,55.4945176 47.0684471,55.8710482 46.3709889,56.6241095 C45.8425102,57.1916605 45.5781874,58.1065213 45.5781874,59.3681911 C45.5781874,60.6298609 45.8425102,61.5470594 46.3709889,62.1184508 C47.0722876,62.8791929 47.9656085,63.2600649 49.0501169,63.2600649 C50.1262764,63.2600649 51.015423,62.8775232 51.7172226,62.1122727 C52.2418609,61.5408813 52.503846,60.6260204 52.503846,59.3681911 M53.0598757,59.3803803 C53.0598757,60.7995083 52.6855158,61.8701577 51.936295,62.5918275 C51.1199499,63.3762801 50.1576679,63.7686735 49.0501169,63.7686735 C47.8198386,63.7686735 46.7986141,63.342718 45.9861095,62.491141 C45.3437532,61.8167254 45.0223247,60.7796382 45.0223247,59.3803803 C45.0223247,57.984295 45.3475937,56.9472078 45.9982987,56.2689518 C46.8024545,55.4288961 47.8198386,55.0094527 49.0501169,55.0094527 C50.2683729,55.0094527 51.2834193,55.4350742 52.0959239,56.2866512 C52.7382801,56.9608998 53.0598757,57.9919759 53.0598757,59.3803803" id="Fill-50" fill="#1A1919"></path>
            <path d="M70.758384,55.1514991 L68.2746178,62.9759889 C68.1083098,63.4967866 67.8568442,63.7566011 67.5203878,63.7566011 C67.1917792,63.7566011 66.9446549,63.4972876 66.7783469,62.9776586 L65.8112226,59.9169907 L64.8456011,62.9766568 C64.679961,63.4967866 64.4294972,63.7566011 64.0937087,63.7566011 C63.766102,63.7566011 63.5194787,63.4962857 63.3533377,62.9759889 L60.8695714,55.1509981 L61.4035603,55.1509981 L63.8861577,63.0112208 C63.9335788,63.1571577 64.0023729,63.2302931 64.0932078,63.2302931 C64.1872152,63.2302931 64.2566772,63.1593284 64.3000909,63.0173989 L65.5403878,59.0599035 L64.2990891,55.1514991 L64.8319091,55.1514991 L67.3161763,63.0112208 C67.3629295,63.1571577 67.4318905,63.2302931 67.5220575,63.2302931 C67.6162319,63.2302931 67.685026,63.1593284 67.7279388,63.016731 L70.2248961,55.1509981 L70.758384,55.1514991 Z" id="Fill-52" fill="#1A1919"></path>
            <path d="M86.0502189,59.3681911 C86.0502189,58.1103618 85.7882338,57.1976716 85.2635955,56.6301206 C84.5617959,55.872551 83.6726494,55.4945176 82.5964898,55.4945176 C81.508141,55.4945176 80.61482,55.8710482 79.9173618,56.6241095 C79.3888831,57.1916605 79.1245603,58.1065213 79.1245603,59.3681911 C79.1245603,60.6298609 79.3888831,61.5470594 79.9173618,62.1184508 C80.6186605,62.8791929 81.5119814,63.2600649 82.5964898,63.2600649 C83.6726494,63.2600649 84.5617959,62.8775232 85.2635955,62.1122727 C85.7882338,61.5408813 86.0502189,60.6260204 86.0502189,59.3681911 M86.6062486,59.3803803 C86.6062486,60.7995083 86.2318887,61.8701577 85.4826679,62.5918275 C84.6663228,63.3762801 83.7040408,63.7686735 82.5964898,63.7686735 C81.3662115,63.7686735 80.344987,63.342718 79.5324824,62.491141 C78.8901262,61.8167254 78.5686976,60.7796382 78.5686976,59.3803803 C78.5686976,57.984295 78.8939666,56.9472078 79.5446716,56.2689518 C80.3488275,55.4288961 81.3662115,55.0094527 82.5964898,55.0094527 C83.8147458,55.0094527 84.8297922,55.4350742 85.6422968,56.2866512 C86.2846531,56.9608998 86.6062486,57.9919759 86.6062486,59.3803803" id="Fill-54" fill="#1A1919"></path>
            <path d="M99.0713154,57.6116048 C99.0713154,56.9846104 98.8913154,56.4793414 98.5318163,56.094462 C98.1729852,55.7102505 97.6814082,55.5180612 97.0570853,55.5180612 L95.4227254,55.5180612 C95.1029666,55.5654824 94.9426698,55.7366327 94.9426698,56.0323469 L94.9426698,59.7051484 L96.838013,59.7051484 C97.50959,59.7051484 98.0440798,59.5261503 98.4431521,59.1673191 C98.8615937,58.7924583 99.0713154,58.2738312 99.0713154,57.6116048 M99.6266772,57.6000835 C99.6266772,58.3723469 99.3394787,59.0153711 98.7635788,59.52782 C98.6138015,59.6620686 98.4361391,59.7804545 98.2312597,59.8828108 L99.6266772,63.6145547 L99.0955269,63.612384 L97.758384,60.054128 C97.4347848,60.1449629 97.0669369,60.1900464 96.6558423,60.1900464 L94.9426698,60.1900464 L94.9426698,63.6145547 L94.4163618,63.6145547 L94.4163618,56.0378571 C94.4163618,55.6870408 94.5447662,55.4212152 94.8007403,55.2395455 C94.9977718,55.1019573 95.2228553,55.0331633 95.4749889,55.0331633 L97.0604249,55.0386735 C97.8288479,55.0386735 98.4493302,55.2726067 98.9205362,55.7399722 C99.3910742,56.2068367 99.6266772,56.8271521 99.6266772,57.6000835" id="Fill-56" fill="#1A1919"></path>
            <polygon id="Fill-58" fill="#1A1919" points="113.068419 63.6135195 112.392501 63.6146883 108.90738 59.0467291 107.962631 59.9472301 107.962631 63.6146883 107.43649 63.6146883 107.43649 55.1393265 107.962631 55.1393265 107.962631 59.2085288 112.16174 55.1690482 112.946694 55.1690482 109.297603 58.6706994"></polygon>
            <polygon id="Fill-60" fill="#1A1919" points="120.877013 63.6206494 121.403321 63.6206494 121.403321 55.1514657 120.877013 55.1514657"></polygon>
            <path d="M134.973751,62.8874249 C134.973751,63.3960334 134.74633,63.6503377 134.291655,63.6503377 C133.983417,63.6503377 133.736293,63.4554768 133.550115,63.066256 L130.070004,55.6899295 C130.029929,55.6067755 129.975996,55.5655325 129.907703,55.5655325 C129.799837,55.5655325 129.745236,55.638167 129.745236,55.7839369 L129.745236,63.620616 L129.218928,63.620616 L129.218928,55.8433803 C129.218928,55.3347718 129.445848,55.0804675 129.899354,55.0804675 C130.21043,55.0804675 130.457054,55.2736586 130.638724,55.6595399 L134.128186,63.0295213 C134.168427,63.1120074 134.220189,63.1532505 134.284475,63.1532505 C134.393009,63.1532505 134.447443,63.0844564 134.447443,62.9463673 L134.447443,55.1514323 L134.973751,55.1514323 L134.973751,62.8874249 Z" id="Fill-62" fill="#1A1919"></path>
            <path d="M150.052542,56.2926623 L149.650631,56.60641 C148.944991,55.8648701 148.077384,55.4945176 147.047978,55.4945176 C145.936586,55.4945176 145.035417,55.8648701 144.345139,56.60641 C143.675232,57.3237384 143.339944,58.2446104 143.339944,59.3681911 C143.339944,60.4961132 143.673562,61.4203247 144.34013,62.1421614 C145.027236,62.8873748 145.931076,63.2600649 147.051818,63.2600649 C147.991058,63.2600649 148.810074,62.9249443 149.508701,62.2543692 L149.508701,60.2907328 C149.508701,59.9951855 149.348404,59.8235343 149.028646,59.7761132 L145.829722,59.7761132 L145.829722,59.2912152 L148.976382,59.2912152 C149.228516,59.2912152 149.453599,59.3605102 149.650631,59.4980983 C149.906605,59.6797681 150.034842,59.9455937 150.034842,60.2969109 L150.034842,63.7389518 L149.508701,63.7389518 L149.508701,62.9585065 C148.790204,63.4985065 147.971688,63.7686735 147.051818,63.7686735 C145.777458,63.7686735 144.74321,63.3547403 143.949907,62.5263729 C143.172635,61.7105288 142.783915,60.6612523 142.783915,59.3803803 C142.783915,58.1103618 143.178145,57.0644249 143.966939,56.2425696 C144.755232,55.4202134 145.782468,55.0094527 147.047978,55.0094527 C148.219481,55.0094527 149.220835,55.4372449 150.052542,56.2926623" id="Fill-63" fill="#1A1919"></path>
            <path d="M168.756896,0.0634174397 L171.895041,0.0634174397 C174.626933,0.0634174397 175.991627,1.37117254 175.991627,3.98568089 L175.991627,23.8324341 L168.756896,22.1413024 L168.756896,0.0634174397 Z" id="Fill-64" fill="#0093CC"></path>
            <path d="M163.825948,33.4844416 C162.408991,31.5673915 162.122293,30.8635881 161.893703,29.3158887 C161.664779,27.7683562 161.550735,26.0511763 161.550735,24.1648497 L161.550735,7.76264193 L154.312163,7.76264193 L154.312163,28.711102 C154.312163,35.1531985 156.856542,38.4249239 158.10836,39.7285046 C160.523833,42.2443302 165.472998,41.9215659 165.472998,41.9215659 L165.472998,37.656 C165.472998,35.8641818 164.588527,34.5160186 163.825948,33.4844416" id="Fill-65" fill="#46265D"></path>
            <path d="M101.692252,41.9350742 L98.5541076,41.9350742 C95.8222152,41.9350742 94.4575213,40.6273191 94.4575213,38.0128108 L94.4575213,14.9701391 C94.4575213,12.7031076 94.909525,10.021141 95.547039,8.12880334 C98.6810093,-1.1720872 110.660193,0.0633673469 110.660193,0.0633673469 L110.660193,3.46299629 C110.660193,6.01973098 109.293829,7.29809833 106.562772,7.29809833 C106.562772,7.29809833 101.640323,8.12880334 101.692252,14.9701391 L101.692252,41.9350742 Z" id="Fill-66" fill="#0D103C"></path>
            <path d="M82.9809017,0.0634174397 L79.842757,0.0634174397 L79.842757,27.0283525 C79.842757,29.4126011 79.1750204,31.2862375 77.8372096,32.6509314 C76.5019035,34.017295 74.7576735,34.7003933 72.6071911,34.7003933 L70.7616067,34.7003933 C68.6112913,34.7003933 66.8670612,34.017295 65.5317551,32.6509314 C64.1937774,31.2862375 63.5262078,29.4126011 63.5262078,27.0283525 L63.5262078,0.0634174397 L60.3880631,0.0634174397 C57.6561707,0.0634174397 56.2914768,1.37117254 56.2914768,3.98568089 L56.2914768,27.0283525 C56.2914768,29.295384 56.6538145,31.358705 57.3809944,33.2184824 C58.1065046,35.0782597 59.1086939,36.648167 60.3880631,37.9248646 C61.6655955,39.2040668 63.1777291,40.1917291 64.9209573,40.8886865 C66.48118,41.5128423 68.1875065,41.8414508 70.0262449,41.9074063 L70.0262449,41.9351243 L70.6732764,41.9351243 L70.6746122,41.9351243 L73.3425529,41.9351243 L73.3425529,41.9074063 C75.1814583,41.8414508 76.8876178,41.5128423 78.4478404,40.8886865 C80.1912356,40.1917291 81.7033692,39.2040668 82.9809017,37.9248646 C84.2601039,36.648167 85.2624601,35.0782597 85.9879703,33.2184824 C86.7151503,31.358705 87.0774879,29.295384 87.0774879,27.0283525 L87.0774879,3.98568089 C87.0774879,1.37117254 85.7127941,0.0634174397 82.9809017,0.0634174397" id="Fill-67" fill="#0D103C"></path>
            <path d="M25.1572876,32.4801484 C23.8219814,33.8465121 22.0777514,34.5297774 19.927269,34.5297774 L17.9105343,34.5297774 C17.6715918,34.5297774 17.4563599,34.5521521 17.2381224,34.5715213 C17.019885,34.5521521 16.8046531,34.5297774 16.5653766,34.5297774 L14.548475,34.5297774 C12.3981596,34.5297774 10.6539295,33.8465121 9.31862338,32.4801484 C7.98064564,31.1154545 7.31307607,29.2419852 7.31307607,26.8577365 L7.31307607,14.9700557 C7.31307607,12.5858071 7.98064564,10.7123377 9.31862338,9.34764378 C10.6539295,7.98128015 12.3981596,7.29801484 14.548475,7.29801484 L16.5653766,7.29801484 C16.8043191,7.29801484 17.019551,7.27564007 17.2372876,7.25627087 C17.456026,7.27564007 17.6712579,7.29801484 17.9105343,7.29801484 L19.927269,7.29801484 C22.0777514,7.29801484 23.8219814,7.98128015 25.1572876,9.34764378 C26.4952653,10.7123377 27.1628349,12.5858071 27.1628349,14.9700557 L27.1628349,26.8577365 C27.1628349,29.2419852 26.4952653,31.1154545 25.1572876,32.4801484 M33.3080482,8.78009276 C32.582538,6.9203154 31.5801818,5.35024119 30.3009796,4.07371058 C29.0234471,2.79434137 27.5113135,1.80667904 25.7680853,1.10972171 C24.2075288,0.485732839 22.5013692,0.156957328 20.6626308,0.0910018553 L20.6626308,0.0634508349 L14.4614805,0.0634508349 L14.4601447,0.0634508349 L13.8131132,0.0634508349 L13.8131132,0.0910018553 C11.9740408,0.156957328 10.2678813,0.485732839 8.7078256,1.10972171 C6.9645974,1.80667904 5.45246382,2.79434137 4.17493135,4.07371058 C2.89556215,5.35024119 1.89337291,6.9203154 1.16786271,8.78009276 C0.440682746,10.6398701 0.0783450835,12.7031911 0.0783450835,14.9700557 L0.0783450835,33.39718 L0.0783450835,37.7540816 L0.0783450835,45.9963451 L3.2164898,45.9963451 C5.94838219,45.9963451 7.31307607,44.68859 7.31307607,42.0740816 L7.31307607,40.0645269 C7.76157328,40.3031354 8.22342857,40.5243785 8.7078256,40.7180705 C10.2678813,41.3420594 11.9740408,41.6708349 13.8131132,41.7367904 L13.8131132,41.7643414 L20.0149314,41.7643414 L20.0157662,41.7643414 L20.6626308,41.7643414 L20.6626308,41.7367904 C22.5013692,41.6708349 24.2075288,41.3420594 25.7680853,40.7180705 C27.5113135,40.0211132 29.0234471,39.0332839 30.3009796,37.7540816 C31.5801818,36.477384 32.582538,34.9074768 33.3080482,33.0476994 C34.0028349,31.2704082 34.35482,29.3014286 34.3853766,27.152115 L34.3975659,27.152115 L34.3975659,14.9700557 C34.3975659,12.7031911 34.0352282,10.6398701 33.3080482,8.78009276" id="Fill-68" fill="#0D103C"></path>
            <path d="M138.261273,32.4802319 C136.9258,33.8465955 135.18157,34.5296939 133.031087,34.5296939 L131.014519,34.5296939 C130.774909,34.5296939 130.559677,34.5522356 130.34144,34.5716048 C130.123536,34.5522356 129.908304,34.5296939 129.669362,34.5296939 L127.65246,34.5296939 C125.501978,34.5296939 123.757748,33.8465955 122.422609,32.4802319 C121.362813,31.399564 120.636968,29.994295 120.416894,28.2742764 L120.416894,14.9699722 C120.416894,12.5858905 121.084631,10.7122542 122.422609,9.3475603 C123.757748,7.98119666 125.501978,7.29809833 127.65246,7.29809833 L129.669362,7.29809833 C129.908471,7.29809833 130.123703,7.27572356 130.342275,7.25618738 C130.560345,7.27572356 130.775577,7.29809833 131.014519,7.29809833 L133.031087,7.29809833 C135.18157,7.29809833 136.9258,7.98119666 138.261273,9.3475603 C139.59925,10.7122542 140.266653,12.5858905 140.266653,14.9699722 L140.266653,28.2742764 C140.046412,29.994295 139.320735,31.399564 138.261273,32.4802319 M146.412033,8.78000928 C145.686523,6.92023191 144.684,5.35032468 143.404965,4.07362709 C142.127265,2.79442486 140.615466,1.80676252 138.872071,1.10963822 C137.311681,0.485649351 135.605521,0.157040816 133.766616,0.0910853432 L133.766616,0.0633673469 L133.119751,0.0633673469 L133.118416,0.0633673469 L126.917265,0.0633673469 L126.917265,0.0910853432 C125.07836,0.157040816 123.372033,0.485649351 121.811811,1.10963822 C120.068416,1.80676252 118.556282,2.79442486 117.27875,4.07362709 C115.999547,5.35032468 114.997024,6.92023191 114.271848,8.78000928 C113.544668,10.6397866 113.182163,12.7031076 113.182163,14.9699722 L113.182163,28.5148887 L113.249788,28.5148887 C113.385874,30.1405659 113.72567,31.6515306 114.271848,33.0477829 C114.997024,34.9075603 115.999547,36.4774675 117.27875,37.7541651 C118.556282,39.0333673 120.068416,40.0210297 121.811811,40.718154 C123.372033,41.3421429 125.07836,41.6709184 126.917265,41.7368738 L126.917265,41.7644249 L127.563963,41.7644249 L127.565466,41.7644249 L133.766616,41.7644249 L133.766616,41.7368738 C135.605521,41.6709184 137.311681,41.3421429 138.872071,40.718154 C139.480531,40.4747032 140.050586,40.1829963 140.602776,39.8687477 C141.181514,41.1312523 142.41797,41.7644249 144.316319,41.7644249 L147.454631,41.7644249 L147.454631,14.9699722 C147.454631,12.7031076 147.139213,10.6397866 146.412033,8.78000928" id="Fill-69" fill="#EEA52D"></path>
            <path d="M127.004109,7.32174212 C127.004109,7.32174212 113.182347,6.42207607 113.182347,14.9700724 L113.182347,28.5148219 C113.182347,28.5148219 113.377709,40.0628738 125.964852,41.7643581 L134.582477,41.688384 C134.582477,41.688384 120.510584,38.4433748 120.510584,28.5148219 L120.510584,14.9700724 C120.510584,14.9700724 120.093646,8.1290705 127.004109,7.32174212" id="Fill-70" fill="#005093"></path>
            <path d="M113.227647,13.8590649 C113.227647,13.8590649 112.96466,1.78303525 125.846349,0.0633506494 L133.721599,0.0633506494 C133.721599,0.0633506494 146.522137,0.151680891 147.409614,13.8590649 L147.456368,24.5294917 C147.456368,24.5294917 147.489763,34.8452616 133.355588,34.5183228 C133.355588,34.5183228 138.804679,34.6893061 140.12813,28.514872 L140.198594,14.2474508 C140.198594,14.2474508 140.567777,8.36004824 133.722267,7.32680148 L126.959076,7.32179221 C126.959076,7.32179221 114.668315,6.62917625 113.227647,13.8590649" id="Fill-71" fill="#D92A82"></path>
            <path d="M51.3604286,33.4844082 C49.9434712,31.5673581 49.6566067,30.8635547 49.4281837,29.3158553 C49.1992597,27.7683228 49.0852152,26.0513098 49.0852152,24.1648163 L49.0852152,7.76260853 L49.0813748,7.76260853 L49.0813748,3.9856141 C49.0813748,1.37110575 47.7168479,0.0633506494 44.9849555,0.0633506494 L41.8466438,0.0633506494 L41.8466438,7.76260853 L41.8466438,13.2325714 L41.8466438,28.7110686 C41.8466438,35.1531651 44.3910223,38.4248905 45.6428404,39.7284712 C48.0583135,42.2442968 53.0074787,41.9216994 53.0074787,41.9216994 L53.0074787,37.6561336 C53.0074787,35.8641484 52.1228404,34.5161521 51.3604286,33.4844082" id="Fill-72" fill="#0D103C"></path>
            <path d="M154.312247,0.0634174397 L157.450391,0.0634174397 C160.182284,0.0634174397 161.546978,1.37117254 161.546978,3.98568089 L161.546978,22.1413024 L154.312247,15.9641967 L154.312247,0.0634174397 Z" id="Fill-73" fill="#EEA52D"></path>
            <path d="M161.546911,3.60986827 C161.546911,3.60986827 161.921438,6.56918182 157.929545,8.47170501 C154.464128,10.1232635 154.291642,14.0234861 154.291642,15.5179202 C154.291642,17.0121874 154.572328,20.9296085 156.895297,24.5840427 C159.234963,28.264859 160.995724,29.988384 162.922458,32.1847848 C161.792199,30.9174378 161.55743,26.956102 161.580473,24.8488664 C161.713219,12.6649703 161.546911,3.60986827 161.546911,3.60986827" id="Fill-74" fill="#B3CF38"></path>
            <path d="M178.270581,33.4844416 C176.853623,31.5673915 176.566926,30.8635881 176.338336,29.3158887 C176.109412,27.7683562 175.995534,26.0511763 175.995534,24.1648497 L174.337297,23.0572987 L168.756963,13.9589499 L168.756963,28.711102 C168.756963,35.1531985 171.301174,38.4249239 172.552993,39.7285046 C174.968466,42.2443302 179.917631,41.9215659 179.917631,41.9215659 L179.917631,37.656 C179.917631,35.8641818 179.03316,34.5160186 178.270581,33.4844416" id="Fill-75" fill="#DF5435"></path>
            <path d="M168.756462,4.45540074 C168.756462,4.45540074 168.263048,13.058666 171.927,16.1520612 C176.693327,20.176013 176.039783,24.4272189 176.041954,25.3120241 C176.052306,29.5749184 168.756963,31.9354564 170.648967,37.0844917 C169.601861,35.4232486 168.755794,32.7457904 168.756963,28.7109852 C168.759968,17.3147143 168.756462,4.45540074 168.756462,4.45540074" id="Fill-76" fill="#7BBB42"></path>
        </g>
    </g>
</svg>