<svg xmlns="http://www.w3.org/2000/svg" width="19.842" height="21" viewBox="0 0 19.842 21"><g transform="translate(-254.19 -695.41)"><path d="M251.182,243.927a3.371,3.371,0,1,0-3.371,3.371A3.374,3.374,0,0,0,251.182,243.927Zm-6.219,0a2.848,2.848,0,1,1,2.848,2.848A2.851,2.851,0,0,1,244.963,243.927Z" transform="translate(16.301 458.159)" fill="#fff" stroke="#fff" stroke-width="1"/><path d="M234.729,246.268l3.286-5.786c.041-.057.08-.114.119-.172a6.031,6.031,0,1,0-10.045,0c.037.056.076.113.117.169l3.289,5.79c-3.953.16-7.8.924-7.8,2.318,0,1.543,4.739,2.351,9.421,2.351s9.421-.807,9.421-2.351C242.533,247.192,238.682,246.428,234.729,246.268Zm-6.076-6.061a.27.27,0,0,0-.016-.025q-.058-.08-.113-.163a5.509,5.509,0,1,1,9.174,0c-.034.05-.068.1-.1.149a.294.294,0,0,0-.025.037l-4.458,7.85Zm10.878,9.6a34.349,34.349,0,0,1-12.838,0c-1.83-.418-2.479-.919-2.479-1.223,0-.657,2.63-1.642,7.572-1.805l1.1,1.935a.261.261,0,0,0,.455,0l1.1-1.935c4.942.164,7.572,1.148,7.572,1.805C242.01,248.889,241.36,249.391,239.53,249.808Z" transform="translate(31 464.974)" fill="#fff" stroke="#fff" stroke-width="1"/></g></svg>