<svg width="30" height="30" xmlns="http://www.w3.org/2000/svg">
  <path d="M8.771 15.284c-.027 0 .296.683.305.683.705 1.258 2.064 2.04 4.357 2.257-.327.244-.72.707-.774 1.242-.412.262-1.24.348-1.883.149-.901-.28-1.246-2.033-2.595-1.783-.292.053-.234.243.018.404.412.262.799.59 1.097 1.286.23.535.712 1.49 2.237 1.49a6.84 6.84 0 0 0 1.029-.071s.011 1.366.011 1.896c0 .613-.841.785-.841 1.08 0 .116.279.127.502.127.442 0 1.361-.362 1.361-.998 0-.506.009-2.206.009-2.503 0-.65.355-.857.355-.857s.043 3.47-.085 3.936c-.151.547-.424.47-.424.714 0 .363 1.107.09 1.475-.708.283-.62.159-4.025.159-4.025l.303-.006s.016 1.558.006 2.271c-.01.738-.062 1.671.384 2.111.293.29 1.243.797 1.243.333 0-.27-.52-.491-.52-1.22v-3.358c.415 0 .352 1.104.352 1.104l.031 2.052s-.092.747.823 1.059c.322.111 1.012.141 1.044-.045.033-.186-.83-.464-.838-1.042-.005-.353.015-.56.015-2.093 0-1.534-.209-2.101-.94-2.553 2.255-.228 3.65-.776 4.33-2.244.052.002.277-.685.247-.685.153-.554.235-1.21.252-1.986-.005-2.104-1.03-2.849-1.226-3.199.29-1.593-.049-2.318-.206-2.567-.581-.203-2.02.522-2.808 1.034-1.282-.369-3.992-.334-5.009.095-1.876-1.32-2.868-1.118-2.868-1.118s-.642 1.13-.17 2.782c-.617.774-1.076 1.32-1.076 2.77 0 .817.098 1.548.319 2.186zM15 30C6.716 30 0 23.284 0 15 0 6.715 6.716 0 15 0c8.284 0 15 6.715 15 15 0 8.284-6.716 15-15 15z" fill="#fff"/>
</svg>
