<svg width="30" height="30" xmlns="http://www.w3.org/2000/svg">
  <path d="M17.084 9.142c-1.31.476-2.137 1.705-2.044 3.05l.032.519-.524-.063c-1.907-.244-3.573-1.07-4.987-2.458l-.691-.688-.178.508c-.378 1.133-.137 2.33.649 3.136.419.444.324.508-.398.243-.251-.084-.471-.148-.492-.116-.074.074.178 1.037.377 1.419.272.53.827 1.049 1.435 1.356l.513.244-.607.01c-.587 0-.608.01-.545.233.21.689 1.038 1.42 1.96 1.738l.649.222-.565.339a5.875 5.875 0 0 1-2.809.784c-.471.01-.859.053-.859.085 0 .105 1.278.698 2.022.931 2.232.689 4.882.392 6.873-.784 1.415-.837 2.829-2.5 3.489-4.11.356-.857.713-2.425.713-3.177 0-.488.031-.551.617-1.133.347-.34.671-.71.734-.816.105-.202.094-.202-.44-.022-.89.319-1.016.276-.576-.2.325-.34.712-.954.712-1.134 0-.031-.157.021-.335.117-.188.105-.608.264-.922.36l-.566.18-.513-.35c-.283-.19-.68-.402-.89-.466-.535-.148-1.352-.127-1.834.043zM15 30C6.716 30 0 23.284 0 15 0 6.715 6.716 0 15 0c8.284 0 15 6.715 15 15 0 8.284-6.716 15-15 15z" fill="#1065EE" fill-rule="evenodd"/>
</svg>
