<svg width="30" height="30" xmlns="http://www.w3.org/2000/svg">
  <path d="M23.419 22.069v-5.857c0-3.137-1.676-4.597-3.909-4.597-1.802 0-2.609.992-3.059 1.687v-1.447h-3.395c.045.958 0 10.213 0 10.213h3.395v-5.704c0-.304.022-.609.112-.827.245-.61.804-1.242 1.741-1.242 1.229 0 1.72.937 1.72 2.31v5.464h3.395zM9.479 10.46c1.184 0 1.922-.785 1.922-1.766-.022-1.001-.738-1.764-1.899-1.764s-1.92.763-1.92 1.764c0 .981.737 1.766 1.876 1.766h.022zM15 30C6.716 30 0 23.284 0 15 0 6.715 6.716 0 15 0c8.284 0 15 6.715 15 15 0 8.284-6.716 15-15 15zm-3.823-7.931V11.854H7.782v10.213h3.395z" fill="#1065EE"/>
</svg>
