<?xml version="1.0" encoding="UTF-8"?>
<svg width="35px" height="81px" viewBox="0 0 35 81" version="1.1" xmlns="http://www.w3.org/2000/svg" xmlns:xlink="http://www.w3.org/1999/xlink">
    <g id="Page-1" stroke="none" stroke-width="1" fill="none" fill-rule="evenodd">
        <path d="M1.0215,80.013031 C0.4573,80.013031 0,79.555679 0,78.991684 L0,65.031822 C0,64.943672 0.0112,64.858124 0.0322,64.77652 C0.0112,64.694893 0,64.609337 0,64.521156 L0,1.02149439 C0,0.45735127 0.4573,0 1.0215,0 L14.9812,0 L33.7075,0 C34.2717,0 34.729,0.45735127 34.729,1.02149439 L34.729,14.9812021 C34.729,15.5453463 34.2717,16.0025444 33.7075,16.0025444 L16.0027,16.0025444 L16.0027,64.010483 L33.7075,64.010483 C34.2717,64.010483 34.729,64.467834 34.729,65.031822 L34.729,78.991684 C34.729,79.555679 34.2717,80.013031 33.7075,80.013031 L1.0215,80.013031 Z" id="Fill-101" fill="#243CFE"></path>
    </g>
</svg>