<svg xmlns="http://www.w3.org/2000/svg" xmlns:xlink="http://www.w3.org/1999/xlink" width="268" height="79.248" viewBox="0 0 268 79.248"><defs><linearGradient id="a" y1="0.5" x2="1" y2="0.5" gradientUnits="objectBoundingBox"><stop offset="0.204" stop-color="#2b39bb"/><stop offset="1" stop-color="#262262"/></linearGradient><linearGradient id="b" x1="0.369" y1="1.03" x2="0.636" y2="0.12" gradientUnits="objectBoundingBox"><stop offset="0" stop-color="#272dff"/><stop offset="1" stop-color="#03faf1"/></linearGradient></defs><g transform="translate(195.298)"><path d="M41,1.2l.008,0A1.617,1.617,0,0,1,42.559,0H10A10.007,10.007,0,0,0,4.748,1.494c-.142.086-.285.168-.424.261-.1.07-.206.148-.306.223-.213.156-.421.319-.623.493-.077.066-.15.134-.226.2-.1.094-.208.182-.309.281s-.2.22-.3.33c-.064.068-.127.135-.188.206-.189.218-.367.445-.533.677-.042.057-.093.11-.135.171l.007,0A9.744,9.744,0,0,0,2.86,16.757l26.676,26.62Z" transform="translate(0)" fill-rule="evenodd" fill="url(#a)"/><path d="M166.278,37.428,138.622.637l0,0a1.609,1.609,0,0,0-2.839.556l-.008,0L119.2,62.323l.012,0c-.024.087-.049.174-.066.264a7.047,7.047,0,0,0,4.217,7.952l0,0c.042.017.086.028.128.044.2.078.407.148.619.208l.169.044c.109.029.214.061.324.086s.208.031.312.05l.19.029c.2.027.4.045.6.054.083,0,.164.011.246.012.134,0,.267-.005.4-.012a7.209,7.209,0,0,0,3.72-1.172L164.181,47.51A7.287,7.287,0,0,0,166.278,37.428Z" transform="translate(-94.766 0)" fill-rule="evenodd" fill="url(#b)"/><path d="M133.372,1.2l.008,0A1.621,1.621,0,0,1,134.936,0h-1.889a3.4,3.4,0,0,0-1.939.474c-.509.3-.953,1.472-1.116,1.88,0,0-8.439,21.236-13.992,35.187l5.868,5.837Z" transform="translate(-92.377)" fill="#060e33" fill-rule="evenodd" opacity="0.2"/></g><path d="M176.238,28.584h-1.974l-.471,1.233h-.66l1.772-4.413h.709l1.773,4.413h-.666Zm-46.26,0H128l-.471,1.233h-.661l1.773-4.413h.709l1.772,4.413h-.666Zm-1.755-.566h1.533l-.772-1.98Zm12.349-.007H139.9v1.806h-.621V25.4h1.676a1.286,1.286,0,0,1,1.365,1.313,1.241,1.241,0,0,1-1.082,1.251l1.061,1.848h-.716Zm.277-.548a.761.761,0,1,0,0-1.513H139.9v1.513Zm4.213,2.352V25.4h2.707v.566h-2.091v1.356h1.9V27.9h-1.9v1.35h2.091v.568h-2.707Zm7.824-3.216a.9.9,0,0,0-.942-.753.786.786,0,0,0-.86.734.641.641,0,0,0,.573.64l.666.143a1.278,1.278,0,0,1,1.156,1.238,1.4,1.4,0,0,1-1.539,1.308,1.545,1.545,0,0,1-1.666-1.315l.591-.186a1.008,1.008,0,0,0,1.068.947c.616,0,.917-.318.917-.7,0-.317-.221-.59-.666-.684l-.635-.137a1.224,1.224,0,0,1-1.087-1.206,1.529,1.529,0,0,1,2.981-.218Zm3.329,3.216V25.4h2.706v.566H156.83v1.356h1.9V27.9h-1.9v1.35h2.091v.568h-2.706Zm8.559,0-2.407-3.6v3.6h-.616V25.4h.823l2.225,3.384V25.4h.616v4.41Zm5.263-3.844v3.844h-.615V25.971h-1.488V25.4h3.593v.566Zm4.445,2.047h1.533l-.773-1.98Zm-40.224-.007v1.806h-.615V25.4h1.621a1.305,1.305,0,1,1,0,2.606Zm.893-.548c.534,0,.862-.293.862-.748a.761.761,0,0,0-.862-.765h-.893v1.513Zm14.834-7.9a.888.888,0,0,0,.414-.091.822.822,0,0,0,.292-.256,1.129,1.129,0,0,0,.169-.393,2.386,2.386,0,0,0,0-1.005,1.122,1.122,0,0,0-.169-.393.822.822,0,0,0-.292-.256.993.993,0,0,0-.832,0,.831.831,0,0,0-.289.256,1.123,1.123,0,0,0-.17.393,2.386,2.386,0,0,0,0,1.005,1.129,1.129,0,0,0,.17.393.831.831,0,0,0,.289.256A.885.885,0,0,0,149.985,19.563Zm-1.936-1.243a2.686,2.686,0,0,1,.128-.844,1.891,1.891,0,0,1,.373-.664,1.7,1.7,0,0,1,.608-.435,2.244,2.244,0,0,1,1.656,0,1.7,1.7,0,0,1,.608.435,1.9,1.9,0,0,1,.373.664,2.848,2.848,0,0,1,0,1.688,1.9,1.9,0,0,1-.373.665,1.7,1.7,0,0,1-.608.435,2.244,2.244,0,0,1-1.656,0,1.7,1.7,0,0,1-.608-.435,1.889,1.889,0,0,1-.373-.665A2.68,2.68,0,0,1,148.048,18.32Zm-1.555,2.029V16.291H147.5v4.058Zm-4.355-4.058h1l1.633,2.346V16.291h.977v4.058h-1L143.115,18v2.346h-.977Zm-.745-.359h-.977l.417-.8h1.347Zm-1.007,4.417V16.291h1.006v4.058Zm-5.142-4.058h1.007l1.192,2.529,1.192-2.529h1.007v4.058h-.977V18.308l-.739,1.529h-.965l-.739-1.529v2.041h-.977Zm-2.455,3.272a.889.889,0,0,0,.414-.091.822.822,0,0,0,.292-.256,1.13,1.13,0,0,0,.17-.393,2.386,2.386,0,0,0,0-1.005,1.124,1.124,0,0,0-.17-.393.822.822,0,0,0-.292-.256.889.889,0,0,0-.414-.091.88.88,0,0,0-.417.091.822.822,0,0,0-.289.256,1.122,1.122,0,0,0-.17.393,2.385,2.385,0,0,0,0,1.005,1.128,1.128,0,0,0,.17.393.822.822,0,0,0,.289.256A.88.88,0,0,0,132.789,19.563Zm-1.936-1.243a2.682,2.682,0,0,1,.128-.844,1.9,1.9,0,0,1,.373-.664,1.7,1.7,0,0,1,.608-.435,2.244,2.244,0,0,1,1.656,0,1.712,1.712,0,0,1,.608.435,1.892,1.892,0,0,1,.373.664,2.849,2.849,0,0,1,0,1.688,1.89,1.89,0,0,1-.373.665,1.712,1.712,0,0,1-.608.435,2.244,2.244,0,0,1-1.656,0,1.7,1.7,0,0,1-.608-.435,1.9,1.9,0,0,1-.373-.665A2.676,2.676,0,0,1,130.852,18.32Zm-2.5,1.158a1.415,1.415,0,0,0,.438-.064.908.908,0,0,0,.346-.2.94.94,0,0,0,.229-.36,1.744,1.744,0,0,0,0-1.066.939.939,0,0,0-.229-.359.9.9,0,0,0-.346-.2,1.449,1.449,0,0,0-.438-.064h-.483v2.315Zm-1.484-3.187h1.537a2.3,2.3,0,0,1,.849.149,1.872,1.872,0,0,1,.647.418,1.8,1.8,0,0,1,.411.64,2.428,2.428,0,0,1,0,1.645,1.806,1.806,0,0,1-.411.64,1.863,1.863,0,0,1-.647.417,2.289,2.289,0,0,1-.849.15h-1.537ZM6.211,23.485a.238.238,0,0,1-.284-.2.228.228,0,0,1,.186-.272.234.234,0,0,1,.28.187A.245.245,0,0,1,6.211,23.485Zm4.826-1.015a.242.242,0,0,1-.284-.195A.23.23,0,0,1,10.939,22a.233.233,0,0,1,.28.188A.246.246,0,0,1,11.037,22.471Zm-4.247,2.09a.323.323,0,0,1-.459-.064.33.33,0,0,1,.05-.463.333.333,0,1,1,.409.526Zm3.944-3.119a.32.32,0,0,1-.457-.063.33.33,0,0,1,.05-.463.333.333,0,1,1,.407.526ZM8.086,25.314a.446.446,0,1,1-.837-.308.446.446,0,1,1,.837.308Zm1.793-4.82a.456.456,0,0,1-.576.268.45.45,0,1,1,.318-.841A.444.444,0,0,1,9.879,20.494Zm.8,2.812a.319.319,0,0,1,.4-.223.323.323,0,0,1,.233.395.332.332,0,0,1-.4.232A.328.328,0,0,1,10.68,23.306Zm-.66.913a.484.484,0,0,1,.686.007.485.485,0,0,1-.683.69A.5.5,0,0,1,10.02,24.219Zm-1.013.535a.509.509,0,1,1,.225.993.507.507,0,0,1-.6-.391A.512.512,0,0,1,9.007,24.754ZM5.823,22a.322.322,0,0,1,.395-.224A.327.327,0,1,1,5.823,22Zm.6-1.428a.482.482,0,0,1,.68,0,.484.484,0,1,1-.68,0Zm1.475-.83a.5.5,0,0,1,.6.38.506.506,0,0,1-.38.6.5.5,0,1,1-.215-.983Zm3.224,6.1a.358.358,0,0,1,.006-.5.345.345,0,0,1,.495.009.332.332,0,0,1,0,.487A.342.342,0,0,1,11.124,25.843ZM5.466,20.11a.365.365,0,0,1,0-.5.353.353,0,0,1,.5.5A.345.345,0,0,1,5.466,20.11Zm6.651,4.5a.35.35,0,0,1-.179-.463.336.336,0,0,1,.454-.19.358.358,0,0,1,.188.463A.353.353,0,0,1,12.118,24.61Zm.5-1.387a.442.442,0,0,1-.418-.436.427.427,0,0,1,.432-.415.426.426,0,0,1-.014.851Zm-.007-1.5a.545.545,0,1,1-.388-1.019.546.546,0,0,1,.388,1.019ZM4.7,21.5a.363.363,0,0,1-.184-.466.351.351,0,0,1,.461-.194.358.358,0,0,1-.277.66Zm-.235,1.585a.426.426,0,0,1-.417-.435.421.421,0,0,1,.433-.412.424.424,0,0,1-.016.848Zm.414,1.668a.545.545,0,0,1-.391-1.017.527.527,0,0,1,.7.3A.544.544,0,0,1,4.878,24.749Zm5.052,1.369a.371.371,0,0,1,.495.207.381.381,0,0,1-.2.505.386.386,0,0,1-.5-.216A.376.376,0,0,1,9.931,26.117Zm-1.4.2a.518.518,0,1,1-.514.514A.522.522,0,0,1,8.534,26.317Zm-1.317-.266a.6.6,0,0,1,.32.771.573.573,0,0,1-.752.317.591.591,0,0,1-.329-.759A.583.583,0,0,1,7.217,26.051Zm-1.156-.84a.649.649,0,1,1-.908-.006A.635.635,0,0,1,6.06,25.211Zm.815-6.583a.372.372,0,0,1,.495.207.389.389,0,0,1-.2.506.393.393,0,0,1-.5-.217A.383.383,0,0,1,6.876,18.628Zm1.69-.527a.517.517,0,0,1,.506.515.506.506,0,0,1-.507.513.514.514,0,1,1,0-1.029Zm1.754.213A.586.586,0,0,1,9.88,19.4a.6.6,0,0,1-.321-.768A.59.59,0,0,1,10.319,18.314Zm1.628,1.013a.648.648,0,1,1-.919,0A.644.644,0,0,1,11.947,19.327Zm.068,7.967a.308.308,0,0,1,.47-.4.308.308,0,1,1-.47.4Zm.936-.848a.362.362,0,0,1-.073-.5.353.353,0,0,1,.5-.074.359.359,0,0,1,.071.5A.352.352,0,0,1,12.952,26.447Zm.814-1.159a.429.429,0,0,1-.233-.55.417.417,0,0,1,.546-.236.421.421,0,0,1,.233.551A.413.413,0,0,1,13.766,25.289Zm.552-1.508a.447.447,0,1,1,.489-.395A.446.446,0,0,1,14.318,23.78Zm.111-1.566a.543.543,0,0,1-.634-.44.549.549,0,0,1,.438-.638.548.548,0,0,1,.2,1.078Zm-9.8-3.666a.309.309,0,1,1,.434.037A.313.313,0,0,1,4.625,18.548Zm-.886,1.027a.361.361,0,0,1-.071-.5.354.354,0,1,1,.071.5Zm-.706,1.368a.43.43,0,0,1-.235-.551.422.422,0,1,1,.235.551ZM2.7,22.553a.447.447,0,0,1,.09-.889.447.447,0,1,1-.09.889Zm.176,1.757a.547.547,0,1,1,.44-.634A.543.543,0,0,1,2.878,24.309Zm8.284,3.232a.265.265,0,1,1-.1.36A.268.268,0,0,1,11.162,27.541Zm-1.05.387a.309.309,0,0,1,.382.2.307.307,0,1,1-.382-.2Zm-1.213.2a.357.357,0,0,1,.047.712.357.357,0,0,1-.047-.712Zm-1.353-.139a.464.464,0,1,1-.541.364A.463.463,0,0,1,7.547,27.988Zm-1.384-.509a.55.55,0,0,1-.493.984.56.56,0,0,1-.238-.737A.548.548,0,0,1,6.163,27.479Zm-1.171-.913a.648.648,0,0,1,.03.913.637.637,0,0,1-.9.027.647.647,0,0,1-.029-.91A.638.638,0,0,1,4.992,26.566ZM4.031,25.2a.706.706,0,0,1-.276.95.691.691,0,0,1-.936-.283A.692.692,0,1,1,4.031,25.2ZM5.7,17.437a.264.264,0,0,1,.359.1.272.272,0,0,1-.107.361.262.262,0,0,1-.358-.106A.265.265,0,0,1,5.7,17.437Zm1.127-.51a.3.3,0,0,1,.38.2.3.3,0,1,1-.38-.2Zm1.34-.322a.358.358,0,0,1,.049.714.358.358,0,0,1-.049-.714Zm1.581-.056a.463.463,0,1,1-.542.366A.458.458,0,0,1,9.746,16.55Zm1.646.4a.55.55,0,0,1,.249.734.54.54,0,0,1-.73.251.55.55,0,0,1-.247-.731A.539.539,0,0,1,11.391,16.952ZM13,17.935a.647.647,0,0,1,.032.911.64.64,0,0,1-.9.031.653.653,0,0,1-.032-.914A.635.635,0,0,1,13,17.935Zm1.3,1.641a.7.7,0,0,1-.277.949.7.7,0,1,1,.277-.949Zm-4.6,10.591a.4.4,0,1,1,.475.314A.4.4,0,0,1,9.695,30.167Zm1.6-.389a.474.474,0,0,1,.226-.622.462.462,0,0,1,.619.227.474.474,0,0,1-.226.626A.466.466,0,0,1,11.3,29.777Zm1.639-.8a.58.58,0,0,1,.079-.811.564.564,0,0,1,.8.074.578.578,0,0,1-.075.814A.565.565,0,0,1,12.935,28.976Zm1.544-1.332a.674.674,0,0,1-.171-.93.661.661,0,0,1,.928-.17.674.674,0,0,1,.168.932A.663.663,0,0,1,14.479,27.644Zm1.128-1.732a.79.79,0,0,1-.5-1,.782.782,0,0,1,.987-.5.793.793,0,0,1,.5,1A.784.784,0,0,1,15.606,25.912ZM6.634,15.439a.4.4,0,1,1,.476.315A.4.4,0,0,1,6.634,15.439Zm-1.661.625a.476.476,0,0,1,.228-.625.471.471,0,0,1,.618.23.467.467,0,0,1-.846.395ZM3.294,17.2a.578.578,0,0,1,.078-.812.567.567,0,0,1,.809.077.577.577,0,0,1-.077.81A.567.567,0,0,1,3.294,17.2ZM1.88,18.9a.675.675,0,0,1-.169-.934.662.662,0,0,1,.924-.17.679.679,0,0,1,.174.933A.666.666,0,0,1,1.88,18.9Zm-.861,2.131a.793.793,0,0,1-.5-1,.781.781,0,0,1,.989-.5.79.79,0,0,1,.5,1A.782.782,0,0,1,1.019,21.034Zm7.541,8.875a.348.348,0,1,1-.345.348A.348.348,0,0,1,8.559,29.909ZM7.111,29.69a.406.406,0,0,1,.309.478.4.4,0,0,1-.474.313.4.4,0,0,1,.165-.791ZM5.59,29.155a.469.469,0,0,1,.229.618A.463.463,0,0,1,5.2,30a.473.473,0,0,1-.227-.623A.458.458,0,0,1,5.59,29.155ZM4.1,28.165a.58.58,0,0,1,.077.811.566.566,0,0,1-.81.076.576.576,0,1,1,.733-.888Zm-1.3-1.452a.669.669,0,1,1-.925-.168A.663.663,0,0,1,2.807,26.713Zm-.8-1.8a.793.793,0,0,1-.5,1,.782.782,0,0,1-.99-.5.792.792,0,0,1,.5-1A.784.784,0,0,1,2.008,24.912Zm-.2-2.191a.909.909,0,0,1-.9.915.913.913,0,0,1,0-1.826A.908.908,0,0,1,1.808,22.721Zm6.747-7.882a.347.347,0,1,1-.343.346A.344.344,0,0,1,8.555,14.839Zm1.615.127a.4.4,0,1,1-.474.312A.4.4,0,0,1,10.17,14.966Zm1.743.473a.47.47,0,0,1,.228.623.46.46,0,0,1-.619.226.467.467,0,0,1,.391-.849Zm1.828.953a.576.576,0,0,1,.076.813.567.567,0,0,1-.806.077.578.578,0,0,1-.077-.812A.567.567,0,0,1,13.742,16.392Zm1.66,1.577a.675.675,0,0,1-.168.934.659.659,0,0,1-.928-.172.675.675,0,0,1,.17-.93A.662.662,0,0,1,15.4,17.969ZM16.6,20.037a.784.784,0,1,1-.989-.5A.783.783,0,0,1,16.6,20.037Zm.52,2.684a.906.906,0,1,1-.906-.911A.911.911,0,0,1,17.115,22.721ZM78.494,14.4l.933-2.828h.4l-1.575,4.462h-.368l.415-1.215-1.159-3.247h.4Zm-1.81.412H76.3V12.656c0-.529-.239-.823-.756-.823A1.123,1.123,0,0,0,74.511,13.1v1.716h-.382v-3.24H74.5v.742a1.187,1.187,0,0,1,1.145-.81.956.956,0,0,1,1.042,1.1Zm-3.9-1.62c0-.714-.347-1.38-1.063-1.38s-.982.59-.982,1.38.279,1.373.982,1.373S72.789,13.9,72.789,13.192Zm.381-1.621v3.24h-.381v-.7a1.2,1.2,0,0,1-1.131.769c-.906,0-1.288-.755-1.288-1.688s.382-1.689,1.288-1.689a1.208,1.208,0,0,1,1.146.769v-.7ZM35.832,13.192c0-.714-.347-1.38-1.063-1.38s-.982.59-.982,1.38.279,1.373.982,1.373S35.832,13.9,35.832,13.192Zm.382-1.621v3.24h-.382v-.7a1.2,1.2,0,0,1-1.131.769c-.906,0-1.288-.755-1.288-1.688S33.795,11.5,34.7,11.5a1.208,1.208,0,0,1,1.146.769v-.7Zm33.174,1.621c0-.79-.279-1.38-.981-1.38s-1.063.666-1.063,1.38.348,1.373,1.063,1.373S69.388,13.975,69.388,13.192Zm.375,0c0,.933-.382,1.688-1.288,1.688a1.2,1.2,0,0,1-1.131-.769v1.922h-.381V11.572h.368v.7a1.207,1.207,0,0,1,1.145-.769C69.381,11.5,69.763,12.251,69.763,13.192Zm-5.832,1.62h-.382V12.656c0-.535-.252-.823-.75-.823-.532,0-.941.48-.941,1.263v1.716h-.381v-3.24h.368v.742A1.092,1.092,0,0,1,62.9,11.5a.893.893,0,0,1,.989.8,1.107,1.107,0,0,1,1.083-.8.961.961,0,0,1,1.037,1.1v2.21h-.381V12.656c0-.535-.253-.823-.757-.823s-.94.453-.94,1.2Zm-3.612-1.62c0-.831-.334-1.38-1.029-1.38s-1.029.549-1.029,1.38.334,1.373,1.029,1.373S60.319,14.022,60.319,13.192Zm.381,0c0,.954-.47,1.688-1.411,1.688s-1.411-.734-1.411-1.688S58.342,11.5,59.29,11.5,60.7,12.231,60.7,13.192Zm-3.269-1.5-.068.3a1.889,1.889,0,0,0-.784-.165c-.831,0-1.152.563-1.152,1.373s.321,1.366,1.152,1.366a2.011,2.011,0,0,0,.784-.158l.068.3a2.105,2.105,0,0,1-.893.185c-.962,0-1.493-.618-1.493-1.688s.531-1.689,1.493-1.689A2,2,0,0,1,57.432,11.688Zm-4.258.213a1.844,1.844,0,0,0-.272-.021c-.668,0-1,.59-1,1.222v1.709h-.388v-3.24h.381v.776a1,1,0,0,1,.988-.817,1.187,1.187,0,0,1,.293.034Zm-2.82,1.03c0-.645-.218-1.153-.872-1.153s-1,.419-1.043,1.243h1.915Zm.361.377H48.431c.027.776.334,1.277,1.186,1.277a2.6,2.6,0,0,0,.995-.206l.062.268a2.582,2.582,0,0,1-1.1.233c-1.091,0-1.52-.707-1.52-1.688,0-1.03.476-1.689,1.431-1.689.907,0,1.227.666,1.227,1.5ZM45.68,11.571l.852,2.76.777-2.76h.374l-.961,3.24h-.368l-.872-2.89-.886,2.89h-.368l-.961-3.24h.375l.777,2.76.852-2.76Zm-2.855,2.376c0,.59-.416.933-1.145.933a3.023,3.023,0,0,1-1.145-.247l.1-.289a2.623,2.623,0,0,0,1.049.24c.5,0,.77-.219.77-.6,0-.357-.246-.5-.812-.652-.763-.213-1.11-.426-1.11-.947,0-.6.422-.886,1.152-.886a2.492,2.492,0,0,1,1.015.2l-.075.3a2.392,2.392,0,0,0-.94-.2c-.484,0-.777.151-.777.549s.273.473.839.645C42.4,13.192,42.825,13.377,42.825,13.947Zm-3.041.864H39.4V12.656c0-.529-.239-.823-.757-.823A1.124,1.124,0,0,0,37.61,13.1v1.716h-.381v-3.24H37.6v.742a1.187,1.187,0,0,1,1.146-.81.956.956,0,0,1,1.042,1.1Zm-8.853-1.881c0-.645-.218-1.153-.873-1.153s-1,.419-1.043,1.243h1.915Zm.361.377H29.009c.027.776.334,1.277,1.186,1.277a2.6,2.6,0,0,0,.995-.206l.061.268a2.581,2.581,0,0,1-1.1.233c-1.091,0-1.52-.707-1.52-1.688,0-1.03.477-1.689,1.431-1.689.906,0,1.226.666,1.226,1.5Zm-3.44,1.5H27.47V12.656c0-.529-.239-.823-.757-.823A1.123,1.123,0,0,0,25.677,13.1v1.716H25.3V10.24h.381v2.066a1.175,1.175,0,0,1,1.131-.8.956.956,0,0,1,1.042,1.1Zm-3.9.055a.654.654,0,0,1-.743-.748V11.894h-.463v-.323H23.2v-.864h.389v.864h.825v.323h-.825v2.2c0,.3.1.453.443.453a1.046,1.046,0,0,0,.375-.061l.021.3A1.464,1.464,0,0,1,23.947,14.867Zm65.179,8.354v.885c0,.658.024.675.622.675h1.994a.158.158,0,0,1,.156.157v.5c0,.111-.04.15-.156.165a10.6,10.6,0,0,1-1.7.109c-1.309,0-2,.009-2-1.608V21.623c0-1.617.692-1.608,2-1.608a10.735,10.735,0,0,1,1.7.109c.117.015.156.055.156.165v.5a.159.159,0,0,1-.156.158H89.748c-.6,0-.622.018-.622.674v.719h2.52a.156.156,0,0,1,.156.156v.567a.155.155,0,0,1-.156.156Zm13.715.857c0,.791-.5,1.639-2.072,1.639a8.622,8.622,0,0,1-1.779-.205.168.168,0,0,1-.15-.156V24.79a.15.15,0,0,1,.15-.15h.015a14.275,14.275,0,0,0,1.781.142c.7,0,.914-.251.914-.7,0-.589-1.41-.914-2.1-1.2a1.4,1.4,0,0,1-.927-1.372c0-.864.7-1.491,2.161-1.491a7.749,7.749,0,0,1,1.706.207.158.158,0,0,1,.141.148v.581a.134.134,0,0,1-.134.142h-.016a16.794,16.794,0,0,0-1.744-.143c-.584,0-1.02.2-1.02.557,0,.258.3.5.645.634s.808.315,1.332.525A1.446,1.446,0,0,1,102.842,24.078Zm-6.258-2.29c0-.589-.458-.84-1.247-.84-.164,0-.881.016-1.022.032v1.7c.127.008.891.024,1.022.024.813,0,1.247-.156,1.247-.845Zm1.276,3.77a.087.087,0,0,1-.094.093H96.8c-.087,0-.118-.079-.157-.157l-1.135-1.9h-.176c-.2,0-.84-.023-1.022-.032v1.935a.151.151,0,0,1-.149.157h-.786a.158.158,0,0,1-.157-.157V20.352c0-.157.093-.212.251-.235a16.291,16.291,0,0,1,1.864-.1c1.214,0,2.333.432,2.333,1.773v.071a1.509,1.509,0,0,1-1.063,1.535l1.238,2.1A.1.1,0,0,1,97.86,25.558ZM87.229,20.847a.144.144,0,0,1-.156.14H85.5v4.508a.159.159,0,0,1-.159.157h-.779a.158.158,0,0,1-.158-.157V20.987H82.834a.144.144,0,0,1-.156-.14v-.62a.151.151,0,0,1,.156-.149h4.239a.15.15,0,0,1,.156.149ZM81.9,23.493a2.363,2.363,0,0,1-4.718,0V20.227a.152.152,0,0,1,.158-.149h.778a.15.15,0,0,1,.157.149v3.266c0,.895.416,1.319,1.264,1.319s1.265-.424,1.265-1.319V20.227a.15.15,0,0,1,.157-.149h.78a.151.151,0,0,1,.158.149Zm-8.667-.271v.885c0,.658.025.675.621.675h1.994a.158.158,0,0,1,.158.157v.5c0,.111-.04.15-.158.165a10.577,10.577,0,0,1-1.7.109c-1.307,0-2,.009-2-1.608V21.623c0-1.617.693-1.608,2-1.608a10.713,10.713,0,0,1,1.7.109c.118.015.158.055.158.165v.5a.159.159,0,0,1-.158.158H73.849c-.6,0-.621.018-.621.674v.719h2.52a.158.158,0,0,1,.157.156v.567a.157.157,0,0,1-.157.156Zm-3.375-1.433c0-.589-.458-.84-1.245-.84-.166,0-.883.016-1.023.032v1.7c.125.008.888.024,1.023.024.81,0,1.245-.156,1.245-.845Zm1.276,3.77a.087.087,0,0,1-.094.093h-.961c-.086,0-.118-.079-.157-.157l-1.134-1.9h-.174c-.206,0-.842-.023-1.023-.032v1.935a.152.152,0,0,1-.15.157h-.788a.158.158,0,0,1-.157-.157V20.352c0-.157.093-.212.252-.235a16.312,16.312,0,0,1,1.866-.1c1.212,0,2.332.432,2.332,1.773v.071a1.509,1.509,0,0,1-1.062,1.535l1.236,2.1A.1.1,0,0,1,71.129,25.558ZM55.737,22.463a1.4,1.4,0,1,0-2.8,0v.8a1.4,1.4,0,1,0,2.8,0Zm1.1,0v.8a2.5,2.5,0,0,1-5,0v-.8a2.5,2.5,0,0,1,5,0Zm-6,1.615c0,.791-.5,1.639-2.072,1.639a8.641,8.641,0,0,1-1.779-.205.167.167,0,0,1-.149-.156V24.79a.15.15,0,0,1,.149-.15h.016a14.256,14.256,0,0,0,1.78.142c.7,0,.914-.251.914-.7,0-.589-1.408-.914-2.095-1.2a1.4,1.4,0,0,1-.929-1.372c0-.864.7-1.491,2.162-1.491a7.737,7.737,0,0,1,1.705.207.157.157,0,0,1,.141.148v.581a.135.135,0,0,1-.133.142h-.015a16.829,16.829,0,0,0-1.745-.143c-.581,0-1.019.2-1.019.557,0,.258.3.5.645.634s.809.315,1.332.525A1.444,1.444,0,0,1,50.842,24.078Zm12.027,1.26a.314.314,0,0,1-.314.314h-.8a.42.42,0,0,1-.478-.282L59.143,21.8c-.022-.047-.047-.063-.07-.063s-.04.017-.04.063v3.691a.151.151,0,0,1-.15.157h-.668a.156.156,0,0,1-.157-.157v-5.1a.314.314,0,0,1,.314-.313h.851c.165,0,.251.047.347.252l2.221,3.776c.015.039.038.063.063.063s.038-.025.038-.071V20.227a.144.144,0,0,1,.15-.149h.678a.144.144,0,0,1,.15.149Zm-17.476.2a.12.12,0,0,1-.135.117h-.8c-.069,0-.125-.079-.125-.157V22.1c0-.055-.008-.078-.025-.078s-.022.023-.039.046L43,24.876a.282.282,0,0,1-.25.134h-.41a.283.283,0,0,1-.251-.134l-1.28-2.806c-.017-.023-.033-.046-.04-.046s-.024.023-.024.078v3.393a.149.149,0,0,1-.126.157h-.795a.121.121,0,0,1-.135-.117V20.391a.315.315,0,0,1,.315-.313h.646a.331.331,0,0,1,.291.188l1.511,3.065c.039.071.055.109.088.109s.046-.039.087-.109l1.51-3.065a.33.33,0,0,1,.291-.188h.646a.315.315,0,0,1,.315.313Zm-8.022-3.071a1.4,1.4,0,1,0-2.8,0v.8a1.4,1.4,0,1,0,2.8,0Zm1.1,0v.8a2.3,2.3,0,0,1-2.5,2.448,2.3,2.3,0,0,1-2.5-2.448v-.8a2.3,2.3,0,0,1,2.5-2.448A2.3,2.3,0,0,1,38.475,22.463Zm-6.247,3.032a.158.158,0,0,1-.157.157h-.778a.158.158,0,0,1-.16-.157V23.221H28.638v2.274a.158.158,0,0,1-.156.157H27.7a.158.158,0,0,1-.158-.157V20.227a.151.151,0,0,1,.158-.149h.78a.151.151,0,0,1,.156.149v2.038h2.494V20.227a.152.152,0,0,1,.16-.149h.778a.151.151,0,0,1,.157.149Zm-5.839-4.508h-1.57v4.508a.158.158,0,0,1-.158.157h-.779a.157.157,0,0,1-.156-.157V20.987H22.152a.145.145,0,0,1-.158-.14v-.62a.151.151,0,0,1,.158-.149h4.237a.152.152,0,0,1,.158.149v.62A.145.145,0,0,1,26.389,20.987Zm110.987,47.5a3.764,3.764,0,0,1-2.755-.873,3.9,3.9,0,0,1-.871-2.83V47.622q0-3.808,3.695-3.808H140.9a24.66,24.66,0,0,1,6.589.663q6.137,1.783,6.137,11.392a17.7,17.7,0,0,1-1.377,7.652,8.31,8.31,0,0,1-4.865,4.123,21,21,0,0,1-6.9.838Zm2.477-4.193h2.057a8,8,0,0,0,3.557-.663,4.622,4.622,0,0,0,2.492-2.656,14.946,14.946,0,0,0,.681-5.066,13.854,13.854,0,0,0-.663-4.839,4.37,4.37,0,0,0-2.371-2.465,9.722,9.722,0,0,0-3.94-.628h-1.988q-1.116,0-1.116,1.293V62.927Q138.562,64.289,139.853,64.289Zm19.681,4.193a4.007,4.007,0,0,1-2.806-.856,3.789,3.789,0,0,1-.925-2.882V47.657q0-3.843,3.731-3.843H170a.849.849,0,0,1,.976.944V47.2q0,.8-.976.8H161.73q-1.114,0-1.114,1.292v4.3h8.508a.848.848,0,0,1,.976.943v2.447q0,.839-.976.838h-8.508v5.1a1.5,1.5,0,0,0,.3,1.049,1.377,1.377,0,0,0,1.029.314h8.646a.849.849,0,0,1,.977.943v2.41q0,.839-.977.839H159.534Zm30.8-23.621q.348-1.153,1.256-1.153a16.671,16.671,0,0,1,3.279.21.652.652,0,0,1,.523.7,3.791,3.791,0,0,1-.28,1.118l-7.043,20.511a4.084,4.084,0,0,1-1.028,1.747,3.192,3.192,0,0,1-2.18.594h-1.324a3.069,3.069,0,0,1-2.18-.628,4.962,4.962,0,0,1-1.1-1.887l-6.869-20.266a3.439,3.439,0,0,1-.244-1.153.743.743,0,0,1,.453-.734,15.089,15.089,0,0,1,3.521-.21,1.053,1.053,0,0,1,.768.245,2.329,2.329,0,0,1,.453.908q5.195,16.039,5.893,18.624Q184.756,61.738,190.334,44.861ZM2.092,83.827a1.714,1.714,0,0,0,1.607.718,6.452,6.452,0,0,0,1.562-.2,1.42,1.42,0,0,1,.363-.066.2.2,0,0,1,.2.155,1.787,1.787,0,0,1,.121.58q0,.185-.253.273a7,7,0,0,1-2.277.328,2.871,2.871,0,0,1-2.288-.871,4.617,4.617,0,0,1-.76-3.014,5.284,5.284,0,0,1,.737-3.17,3.078,3.078,0,0,1,2.586-.957,8,8,0,0,1,1.826.163c.184.044.275.136.275.274a1.935,1.935,0,0,1-.132.668.2.2,0,0,1-.209.131,1.874,1.874,0,0,1-.363-.055,6.538,6.538,0,0,0-1.309-.11,1.841,1.841,0,0,0-1.679.684,4.266,4.266,0,0,0-.434,2.206A4.549,4.549,0,0,0,2.092,83.827Zm17.288-.283a2.708,2.708,0,0,1-.621,1.248,2.366,2.366,0,0,1-1.024.64,5.01,5.01,0,0,1-1.474.186,4.822,4.822,0,0,1-1.43-.181,2.241,2.241,0,0,1-.99-.635,2.771,2.771,0,0,1-.611-1.248,8.6,8.6,0,0,1-.192-1.986,7.021,7.021,0,0,1,.242-2,2.566,2.566,0,0,1,.715-1.221,2.72,2.72,0,0,1,1.029-.58,4.735,4.735,0,0,1,1.326-.163,6.73,6.73,0,0,1,1.172.087,2.68,2.68,0,0,1,.891.333,1.791,1.791,0,0,1,.655.685,3.829,3.829,0,0,1,.374,1.138,9.4,9.4,0,0,1,.132,1.708A8.571,8.571,0,0,1,19.38,83.544Zm-1.32-3.821a1.357,1.357,0,0,0-.6-.837,2.547,2.547,0,0,0-1.155-.208,2.583,2.583,0,0,0-.848.121,1.437,1.437,0,0,0-.606.427,2.01,2.01,0,0,0-.39.887,7.028,7.028,0,0,0-.127,1.456,8.375,8.375,0,0,0,.115,1.538,1.954,1.954,0,0,0,.385.908,1.364,1.364,0,0,0,.6.422,2.757,2.757,0,0,0,.846.11,2.84,2.84,0,0,0,.842-.105,1.417,1.417,0,0,0,.6-.41,1.909,1.909,0,0,0,.407-.908,7.723,7.723,0,0,0,.127-1.544A6.389,6.389,0,0,0,18.06,79.723ZM28.592,85.5H27.91c-.177,0-.264-.1-.264-.3V78.591a.965.965,0,0,1,.2-.673.853.853,0,0,1,.65-.214h.341a.866.866,0,0,1,.413.087.671.671,0,0,1,.231.191,3.794,3.794,0,0,1,.2.356q2.158,4.095,2.817,5.582-.022-.941-.022-5.844c0-.233.1-.351.3-.351h.649c.176,0,.264.11.264.329v6.775a.7.7,0,0,1-.192.57.82.82,0,0,1-.523.153h-.287a.87.87,0,0,1-.561-.148,1.961,1.961,0,0,1-.4-.575q-2.278-4.356-2.872-5.637.021,1.686.022,6.01A.259.259,0,0,1,28.592,85.5Zm14.466,0h-.726c-.176,0-.264-.1-.264-.3V78.9a1.217,1.217,0,0,1,.27-.87,1.125,1.125,0,0,1,.841-.279h3.213c.183,0,.276.089.276.264v.623c0,.153-.093.23-.276.23H43.7q-.364,0-.363.427v1.882h2.6c.19,0,.286.092.286.275v.613c0,.16-.1.24-.286.24h-2.6V85.19C43.333,85.4,43.241,85.5,43.058,85.5Zm12.386-.022a1.242,1.242,0,0,1-.858-.252,1.133,1.133,0,0,1-.275-.863V78.9a1.236,1.236,0,0,1,.264-.87,1.14,1.14,0,0,1,.859-.279H58.69c.183,0,.276.089.276.264v.623c0,.153-.093.23-.276.23H55.929c-.234,0-.352.134-.352.4v1.641h2.817c.191,0,.287.089.287.263v.614q0,.239-.287.24H55.576v1.906a.472.472,0,0,0,.094.328.432.432,0,0,0,.324.1h2.871c.19,0,.286.09.286.274v.6c0,.161-.1.24-.286.24H55.444Zm12.585.022h-.715c-.176,0-.264-.1-.264-.3V78.919a1.286,1.286,0,0,1,.258-.886,1.137,1.137,0,0,1,.875-.286h.848A6.455,6.455,0,0,1,71.176,78a1.918,1.918,0,0,1,1.111,2,2.009,2.009,0,0,1-1.342,2.1L72.54,84.93a1.2,1.2,0,0,1,.144.361.157.157,0,0,1-.144.176,5.475,5.475,0,0,1-.891.043.4.4,0,0,1-.352-.24l-1.551-2.934c-.133.008-.349.012-.65.012h-.781V85.2A.257.257,0,0,1,68.029,85.5Zm1.111-4.182a3.782,3.782,0,0,0,1.221-.153,1.049,1.049,0,0,0,.627-1.095q0-.908-.605-1.127a3.772,3.772,0,0,0-1.155-.12H68.7a.338.338,0,0,0-.384.381v2.113h.825Zm12.4,4.16a1.244,1.244,0,0,1-.859-.252,1.133,1.133,0,0,1-.275-.863V78.9a1.231,1.231,0,0,1,.265-.87,1.138,1.138,0,0,1,.858-.279h3.258c.183,0,.275.089.275.264v.623c0,.153-.092.23-.275.23H82.021c-.235,0-.352.134-.352.4v1.641h2.816c.191,0,.287.089.287.263v.614q0,.239-.287.24H81.669v1.906a.473.473,0,0,0,.094.328.434.434,0,0,0,.325.1h2.872c.191,0,.286.09.286.274v.6c0,.161-.1.24-.286.24H81.537Zm12.551.022h-.682c-.175,0-.264-.1-.264-.3V78.591a.964.964,0,0,1,.2-.673.852.852,0,0,1,.649-.214h.341a.859.859,0,0,1,.412.087.673.673,0,0,1,.232.191,3.8,3.8,0,0,1,.2.356q2.156,4.095,2.816,5.582-.021-.941-.022-5.844c0-.233.1-.351.3-.351h.649c.176,0,.264.11.264.329v6.775a.7.7,0,0,1-.193.57.816.816,0,0,1-.522.153h-.286a.871.871,0,0,1-.561-.148,1.957,1.957,0,0,1-.4-.575q-2.277-4.356-2.872-5.637.022,1.686.022,6.01A.256.256,0,0,1,94.088,85.5Zm14.784-1.67a1.715,1.715,0,0,0,1.607.718,6.455,6.455,0,0,0,1.562-.2,1.42,1.42,0,0,1,.363-.066.2.2,0,0,1,.2.155,1.785,1.785,0,0,1,.121.58c0,.124-.085.215-.253.273a7,7,0,0,1-2.278.328,2.874,2.874,0,0,1-2.288-.871,4.617,4.617,0,0,1-.759-3.014,5.284,5.284,0,0,1,.737-3.17,3.079,3.079,0,0,1,2.586-.957,8.016,8.016,0,0,1,1.826.163q.275.067.275.274a1.973,1.973,0,0,1-.131.668.2.2,0,0,1-.209.131,1.886,1.886,0,0,1-.363-.055,6.539,6.539,0,0,0-1.309-.11,1.839,1.839,0,0,0-1.678.684,4.26,4.26,0,0,0-.435,2.206A4.55,4.55,0,0,0,108.873,83.827Zm12.507,1.648a1.242,1.242,0,0,1-.858-.252,1.131,1.131,0,0,1-.276-.863V78.9a1.234,1.234,0,0,1,.265-.87,1.136,1.136,0,0,1,.858-.279h3.257c.183,0,.275.089.275.264v.623c0,.153-.091.23-.275.23h-2.761c-.234,0-.352.134-.352.4v1.641h2.817c.19,0,.286.089.286.263v.614c0,.16-.1.24-.286.24h-2.817v1.906a.47.47,0,0,0,.094.328.432.432,0,0,0,.324.1H124.8c.191,0,.287.09.287.274v.6c0,.161-.1.24-.287.24H121.38ZM6.643,62.713q1.326,2.049,4.709,2.05a20.155,20.155,0,0,0,4.6-.556A4.49,4.49,0,0,1,17.107,64a.656.656,0,0,1,.663.486,7.064,7.064,0,0,1,.523,2.292q0,.624-.837.937A22.447,22.447,0,0,1,10.1,68.756q-4.849,0-7.29-2.761T.365,56.427q0-7.015,2.39-10.054t8.284-3.039a24.462,24.462,0,0,1,5.861.521q.871.207.872.9a6.765,6.765,0,0,1-.523,2.569.643.643,0,0,1-.7.452,6.208,6.208,0,0,1-1.186-.175,21.486,21.486,0,0,0-3.8-.278q-3.593,0-4.918,1.928T5.318,55.906Q5.317,60.664,6.643,62.713ZM24.676,68.34h-2.9q-.872,0-.871-.972V54.239a3.147,3.147,0,0,1,.226-1.337,2.415,2.415,0,0,1,.82-.886,10.189,10.189,0,0,1,2.983-1.1,16.7,16.7,0,0,1,3.924-.5,8.652,8.652,0,0,1,2.337.208.9.9,0,0,1,.628.9,10.23,10.23,0,0,1-.209,2.361.775.775,0,0,1-.872.591c-.162,0-.5-.011-1.012-.035s-.86-.035-1.046-.035a5.625,5.625,0,0,0-2.477.452,1.038,1.038,0,0,0-.488.451,2,2,0,0,0-.139.9V67.367Q25.583,68.339,24.676,68.34Zm13.083,0H34.864q-.872,0-.872-.972V51.843c0-.671.3-1.009.907-1.009h2.9c.581,0,.872.326.872.973v15.56Q38.665,68.339,37.759,68.34ZM46.4,63.7a3.359,3.359,0,0,0,2.982,1.2,16.038,16.038,0,0,0,2.9-.244,4.831,4.831,0,0,1,1.082-.173.71.71,0,0,1,.732.556,7.094,7.094,0,0,1,.384,2.084.859.859,0,0,1-.593.9,14.694,14.694,0,0,1-5.057.729q-4.046,0-6.017-2t-1.971-6.895q0-4.966,1.971-7.223t6.645-2.257a15.621,15.621,0,0,1,4.151.486.8.8,0,0,1,.628.8,9.237,9.237,0,0,1-.383,2.4.7.7,0,0,1-.7.591,4.726,4.726,0,0,1-.61-.069c-.291-.047-.46-.069-.506-.069a12.957,12.957,0,0,0-2.442-.209q-2.371,0-3.192,1.233a7.563,7.563,0,0,0-.819,4.046A7.619,7.619,0,0,0,46.4,63.7ZM60.921,47.711a2.481,2.481,0,0,1-1.785.566q-2.3,0-2.3-2.392,0-2.425,2.3-2.424a2.592,2.592,0,0,1,1.769.533,2.4,2.4,0,0,1,.6,1.859A2.512,2.512,0,0,1,60.921,47.711Zm-22.84,0a2.479,2.479,0,0,1-1.785.566q-2.3,0-2.3-2.392,0-2.425,2.3-2.424a2.59,2.59,0,0,1,1.768.533,2.4,2.4,0,0,1,.6,1.859A2.507,2.507,0,0,1,38.081,47.711ZM60.6,68.34H57.7q-.872,0-.872-.972V51.843c0-.671.3-1.009.907-1.009h2.9c.581,0,.872.326.872.973v15.56Q61.505,68.339,60.6,68.34Zm24.778,0H82.482q-.872,0-.872-.972V53.926A1.986,1.986,0,0,1,82.8,51.913a22.513,22.513,0,0,1,8.546-1.494q3.35,0,4.325,1.563,1.989-1.563,6.732-1.563a8.142,8.142,0,0,1,3.383.538,2.934,2.934,0,0,1,1.535,1.65,12.131,12.131,0,0,1,.314,3.4V67.368q0,.971-.837.972h-2.93q-.872,0-.872-.972V57.052a5.907,5.907,0,0,0-.174-1.7q-.314-1.008-2.2-1.007a8.5,8.5,0,0,0-2.686.451,1.957,1.957,0,0,0-.767.486.9.9,0,0,0-.209.66q0,.1.018.538t.018.539v10.35c0,.647-.291.972-.872.972H93.19c-.581,0-.872-.325-.872-.972V56.982a5.572,5.572,0,0,0-.175-1.633,1.345,1.345,0,0,0-.68-.781,3.626,3.626,0,0,0-1.482-.226,8.6,8.6,0,0,0-2.722.416,1.727,1.727,0,0,0-.8.522,2.212,2.212,0,0,0-.175,1.146V67.367Q86.284,68.339,85.377,68.34Zm39.294-1.354a2.745,2.745,0,0,1-1.221.8,17.407,17.407,0,0,1-3.157.677,27.449,27.449,0,0,1-3.854.3q-3.8,0-5.215-1.51a5.838,5.838,0,0,1-1.413-4.15,4.727,4.727,0,0,1,1.954-4.272q1.639-1.112,5.581-1.111a28.305,28.305,0,0,1,3.1.139v-.868a5.18,5.18,0,0,0-.174-1.6q-.418-1.007-2.965-1.007a20.912,20.912,0,0,0-3.488.313q-1.359.207-1.5.208a.758.758,0,0,1-.767-.66,9.421,9.421,0,0,1-.349-2.015,1,1,0,0,1,.768-1.041,20.114,20.114,0,0,1,6-.8q4.4,0,5.861,1.424,1.255,1.217,1.255,4.62v8.891A2.667,2.667,0,0,1,124.67,66.986Zm-6.733-6.113a5.63,5.63,0,0,0-3,.521,1.741,1.741,0,0,0-.663,1.6,2.239,2.239,0,0,0,.593,1.685,3.061,3.061,0,0,0,2.128.573,7.314,7.314,0,0,0,2.825-.417.831.831,0,0,0,.524-.556,4.415,4.415,0,0,0,.1-1.181V61.012Q119.055,60.873,117.937,60.873ZM63.7,51.808c0-.647.291-.973.872-.973H67.5c.582,0,.872.326.872.973v10a5.467,5.467,0,0,0,.244,2.013q.384,1.008,2.477,1.008a10.038,10.038,0,0,0,2.756-.28,1.58,1.58,0,0,0,.663-.347,1.34,1.34,0,0,0,.244-.938V51.808c0-.647.3-.973.907-.973h2.894c.582,0,.872.326.872.973V65.457a2.184,2.184,0,0,1-1.256,2.223,21.253,21.253,0,0,1-7.814,1.077q-5.266,0-6.209-2.362a11.975,11.975,0,0,1-.454-3.96Zm7.811-3.178a9.013,9.013,0,0,1-1.333-.091q-.606-.089-.606-.572a1.131,1.131,0,0,1,.3-.724L72.509,43.8a1.616,1.616,0,0,1,1.364-.694q1.153,0,2.031.09c.505.061.758.253.758.574a1.447,1.447,0,0,1-.455.815l-3.365,3.5A1.641,1.641,0,0,1,71.509,48.63Zm44.57-15.378V8h.407V33.252Z" transform="translate(0 -6.371)" fill="#fff" fill-rule="evenodd"/></svg>