<?xml version="1.0" encoding="UTF-8"?>
<svg width="232px" height="232px" viewBox="0 0 232 232" version="1.1" xmlns="http://www.w3.org/2000/svg" xmlns:xlink="http://www.w3.org/1999/xlink">
    <!-- Generator: Sketch 55.2 (78181) - https://sketchapp.com -->
    <title>teatro</title>
    <desc>Created with Sketch.</desc>
    <g id="Page-1" stroke="none" stroke-width="1" fill="none" fill-rule="evenodd">
        <g id="teatro">
            <g id="Group_275" transform="translate(77.000000, 0.000000)">
                <g id="Path_31">
                    <path d="M0,119.716522 L0,0 L154.149211,0 L154.149211,119.716522 C154.149211,156.964783 119.600947,186.224783 77.0787368,186.224783 C34.5565263,186.224783 0,156.956522 0,119.716522 Z" id="Path"></path>
                    <path d="M120.792765,154.399296 C131.643944,145.089053 137.619937,132.771426 137.619937,119.715621 L137.619937,16.521747 L16.5263394,16.521747 L16.5263394,52 L70,56 L66.0969252,168.900595 C70.9294431,169.435231 74.5881822,169.702549 77.0731424,169.702549 C93.7644729,169.702549 109.291031,164.267724 120.792765,154.399296 Z M77.0731424,186.224288 C74.5149741,186.224288 70.7491575,185.991203 65.7756926,185.525032 L70,63.0000085 C23.3333496,62.6084641 2.44633397e-05,59.9417974 2.44633397e-05,55.0000085 C2.44633397e-05,42.7777825 2.44633397e-05,24.4444491 2.44633397e-05,8.4570431e-06 L154.146253,8.4570431e-06 L154.146253,119.715621 C154.146253,156.960492 119.59618,186.224288 77.0731424,186.224288 Z" id="Shape" fill="#FFFFFF" fill-rule="nonzero"></path>
                </g>
                <g id="Path_32" transform="translate(90.094474, 45.228261)">
                    <path d="M0.263157895,0 L32.1589474,0 L32.1589474,10.64 C32.4417529,13.5379031 31.4128432,16.4103098 29.3542167,18.4699653 C27.2955901,20.5296209 24.4231878,21.5604763 21.5242632,21.28 L10.8978421,21.28 C7.99891745,21.5604763 5.12651514,20.5296209 3.06788861,18.4699653 C1.00926208,16.4103098 -0.0196476084,13.5379031 0.263157895,10.64 L0.263157895,0 Z" id="Path"></path>
                    <path d="M0.263167745,-1.96952878e-05 L32.1554851,-1.96952878e-05 L32.1554851,10.6413855 C32.1554851,18.6224595 26.8401261,21.2827906 21.5246844,21.2827906 L10.8939684,21.2827906 C5.57852671,21.2827906 0.263167745,18.6224595 0.263167745,10.6413855 L0.263167745,-1.96952878e-05 Z" id="Path" fill="#FFFFFF" fill-rule="nonzero"></path>
                </g>
                <g id="Path_33" transform="translate(31.632632, 45.228261)">
                    <path d="M0.263157895,0 L32.1589474,0 L32.1589474,10.64 C32.4417529,13.5379031 31.4128432,16.4103098 29.3542167,18.4699653 C27.2955901,20.5296209 24.4231878,21.5604763 21.5242632,21.28 L10.8978421,21.28 C7.99891745,21.5604763 5.12651514,20.5296209 3.06788861,18.4699653 C1.00926208,16.4103098 -0.0196476084,13.5379031 0.263157895,10.64 L0.263157895,0 Z" id="Path"></path>
                    <path d="M0.263167745,-1.96952878e-05 L32.1554851,-1.96952878e-05 L32.1554851,6.9999803 C32.1554851,12.2499936 26.8401261,13.9999803 21.5246844,13.9999803 L10.8939684,13.9999803 C5.57852671,13.9999803 0.263167745,12.2499936 0.263167745,6.9999803 L0.263167745,-1.96952878e-05 Z" id="Path" fill="#FFFFFF" fill-rule="nonzero"></path>
                </g>
                <path d="M114.568674,143.643746 C114.538947,124.426905 98.9763736,108.84929 79.7542606,108.795652 L74.4097368,108.795652 C70.7139237,108.805953 72.137456,125.32376 74.4327869,125.317359 L79.7312105,125.317391 C89.8310483,125.345589 98.0267232,133.549185 98.0423783,143.669297 L114.568674,143.643746 Z" id="Path_34" fill="#FFFFFF" fill-rule="nonzero"></path>
            </g>
            <g id="Group_274" transform="translate(0.000000, 46.000000)">
                <g id="Group_276">
                    <g id="Path_31-2" fill="#FFFFFF" fill-rule="nonzero">
                        <path d="M77.1476512,168.734856 C93.8774064,168.734856 109.436274,163.323981 120.958253,153.499088 C131.798856,144.25518 137.768987,132.036352 137.768987,119.093473 L137.768987,16.5217244 L16.5263158,16.5217244 L16.5263158,119.093473 C16.5263158,132.036352 22.4964461,144.25518 33.3369668,153.499088 C44.8589497,163.323981 60.417896,168.734856 77.1476512,168.734856 L77.1476512,168.734856 Z M77.1476512,185.256596 C34.58338,185.256596 -4.07395028e-07,156.144801 -4.07395028e-07,119.093473 L-4.07395028e-07,-1.44228644e-05 L154.295302,-1.44228644e-05 L154.295302,119.093473 C154.295302,156.144801 119.71184,185.256596 77.1476512,185.256596 Z" id="Shape"></path>
                    </g>
                    <g id="Path_32-2" transform="translate(90.185368, 44.694783)">
                        <path d="M0.263157895,21.5656522 L32.1837368,21.5656522 L32.1837368,10.9091304 C32.4661049,8.01061614 31.4373673,5.13770224 29.3791405,3.07684779 C27.3209136,1.01599334 24.4488048,-0.0169191984 21.5490526,0.260869565 L10.9061053,0.260869565 C8.0049924,-0.0195652715 5.13051584,1.01217436 3.07035201,3.07336674 C1.01018817,5.13455911 -0.0196060827,8.0090395 0.263157895,10.9091304 L0.263157895,21.5656522 Z" id="Path"></path>
                        <path d="M32.1863642,21.5641888 L0.263140628,21.5641888 L0.263140628,10.912541 C0.263140628,2.92378447 5.58370559,0.260893159 10.90427,0.260893159 L21.5453171,0.260893159 C26.8657983,0.260893159 32.1863642,2.92378447 32.1863642,10.912541 L32.1863642,21.5641888 Z" id="Path" fill="#FFFFFF" fill-rule="nonzero"></path>
                    </g>
                    <g id="Path_33-2" transform="translate(31.657421, 44.694783)">
                        <path d="M0.263157895,21.5656522 L32.1837368,21.5656522 L32.1837368,10.9091304 C32.4661049,8.01061614 31.4373673,5.13770224 29.3791405,3.07684779 C27.3209136,1.01599334 24.4488048,-0.0169191984 21.5490526,0.260869565 L10.9061053,0.260869565 C8.0049924,-0.0195652715 5.13051584,1.01217436 3.07035201,3.07336674 C1.01018817,5.13455911 -0.0196060827,8.0090395 0.263157895,10.9091304 L0.263157895,21.5656522 Z" id="Path"></path>
                        <path d="M32.1863564,21.5641888 L0.263133732,21.5641888 L0.263133732,10.912541 C0.263133732,2.92378447 5.58369869,0.260893159 10.9042631,0.260893159 L21.5453093,0.260893159 C26.8657924,0.260893159 32.1863564,2.92378447 32.1863564,10.912541 L32.1863564,21.5641888 Z" id="Path" fill="#FFFFFF" fill-rule="nonzero"></path>
                    </g>
                    <path d="M98.1497958,116.319354 C98.1372606,126.457585 89.9261225,134.676646 79.7851066,134.701764 L74.4841053,134.701739 C64.3683495,134.673519 56.1606758,126.455373 56.1481516,116.319354 L39.6218484,116.33977 C39.6456152,135.574535 55.2210391,151.169832 74.461073,151.223478 L79.8055789,151.223478 C99.0703131,151.175787 114.652311,135.578753 114.676099,116.339776 L98.1497958,116.319354 Z" id="Path_34-2" fill="#FFFFFF" fill-rule="nonzero"></path>
                </g>
            </g>
        </g>
    </g>
</svg>