<?xml version="1.0" encoding="UTF-8"?>
<svg width="59px" height="13px" viewBox="0 0 59 13" version="1.1" xmlns="http://www.w3.org/2000/svg" xmlns:xlink="http://www.w3.org/1999/xlink">
    <!-- Generator: Sketch 53.2 (72643) - https://sketchapp.com -->
    <title>Page-1_2_</title>
    <desc>Created with Sketch.</desc>
    <g id="Page-1" stroke="none" stroke-width="1" fill="none" fill-rule="evenodd">
        <g id="Page-1_2_" fill="#25114E" fill-rule="nonzero">
            <path d="M42.853,5.145 C43.915,4.217 45.098,4.151 46.324,4.392 C47.473,4.617 48.237,5.32 48.58,6.441 C48.981,7.743 48.998,9.063 48.518,10.352 C48.049,11.599 47.09,12.321 45.845,12.689 C44.593,13.056 43.312,12.97 42.037,12.84 C41.248,12.758 40.471,12.593 39.693,12.444 C39.467,12.4 39.38,12.301 39.381,12.067 C39.384,8.252 39.384,4.432 39.381,0.616 C39.381,0.366 39.477,0.287 39.716,0.287 C40.637,0.297 41.561,0.3 42.481,0.287 C42.768,0.287 42.859,0.391 42.857,0.674 C42.848,2.02 42.853,3.368 42.853,4.721 L42.853,5.145 Z M42.865,9.142 L42.852,9.142 C42.852,9.512 42.863,9.876 42.849,10.244 C42.84,10.481 42.942,10.596 43.167,10.615 C43.601,10.656 44.036,10.675 44.468,10.598 C45.038,10.506 45.282,10.225 45.336,9.645 C45.401,9.025 45.404,8.398 45.344,7.777 C45.279,7.17 45.033,6.906 44.428,6.862 C44.29,6.849 44.151,6.849 44.011,6.856 C43.275,6.897 42.907,7.249 42.865,7.989 C42.844,8.369 42.865,8.758 42.865,9.142 L42.865,9.142 Z M13.955,12.929 C13.309,12.939 12.705,12.904 12.117,12.752 C10.277,12.279 9.196,10.969 9.097,9.063 C9.062,8.378 9.094,7.698 9.297,7.033 C9.683,5.763 10.537,4.949 11.784,4.573 C13.188,4.142 14.69,4.138 16.094,4.563 C17.663,5.022 18.643,6.301 18.76,7.955 C18.809,8.68 18.795,9.398 18.595,10.105 C18.214,11.469 17.302,12.29 15.973,12.692 C15.318,12.881 14.637,12.961 13.955,12.929 Z M12.555,8.666 C12.566,8.938 12.552,9.262 12.634,9.585 C12.736,9.983 12.979,10.215 13.386,10.288 C13.777,10.36 14.178,10.36 14.567,10.288 C14.866,10.225 15.082,10.059 15.17,9.774 C15.408,9.024 15.409,8.216 15.18,7.462 C15.085,7.139 14.833,6.968 14.499,6.921 C14.146,6.87 13.787,6.866 13.434,6.911 C13.003,6.972 12.75,7.186 12.639,7.604 C12.553,7.935 12.557,8.271 12.555,8.666 Z M37.971,9.803 C37.971,10.687 37.965,11.568 37.976,12.454 C37.976,12.71 37.884,12.799 37.628,12.796 C36.895,12.783 36.16,12.789 35.425,12.796 C35.213,12.796 35.091,12.723 35.045,12.511 C35.01,12.346 34.947,12.192 34.905,12.024 C34.85,11.818 34.771,11.754 34.587,11.925 C33.878,12.593 33.005,12.853 32.055,12.86 C30.269,12.876 29.26,11.716 29.461,9.943 C29.573,8.942 30.094,8.284 31.03,7.935 C31.853,7.628 32.719,7.619 33.577,7.549 C33.773,7.533 33.973,7.533 34.172,7.508 C34.468,7.47 34.54,7.274 34.341,7.042 C34.17,6.836 33.931,6.767 33.678,6.744 C33.124,6.703 32.566,6.713 32.012,6.764 C31.49,6.818 30.969,6.884 30.45,6.956 C30.255,6.981 30.178,6.912 30.16,6.722 C30.109,6.13 30.054,5.541 29.988,4.949 C29.959,4.696 30.056,4.601 30.304,4.563 C31.671,4.364 33.038,4.24 34.421,4.334 C35.046,4.375 35.666,4.464 36.25,4.701 C37.439,5.186 37.958,5.962 37.968,7.251 C37.976,8.1 37.971,8.951 37.971,9.803 Z M34.502,9.828 C34.502,9.644 34.502,9.527 34.502,9.407 C34.502,9.303 34.441,9.233 34.337,9.239 C33.971,9.259 33.604,9.259 33.257,9.391 C33.061,9.457 32.934,9.644 32.942,9.853 C32.942,10.069 32.95,10.309 33.17,10.426 C33.542,10.629 33.918,10.522 34.285,10.379 C34.584,10.256 34.487,9.993 34.502,9.828 Z M19.922,6.532 C19.922,4.588 19.922,2.643 19.922,0.695 C19.922,0.306 19.935,0.29 20.319,0.29 C21.22,0.29 22.122,0.3 23.025,0.29 C23.291,0.29 23.394,0.379 23.394,0.654 C23.389,4.581 23.389,8.508 23.394,12.434 C23.394,12.706 23.297,12.798 23.03,12.795 C22.118,12.785 21.204,12.782 20.291,12.795 C20.008,12.798 19.914,12.706 19.917,12.421 C19.927,10.455 19.922,8.492 19.922,6.532 Z M28.349,6.558 C28.349,8.502 28.349,10.447 28.349,12.388 C28.349,12.768 28.326,12.793 27.947,12.793 C27.046,12.793 26.143,12.783 25.241,12.796 C24.986,12.799 24.87,12.714 24.885,12.457 C24.89,12.368 24.885,12.283 24.885,12.191 C24.885,8.425 24.885,4.657 24.885,0.892 C24.885,0.296 24.885,0.296 25.482,0.296 C26.316,0.296 27.149,0.302 27.982,0.286 C28.27,0.286 28.357,0.388 28.356,0.67 C28.341,2.631 28.349,4.598 28.349,6.558 Z M8.225,10.373 C8.226,11.028 8.222,11.681 8.226,12.34 C8.227,12.521 8.183,12.647 7.984,12.679 C6.704,12.907 5.428,13.021 4.146,12.834 L4.146,12.844 C4.065,12.827 3.983,12.812 3.901,12.796 L3.787,12.776 C2.965,12.621 2.28,12.26 1.759,11.68 C1.112,11.025 0.742,10.138 0.687,9.062 C0.65,8.374 0.682,7.697 0.885,7.029 C1.054,6.437 1.374,5.895 1.813,5.455 C2.63,4.594 3.762,4.325 5.001,4.28 C5.984,4.255 6.966,4.325 7.932,4.496 C8.154,4.537 8.229,4.635 8.229,4.856 C8.218,5.528 8.212,6.203 8.229,6.88 C8.237,7.168 8.118,7.237 7.857,7.212 C7.091,7.136 6.316,7.066 5.544,7.085 C5.346,7.082 5.148,7.107 4.957,7.155 C4.626,7.253 4.401,7.459 4.317,7.798 C4.183,8.33 4.186,8.884 4.332,9.416 C4.444,9.834 4.785,10.081 5.304,10.1 C6.135,10.145 6.97,10.117 7.796,10.008 C8.194,9.955 8.225,9.975 8.225,10.373 Z M58.865,3.53 C59.001,4.017 59.022,4.514 58.993,5.015 C58.958,5.74 58.747,6.351 58.38,6.817 L58.38,6.836 C58.237,7.017 58.103,7.197 57.952,7.368 C57.266,8.14 56.361,8.591 55.452,9.03 C55.104,9.201 54.759,9.369 54.42,9.552 C54.28,9.628 54.143,9.755 54.193,9.936 C54.244,10.113 54.429,10.04 54.554,10.04 C55.83,10.049 57.105,10.049 58.383,10.053 L58.383,12.792 L50.438,12.792 C49.978,12.792 49.974,12.792 49.978,12.332 C49.981,11.709 49.949,11.078 50.006,10.454 C50.147,9.042 50.975,8.086 52.19,7.433 C52.695,7.161 53.217,6.913 53.75,6.699 C54.125,6.544 54.494,6.373 54.82,6.126 C55.078,5.93 55.292,5.698 55.39,5.385 C55.561,4.818 55.321,4.337 54.758,4.162 C54.182,3.985 53.587,3.969 52.989,4.026 C52.259,4.083 51.532,4.181 50.81,4.32 C50.633,4.355 50.53,4.327 50.514,4.118 C50.459,3.354 50.398,2.597 50.332,1.835 C50.316,1.645 50.384,1.563 50.569,1.54 C51.876,1.359 53.182,1.16 54.504,1.192 C55.427,1.217 56.345,1.293 57.205,1.685 C57.29,1.727 57.374,1.771 57.456,1.819 C58.151,2.127 58.635,2.69 58.865,3.53 Z" id="Shape_1_"></path>
        </g>
    </g>
</svg>