<?xml version="1.0" encoding="UTF-8"?>
<svg width="281px" height="47px" viewBox="0 0 281 47" version="1.1" xmlns="http://www.w3.org/2000/svg" xmlns:xlink="http://www.w3.org/1999/xlink">
    <!-- Generator: Sketch 53.2 (72643) - https://sketchapp.com -->
    <title>Group</title>
    <desc>Created with Sketch.</desc>
    <g id="Page-1" stroke="none" stroke-width="1" fill="none" fill-rule="evenodd">
        <g id="Logo_tr_dominio_2019" transform="translate(-11.000000, -4.000000)">
            <g id="Group" transform="translate(11.412300, 4.750000)">
                <path d="M276.2107,21.5811 C276.5037,21.5811 276.7587,21.5261 276.9757,21.4161 C277.1907,21.3061 277.3707,21.1521 277.5147,20.9541 C277.6567,20.7561 277.7617,20.5191 277.8277,20.2451 C277.8937,19.9701 277.9267,19.6671 277.9267,19.3371 C277.9267,19.0071 277.8937,18.7051 277.8277,18.4301 C277.7617,18.1541 277.6567,17.9181 277.5147,17.7201 C277.3707,17.5221 277.1907,17.3681 276.9757,17.2581 C276.7587,17.1481 276.5037,17.0931 276.2107,17.0931 C275.9097,17.0931 275.6527,17.1481 275.4397,17.2581 C275.2287,17.3681 275.0507,17.5221 274.9067,17.7201 C274.7647,17.9181 274.6597,18.1541 274.5937,18.4301 C274.5277,18.7051 274.4947,19.0071 274.4947,19.3371 C274.4947,19.6671 274.5277,19.9701 274.5937,20.2451 C274.6597,20.5191 274.7647,20.7561 274.9067,20.9541 C275.0507,21.1521 275.2287,21.3061 275.4397,21.4161 C275.6527,21.5261 275.9097,21.5811 276.2107,21.5811 L276.2107,21.5811 Z M272.6357,19.3371 C272.6357,18.7871 272.7147,18.2791 272.8717,17.8131 C273.0297,17.3481 273.2587,16.9481 273.5597,16.6141 C273.8597,16.2811 274.2337,16.0191 274.6817,15.8281 C275.1287,15.6371 275.6387,15.5421 276.2107,15.5421 C276.7827,15.5421 277.2927,15.6371 277.7397,15.8281 C278.1877,16.0191 278.5617,16.2811 278.8617,16.6141 C279.1617,16.9481 279.3917,17.3481 279.5497,17.8131 C279.7067,18.2791 279.7857,18.7871 279.7857,19.3371 C279.7857,19.8871 279.7067,20.3951 279.5497,20.8601 C279.3917,21.3261 279.1617,21.7261 278.8617,22.0601 C278.5617,22.3931 278.1877,22.6551 277.7397,22.8461 C277.2927,23.0371 276.7827,23.1321 276.2107,23.1321 C275.6387,23.1321 275.1287,23.0371 274.6817,22.8461 C274.2337,22.6551 273.8597,22.3931 273.5597,22.0601 C273.2587,21.7261 273.0297,21.3261 272.8717,20.8601 C272.7147,20.3951 272.6357,19.8871 272.6357,19.3371 L272.6357,19.3371 Z M269.7647,23.0001 L271.6237,23.0001 L271.6237,15.6741 L269.7647,15.6741 L269.7647,23.0001 Z M261.7237,15.6741 L263.5717,15.6741 L266.5857,19.9091 L266.5857,15.6741 L268.3897,15.6741 L268.3897,23.0001 L266.5417,23.0001 L263.5277,18.7651 L263.5277,23.0001 L261.7237,23.0001 L261.7237,15.6741 Z M260.3487,15.0251 L258.5447,15.0251 L259.3147,13.5731 L261.8007,13.5731 L260.3487,15.0251 Z M258.4897,23.0001 L260.3477,23.0001 L260.3477,15.6741 L258.4897,15.6741 L258.4897,23.0001 Z M248.9967,15.6741 L250.8557,15.6741 L253.0557,20.2391 L255.2557,15.6741 L257.1147,15.6741 L257.1147,23.0001 L255.3107,23.0001 L255.3107,19.3151 L253.9467,22.0761 L252.1647,22.0761 L250.8007,19.3151 L250.8007,23.0001 L248.9967,23.0001 L248.9967,15.6741 Z M244.4647,21.5811 C244.7577,21.5811 245.0127,21.5261 245.2297,21.4161 C245.4447,21.3061 245.6247,21.1521 245.7687,20.9541 C245.9107,20.7561 246.0157,20.5191 246.0817,20.2451 C246.1477,19.9701 246.1807,19.6671 246.1807,19.3371 C246.1807,19.0071 246.1477,18.7051 246.0817,18.4301 C246.0157,18.1541 245.9107,17.9181 245.7687,17.7201 C245.6247,17.5221 245.4447,17.3681 245.2297,17.2581 C245.0127,17.1481 244.7577,17.0931 244.4647,17.0931 C244.1637,17.0931 243.9067,17.1481 243.6947,17.2581 C243.4817,17.3681 243.3047,17.5221 243.1607,17.7201 C243.0187,17.9181 242.9137,18.1541 242.8477,18.4301 C242.7817,18.7051 242.7487,19.0071 242.7487,19.3371 C242.7487,19.6671 242.7817,19.9701 242.8477,20.2451 C242.9137,20.5191 243.0187,20.7561 243.1607,20.9541 C243.3047,21.1521 243.4817,21.3061 243.6947,21.4161 C243.9067,21.5261 244.1637,21.5811 244.4647,21.5811 L244.4647,21.5811 Z M240.8897,19.3371 C240.8897,18.7871 240.9687,18.2791 241.1257,17.8131 C241.2837,17.3481 241.5137,16.9481 241.8137,16.6141 C242.1137,16.2811 242.4877,16.0191 242.9357,15.8281 C243.3827,15.6371 243.8927,15.5421 244.4647,15.5421 C245.0367,15.5421 245.5467,15.6371 245.9937,15.8281 C246.4407,16.0191 246.8147,16.2811 247.1157,16.6141 C247.4167,16.9481 247.6457,17.3481 247.8037,17.8131 C247.9607,18.2791 248.0397,18.7871 248.0397,19.3371 C248.0397,19.8871 247.9607,20.3951 247.8037,20.8601 C247.6457,21.3261 247.4167,21.7261 247.1157,22.0601 C246.8147,22.3931 246.4407,22.6551 245.9937,22.8461 C245.5467,23.0371 245.0367,23.1321 244.4647,23.1321 C243.8927,23.1321 243.3827,23.0371 242.9357,22.8461 C242.4877,22.6551 242.1137,22.3931 241.8137,22.0601 C241.5137,21.7261 241.2837,21.3261 241.1257,20.8601 C240.9687,20.3951 240.8897,19.8871 240.8897,19.3371 L240.8897,19.3371 Z M236.2807,21.4271 C236.5737,21.4271 236.8437,21.3891 237.0897,21.3111 C237.3347,21.2341 237.5477,21.1131 237.7277,20.9491 C237.9067,20.7841 238.0477,20.5671 238.1507,20.2991 C238.2537,20.0321 238.3047,19.7111 238.3047,19.3371 C238.3047,18.9631 238.2537,18.6421 238.1507,18.3741 C238.0477,18.1071 237.9067,17.8911 237.7277,17.7261 C237.5477,17.5601 237.3347,17.4391 237.0897,17.3621 C236.8437,17.2861 236.5737,17.2471 236.2807,17.2471 L235.3897,17.2471 L235.3897,21.4271 L236.2807,21.4271 Z M233.5417,15.6741 L236.3797,15.6741 C236.9587,15.6741 237.4817,15.7641 237.9467,15.9431 C238.4127,16.1231 238.8107,16.3741 239.1407,16.6971 C239.4707,17.0191 239.7237,17.4051 239.8987,17.8521 C240.0757,18.2991 240.1637,18.7941 240.1637,19.3371 C240.1637,19.8801 240.0757,20.3741 239.8987,20.8221 C239.7237,21.2691 239.4707,21.6541 239.1407,21.9771 C238.8107,22.3001 238.4127,22.5511 237.9467,22.7301 C237.4817,22.9101 236.9587,23.0001 236.3797,23.0001 L233.5417,23.0001 L233.5417,15.6741 Z" id="Fill-1" fill="#000000"></path>
                <path d="M276.2107,21.5811 C276.5037,21.5811 276.7587,21.5261 276.9757,21.4161 C277.1907,21.3061 277.3707,21.1521 277.5147,20.9541 C277.6567,20.7561 277.7617,20.5191 277.8277,20.2451 C277.8937,19.9701 277.9267,19.6671 277.9267,19.3371 C277.9267,19.0071 277.8937,18.7051 277.8277,18.4301 C277.7617,18.1541 277.6567,17.9181 277.5147,17.7201 C277.3707,17.5221 277.1907,17.3681 276.9757,17.2581 C276.7587,17.1481 276.5037,17.0931 276.2107,17.0931 C275.9097,17.0931 275.6527,17.1481 275.4397,17.2581 C275.2287,17.3681 275.0507,17.5221 274.9067,17.7201 C274.7647,17.9181 274.6597,18.1541 274.5937,18.4301 C274.5277,18.7051 274.4947,19.0071 274.4947,19.3371 C274.4947,19.6671 274.5277,19.9701 274.5937,20.2451 C274.6597,20.5191 274.7647,20.7561 274.9067,20.9541 C275.0507,21.1521 275.2287,21.3061 275.4397,21.4161 C275.6527,21.5261 275.9097,21.5811 276.2107,21.5811 L276.2107,21.5811 Z M272.6357,19.3371 C272.6357,18.7871 272.7147,18.2791 272.8717,17.8131 C273.0297,17.3481 273.2587,16.9481 273.5597,16.6141 C273.8597,16.2811 274.2337,16.0191 274.6817,15.8281 C275.1287,15.6371 275.6387,15.5421 276.2107,15.5421 C276.7827,15.5421 277.2927,15.6371 277.7397,15.8281 C278.1877,16.0191 278.5617,16.2811 278.8617,16.6141 C279.1617,16.9481 279.3917,17.3481 279.5497,17.8131 C279.7067,18.2791 279.7857,18.7871 279.7857,19.3371 C279.7857,19.8871 279.7067,20.3951 279.5497,20.8601 C279.3917,21.3261 279.1617,21.7261 278.8617,22.0601 C278.5617,22.3931 278.1877,22.6551 277.7397,22.8461 C277.2927,23.0371 276.7827,23.1321 276.2107,23.1321 C275.6387,23.1321 275.1287,23.0371 274.6817,22.8461 C274.2337,22.6551 273.8597,22.3931 273.5597,22.0601 C273.2587,21.7261 273.0297,21.3261 272.8717,20.8601 C272.7147,20.3951 272.6357,19.8871 272.6357,19.3371 L272.6357,19.3371 Z M269.7647,23.0001 L271.6237,23.0001 L271.6237,15.6741 L269.7647,15.6741 L269.7647,23.0001 Z M261.7237,15.6741 L263.5717,15.6741 L266.5857,19.9091 L266.5857,15.6741 L268.3897,15.6741 L268.3897,23.0001 L266.5417,23.0001 L263.5277,18.7651 L263.5277,23.0001 L261.7237,23.0001 L261.7237,15.6741 Z M260.3487,15.0251 L258.5447,15.0251 L259.3147,13.5731 L261.8007,13.5731 L260.3487,15.0251 Z M258.4897,23.0001 L260.3477,23.0001 L260.3477,15.6741 L258.4897,15.6741 L258.4897,23.0001 Z M248.9967,15.6741 L250.8557,15.6741 L253.0557,20.2391 L255.2557,15.6741 L257.1147,15.6741 L257.1147,23.0001 L255.3107,23.0001 L255.3107,19.3151 L253.9467,22.0761 L252.1647,22.0761 L250.8007,19.3151 L250.8007,23.0001 L248.9967,23.0001 L248.9967,15.6741 Z M244.4647,21.5811 C244.7577,21.5811 245.0127,21.5261 245.2297,21.4161 C245.4447,21.3061 245.6247,21.1521 245.7687,20.9541 C245.9107,20.7561 246.0157,20.5191 246.0817,20.2451 C246.1477,19.9701 246.1807,19.6671 246.1807,19.3371 C246.1807,19.0071 246.1477,18.7051 246.0817,18.4301 C246.0157,18.1541 245.9107,17.9181 245.7687,17.7201 C245.6247,17.5221 245.4447,17.3681 245.2297,17.2581 C245.0127,17.1481 244.7577,17.0931 244.4647,17.0931 C244.1637,17.0931 243.9067,17.1481 243.6947,17.2581 C243.4817,17.3681 243.3047,17.5221 243.1607,17.7201 C243.0187,17.9181 242.9137,18.1541 242.8477,18.4301 C242.7817,18.7051 242.7487,19.0071 242.7487,19.3371 C242.7487,19.6671 242.7817,19.9701 242.8477,20.2451 C242.9137,20.5191 243.0187,20.7561 243.1607,20.9541 C243.3047,21.1521 243.4817,21.3061 243.6947,21.4161 C243.9067,21.5261 244.1637,21.5811 244.4647,21.5811 L244.4647,21.5811 Z M240.8897,19.3371 C240.8897,18.7871 240.9687,18.2791 241.1257,17.8131 C241.2837,17.3481 241.5137,16.9481 241.8137,16.6141 C242.1137,16.2811 242.4877,16.0191 242.9357,15.8281 C243.3827,15.6371 243.8927,15.5421 244.4647,15.5421 C245.0367,15.5421 245.5467,15.6371 245.9937,15.8281 C246.4407,16.0191 246.8147,16.2811 247.1157,16.6141 C247.4167,16.9481 247.6457,17.3481 247.8037,17.8131 C247.9607,18.2791 248.0397,18.7871 248.0397,19.3371 C248.0397,19.8871 247.9607,20.3951 247.8037,20.8601 C247.6457,21.3261 247.4167,21.7261 247.1157,22.0601 C246.8147,22.3931 246.4407,22.6551 245.9937,22.8461 C245.5467,23.0371 245.0367,23.1321 244.4647,23.1321 C243.8927,23.1321 243.3827,23.0371 242.9357,22.8461 C242.4877,22.6551 242.1137,22.3931 241.8137,22.0601 C241.5137,21.7261 241.2837,21.3261 241.1257,20.8601 C240.9687,20.3951 240.8897,19.8871 240.8897,19.3371 L240.8897,19.3371 Z M236.2807,21.4271 C236.5737,21.4271 236.8437,21.3891 237.0897,21.3111 C237.3347,21.2341 237.5477,21.1131 237.7277,20.9491 C237.9067,20.7841 238.0477,20.5671 238.1507,20.2991 C238.2537,20.0321 238.3047,19.7111 238.3047,19.3371 C238.3047,18.9631 238.2537,18.6421 238.1507,18.3741 C238.0477,18.1071 237.9067,17.8911 237.7277,17.7261 C237.5477,17.5601 237.3347,17.4391 237.0897,17.3621 C236.8437,17.2861 236.5737,17.2471 236.2807,17.2471 L235.3897,17.2471 L235.3897,21.4271 L236.2807,21.4271 Z M233.5417,15.6741 L236.3797,15.6741 C236.9587,15.6741 237.4817,15.7641 237.9467,15.9431 C238.4127,16.1231 238.8107,16.3741 239.1407,16.6971 C239.4707,17.0191 239.7237,17.4051 239.8987,17.8521 C240.0757,18.2991 240.1637,18.7941 240.1637,19.3371 C240.1637,19.8801 240.0757,20.3741 239.8987,20.8221 C239.7237,21.2691 239.4707,21.6541 239.1407,21.9771 C238.8107,22.3001 238.4127,22.5511 237.9467,22.7301 C237.4817,22.9101 236.9587,23.0001 236.3797,23.0001 L233.5417,23.0001 L233.5417,15.6741 Z" id="Fill-3" fill="#4D4D4D"></path>
                <polygon id="Fill-5" fill="#AFAFAF" points="213.8377 46 214.8377 46 214.8377 0 213.8377 0"></polygon>
                <path d="M11.451,28.6172 C11.681,28.5662 11.827,28.3342 11.788,28.0982 C11.737,27.8562 11.504,27.6922 11.271,27.7532 C11.024,27.7952 10.881,28.0302 10.928,28.2562 C10.977,28.5052 11.208,28.6742 11.451,28.6172 L11.451,28.6172 Z M20.348,26.7442 C20.578,26.6902 20.723,26.4612 20.684,26.2242 C20.632,25.9792 20.398,25.8142 20.167,25.8772 C19.921,25.9162 19.779,26.1542 19.824,26.3842 C19.871,26.6272 20.105,26.7962 20.348,26.7442 L20.348,26.7442 Z M12.519,30.6022 C12.791,30.3772 12.824,29.9992 12.629,29.7322 C12.409,29.4752 12.03,29.4292 11.765,29.6302 C11.51,29.8272 11.462,30.2182 11.673,30.4842 C11.871,30.7492 12.257,30.8152 12.519,30.6022 L12.519,30.6022 Z M19.791,24.8442 C20.065,24.6192 20.096,24.2392 19.9,23.9742 C19.682,23.7192 19.301,23.6722 19.04,23.8732 C18.786,24.0732 18.734,24.4632 18.948,24.7272 C19.146,24.9932 19.531,25.0582 19.791,24.8442 L19.791,24.8442 Z M14.908,31.9922 C15.079,31.5742 14.852,31.0822 14.438,30.9312 C14,30.7602 13.543,30.9762 13.365,31.4232 C13.201,31.8432 13.425,32.3162 13.854,32.4832 C14.285,32.6282 14.748,32.4202 14.908,31.9922 L14.908,31.9922 Z M18.213,23.0942 C18.377,22.6812 18.157,22.1852 17.738,22.0362 C17.302,21.8672 16.847,22.0852 16.665,22.5272 C16.501,22.9492 16.728,23.4222 17.152,23.5892 C17.585,23.7292 18.049,23.5282 18.213,23.0942 L18.213,23.0942 Z M19.689,28.2862 C19.615,28.6262 19.782,28.9452 20.108,29.0322 C20.431,29.1212 20.764,28.9152 20.849,28.6032 C20.934,28.2822 20.74,27.9572 20.419,27.8742 C20.101,27.7792 19.773,27.9752 19.689,28.2862 L19.689,28.2862 Z M18.473,29.9712 C18.134,30.3272 18.134,30.8992 18.479,31.2562 C18.835,31.5982 19.394,31.5932 19.716,31.2532 C20.082,30.9052 20.089,30.3212 19.738,29.9832 C19.382,29.6262 18.828,29.6262 18.473,29.9712 L18.473,29.9712 Z M16.606,30.9592 C16.125,31.0802 15.791,31.5802 15.91,32.0702 C16.015,32.5812 16.525,32.9032 17.02,32.7922 C17.527,32.6872 17.833,32.1732 17.732,31.6712 C17.611,31.1582 17.118,30.8582 16.606,30.9592 L16.606,30.9592 Z M10.736,25.8762 C10.644,26.2102 10.832,26.5282 11.165,26.6302 C11.471,26.7112 11.802,26.5172 11.886,26.1992 C11.978,25.8762 11.774,25.5502 11.464,25.4622 C11.15,25.3762 10.823,25.5602 10.736,25.8762 L10.736,25.8762 Z M11.847,23.2392 C11.512,23.5972 11.495,24.1582 11.841,24.5042 C12.189,24.8582 12.747,24.8612 13.112,24.5042 C13.451,24.1582 13.451,23.5972 13.1,23.2392 C12.753,22.8912 12.192,22.8962 11.847,23.2392 L11.847,23.2392 Z M14.566,21.7062 C14.051,21.8112 13.738,22.3192 13.837,22.8112 C13.966,23.3162 14.452,23.6402 14.963,23.5212 C15.457,23.4112 15.774,22.9122 15.664,22.4082 C15.549,21.9102 15.051,21.5852 14.566,21.7062 L14.566,21.7062 Z M20.509,32.9692 C20.777,33.2292 21.174,33.2392 21.429,32.9662 C21.685,32.7262 21.7,32.3232 21.432,32.0662 C21.187,31.7992 20.763,31.8032 20.52,32.0502 C20.268,32.3062 20.265,32.7262 20.509,32.9692 L20.509,32.9692 Z M10.078,22.3852 C10.337,22.6422 10.75,22.6552 11.002,22.3812 C11.246,22.1302 11.255,21.7152 10.999,21.4632 C10.743,21.2102 10.337,21.2142 10.082,21.4612 C9.836,21.7152 9.836,22.1302 10.078,22.3852 L10.078,22.3852 Z M22.34,30.6942 C22.675,30.8392 23.053,30.6742 23.194,30.3452 C23.329,30.0142 23.173,29.6282 22.847,29.4902 C22.513,29.3422 22.138,29.5022 22.01,29.8402 C21.858,30.1792 22.03,30.5662 22.34,30.6942 L22.34,30.6942 Z M23.261,28.1342 C23.694,28.1342 24.044,27.7922 24.046,27.3592 C24.058,26.9312 23.718,26.5682 23.287,26.5622 C22.867,26.5572 22.501,26.8912 22.491,27.3292 C22.495,27.7582 22.838,28.1152 23.261,28.1342 L23.261,28.1342 Z M23.248,25.3622 C23.765,25.1672 24.012,24.5792 23.8,24.0552 C23.606,23.5482 23.036,23.2762 22.532,23.4802 C22.003,23.6892 21.745,24.2662 21.947,24.7852 C22.154,25.3132 22.731,25.5642 23.248,25.3622 L23.248,25.3622 Z M8.665,24.9442 C9.005,25.0732 9.38,24.9182 9.52,24.5852 C9.652,24.2552 9.5,23.8712 9.175,23.7262 C8.843,23.5852 8.452,23.7522 8.325,24.0842 C8.188,24.4132 8.343,24.7972 8.665,24.9442 L8.665,24.9442 Z M8.231,27.8702 C8.649,27.8732 9.005,27.5262 9.014,27.0942 C9.021,26.6702 8.666,26.3132 8.261,26.3052 C7.825,26.2972 7.472,26.6332 7.462,27.0662 C7.454,27.5072 7.802,27.8612 8.231,27.8702 L8.231,27.8702 Z M8.994,30.9492 C9.507,30.7512 9.773,30.1732 9.561,29.6332 C9.371,29.1142 8.785,28.8562 8.274,29.0712 C7.757,29.2712 7.507,29.8552 7.704,30.3692 C7.909,30.8862 8.475,31.1522 8.994,30.9492 L8.994,30.9492 Z M18.308,33.4762 C17.957,33.6212 17.772,34.0232 17.929,34.3932 C18.076,34.7562 18.491,34.9342 18.845,34.7912 C19.202,34.6372 19.382,34.2322 19.22,33.8582 C19.082,33.4932 18.664,33.3202 18.308,33.4762 L18.308,33.4762 Z M15.733,33.8442 C15.219,33.8362 14.797,34.2682 14.786,34.7932 C14.797,35.3332 15.219,35.7422 15.726,35.7562 C16.248,35.7452 16.671,35.3332 16.683,34.8042 C16.691,34.2862 16.264,33.8582 15.733,33.8442 L15.733,33.8442 Z M13.305,33.3532 C12.754,33.1202 12.13,33.4032 11.901,33.9622 C11.689,34.5132 11.962,35.1512 12.508,35.3632 C13.045,35.5832 13.676,35.3352 13.895,34.7772 C14.118,34.2172 13.858,33.5892 13.305,33.3532 L13.305,33.3532 Z M11.173,31.8032 C10.718,31.3272 9.958,31.3282 9.499,31.7922 C9.021,32.2692 9.016,33.0242 9.478,33.4952 C9.954,33.9652 10.705,33.9682 11.173,33.5082 C11.642,33.0362 11.642,32.2762 11.173,31.8032 L11.173,31.8032 Z M12.676,19.6492 C12.315,19.7942 12.147,20.2092 12.288,20.5652 C12.449,20.9342 12.855,21.1062 13.215,20.9662 C13.577,20.8072 13.738,20.3852 13.588,20.0322 C13.445,19.6612 13.03,19.4982 12.676,19.6492 L12.676,19.6492 Z M15.791,18.6762 C15.27,18.6742 14.839,19.1052 14.839,19.6372 C14.847,20.1342 15.258,20.5722 15.788,20.5752 C16.297,20.5842 16.733,20.1512 16.723,19.6272 C16.733,19.1232 16.306,18.6832 15.791,18.6762 L15.791,18.6762 Z M19.024,19.0692 C18.481,18.8452 17.854,19.1192 17.624,19.6592 C17.407,20.2042 17.677,20.8602 18.215,21.0762 C18.777,21.2992 19.397,21.0292 19.614,20.4732 C19.841,19.9192 19.572,19.2972 19.024,19.0692 L19.024,19.0692 Z M22.026,20.9402 C21.551,20.4682 20.798,20.4592 20.331,20.9462 C19.868,21.3942 19.868,22.1582 20.331,22.6252 C20.798,23.0992 21.551,23.1062 22.019,22.6372 C22.491,22.1582 22.502,21.4102 22.026,20.9402 L22.026,20.9402 Z M22.152,35.6502 C22.359,35.8932 22.719,35.9212 22.955,35.7172 C23.196,35.5162 23.226,35.1512 23.018,34.9132 C22.819,34.6802 22.457,34.6542 22.224,34.8502 C21.986,35.0552 21.956,35.4172 22.152,35.6502 L22.152,35.6502 Z M23.878,34.0852 C24.168,34.3012 24.581,34.2422 24.793,33.9452 C25.012,33.6512 24.947,33.2412 24.662,33.0222 C24.363,32.8042 23.952,32.8632 23.743,33.1592 C23.527,33.4532 23.59,33.8652 23.878,34.0852 L23.878,34.0852 Z M25.379,31.9462 C25.777,32.1132 26.233,31.9152 26.385,31.5112 C26.544,31.1092 26.36,30.6572 25.955,30.4942 C25.561,30.3352 25.11,30.5222 24.949,30.9302 C24.795,31.3302 24.986,31.7852 25.379,31.9462 L25.379,31.9462 Z M26.397,29.1612 C26.843,29.2152 27.251,28.8802 27.298,28.4322 C27.349,27.9722 27.018,27.5702 26.572,27.5212 C26.117,27.4772 25.713,27.8052 25.666,28.2532 C25.618,28.7032 25.947,29.1202 26.397,29.1612 L26.397,29.1612 Z M26.602,26.2692 C27.147,26.1782 27.513,25.6432 27.407,25.0942 C27.318,24.5472 26.791,24.1792 26.242,24.2792 C25.697,24.3852 25.333,24.9042 25.434,25.4572 C25.54,26.0062 26.055,26.3772 26.602,26.2692 L26.602,26.2692 Z M8.526,19.5012 C8.741,19.7372 9.092,19.7702 9.326,19.5702 C9.566,19.3562 9.594,18.9982 9.396,18.7622 C9.194,18.5292 8.829,18.4962 8.597,18.7002 C8.359,18.9102 8.331,19.2642 8.526,19.5012 L8.526,19.5012 Z M6.893,21.3972 C7.186,21.6132 7.595,21.5542 7.808,21.2522 C8.027,20.9642 7.967,20.5512 7.677,20.3402 C7.383,20.1182 6.973,20.1802 6.762,20.4722 C6.543,20.7662 6.608,21.1772 6.893,21.3972 L6.893,21.3972 Z M5.592,23.9232 C5.987,24.0782 6.442,23.8922 6.605,23.4832 C6.763,23.0852 6.569,22.6272 6.172,22.4702 C5.774,22.3092 5.327,22.4982 5.158,22.9062 C5.004,23.3002 5.194,23.7562 5.592,23.9232 L5.592,23.9232 Z M4.982,26.8952 C5.43,26.9522 5.836,26.6112 5.894,26.1602 C5.93,25.7062 5.602,25.3022 5.148,25.2542 C4.705,25.2062 4.301,25.5372 4.252,25.9862 C4.201,26.4382 4.53,26.8532 4.982,26.8952 L4.982,26.8952 Z M5.306,30.1382 C5.86,30.0412 6.22,29.5132 6.117,28.9672 C6.018,28.4152 5.501,28.0392 4.949,28.1492 C4.403,28.2512 4.042,28.7712 4.14,29.3252 C4.24,29.8682 4.758,30.2442 5.306,30.1382 L5.306,30.1382 Z M20.579,36.1052 C20.346,36.2312 20.263,36.5362 20.389,36.7692 C20.516,37.0072 20.81,37.0922 21.047,36.9662 C21.279,36.8392 21.373,36.5412 21.242,36.3052 C21.116,36.0652 20.819,35.9752 20.579,36.1052 L20.579,36.1052 Z M18.644,36.8202 C18.346,36.9152 18.18,37.2302 18.265,37.5242 C18.358,37.8312 18.67,37.9982 18.972,37.9142 C19.265,37.8192 19.442,37.5022 19.348,37.1972 C19.259,36.9022 18.944,36.7342 18.644,36.8202 L18.644,36.8202 Z M16.407,37.1862 C16.043,37.2042 15.773,37.5232 15.797,37.8862 C15.826,38.2522 16.133,38.5262 16.494,38.5002 C16.853,38.4782 17.126,38.1652 17.101,37.7992 C17.088,37.4352 16.766,37.1652 16.407,37.1862 L16.407,37.1862 Z M13.913,36.9302 C13.451,36.8422 13.009,37.1422 12.916,37.6022 C12.825,38.0742 13.126,38.5172 13.584,38.6132 C14.054,38.7052 14.494,38.4002 14.585,37.9302 C14.673,37.4672 14.369,37.0162 13.913,36.9302 L13.913,36.9302 Z M11.362,35.9912 C10.868,35.7462 10.266,35.9472 10.014,36.4462 C9.772,36.9432 9.966,37.5412 10.453,37.8072 C10.951,38.0542 11.552,37.8512 11.81,37.3472 C12.057,36.8572 11.855,36.2452 11.362,35.9912 L11.362,35.9912 Z M9.203,34.3052 C8.723,33.8592 7.978,33.8842 7.539,34.3602 C7.092,34.8422 7.12,35.5962 7.593,36.0402 C8.068,36.4892 8.817,36.4672 9.259,35.9902 C9.704,35.5002 9.683,34.7522 9.203,34.3052 L9.203,34.3052 Z M7.432,31.7852 C7.091,31.1642 6.32,30.9322 5.699,31.2732 C5.083,31.6152 4.86,32.3932 5.198,33.0162 C5.532,33.6362 6.303,33.8752 6.924,33.5382 C7.541,33.1932 7.768,32.4112 7.432,31.7852 L7.432,31.7852 Z M10.505,17.4502 C10.267,17.5752 10.18,17.8782 10.309,18.1152 C10.437,18.3482 10.731,18.4452 10.969,18.3102 C11.201,18.1802 11.291,17.8792 11.166,17.6432 C11.037,17.4052 10.734,17.3202 10.505,17.4502 L10.505,17.4502 Z M12.582,16.5092 C12.286,16.5962 12.122,16.9142 12.208,17.2172 C12.302,17.5172 12.612,17.6902 12.907,17.5982 C13.209,17.5092 13.374,17.1852 13.283,16.8872 C13.198,16.5872 12.887,16.4182 12.582,16.5092 L12.582,16.5092 Z M15.052,15.9152 C14.697,15.9402 14.425,16.2512 14.444,16.6132 C14.47,16.9742 14.78,17.2552 15.142,17.2332 C15.505,17.2112 15.775,16.8902 15.753,16.5262 C15.724,16.1622 15.416,15.8922 15.052,15.9152 L15.052,15.9152 Z M17.967,15.8122 C17.495,15.7182 17.055,16.0242 16.967,16.4882 C16.877,16.9502 17.182,17.4032 17.638,17.4892 C18.104,17.5812 18.545,17.2742 18.638,16.8152 C18.725,16.3442 18.419,15.9032 17.967,15.8122 L17.967,15.8122 Z M21.001,16.5542 C20.512,16.3072 19.909,16.5082 19.659,17.0242 C19.418,17.5152 19.618,18.1282 20.115,18.3742 C20.613,18.6182 21.219,18.4222 21.46,17.9102 C21.704,17.4042 21.501,16.8072 21.001,16.5542 L21.001,16.5542 Z M23.968,18.3702 C23.489,17.9182 22.743,17.9422 22.301,18.4222 C21.864,18.9062 21.88,19.6592 22.36,20.1092 C22.833,20.5522 23.585,20.5302 24.027,20.0522 C24.469,19.5702 24.448,18.8142 23.968,18.3702 L23.968,18.3702 Z M26.357,21.3992 C26.019,20.7802 25.246,20.5452 24.624,20.8812 C24.006,21.2252 23.777,22.0072 24.113,22.6262 C24.451,23.2512 25.223,23.4852 25.846,23.1522 C26.465,22.8072 26.694,22.0242 26.357,21.3992 L26.357,21.3992 Z M17.873,40.9522 C17.955,41.3602 18.352,41.6202 18.749,41.5312 C19.151,41.4482 19.405,41.0482 19.321,40.6492 C19.241,40.2482 18.843,39.9922 18.446,40.0732 C18.05,40.1582 17.791,40.5512 17.873,40.9522 L17.873,40.9522 Z M20.825,40.2332 C21.023,40.6722 21.539,40.8582 21.966,40.6602 C22.398,40.4552 22.582,39.9392 22.383,39.5042 C22.179,39.0692 21.675,38.8802 21.242,39.0852 C20.815,39.2892 20.631,39.8032 20.825,40.2332 L20.825,40.2332 Z M23.847,38.7542 C24.22,39.2132 24.888,39.2792 25.337,38.8952 C25.787,38.5202 25.854,37.8482 25.475,37.3922 C25.11,36.9412 24.443,36.8732 23.992,37.2562 C23.545,37.6232 23.476,38.2972 23.847,38.7542 L23.847,38.7542 Z M26.693,36.2942 C27.244,36.6832 28.016,36.5412 28.398,35.9832 C28.784,35.4162 28.64,34.6482 28.088,34.2632 C27.52,33.8722 26.764,34.0102 26.378,34.5762 C26.001,35.1342 26.133,35.9142 26.693,36.2942 L26.693,36.2942 Z M28.772,33.0972 C29.522,33.3532 30.343,32.9312 30.596,32.1672 C30.846,31.4122 30.436,30.5852 29.675,30.3272 C28.915,30.0782 28.106,30.4922 27.855,31.2542 C27.603,32.0202 28.013,32.8412 28.772,33.0972 L28.772,33.0972 Z M12.231,13.7612 C12.316,14.1732 12.709,14.4282 13.108,14.3422 C13.508,14.2572 13.764,13.8672 13.68,13.4602 C13.596,13.0602 13.199,12.8002 12.806,12.8862 C12.401,12.9692 12.148,13.3602 12.231,13.7612 L12.231,13.7612 Z M9.168,14.9152 C9.368,15.3482 9.883,15.5372 10.31,15.3292 C10.742,15.1352 10.925,14.6192 10.728,14.1862 C10.526,13.7552 10.013,13.5682 9.588,13.7622 C9.158,13.9672 8.974,14.4782 9.168,14.9152 L9.168,14.9152 Z M6.073,17.0192 C6.445,17.4752 7.11,17.5422 7.565,17.1582 C8.015,16.7882 8.079,16.1132 7.707,15.6622 C7.334,15.2042 6.672,15.1372 6.216,15.5192 C5.765,15.8912 5.698,16.5642 6.073,17.0192 L6.073,17.0192 Z M3.466,20.1572 C4.023,20.5492 4.785,20.4032 5.179,19.8412 C5.556,19.2782 5.417,18.5122 4.859,18.1192 C4.302,17.7312 3.538,17.8732 3.155,18.4322 C2.767,18.9942 2.91,19.7692 3.466,20.1572 L3.466,20.1572 Z M1.878,24.0912 C2.632,24.3462 3.448,23.9272 3.7,23.1662 C3.95,22.4062 3.542,21.5822 2.78,21.3272 C2.023,21.0752 1.21,21.4862 0.957,22.2522 C0.712,23.0082 1.116,23.8382 1.878,24.0912 L1.878,24.0912 Z M15.78,40.4772 C15.427,40.4772 15.144,40.7692 15.144,41.1192 C15.144,41.4732 15.427,41.7572 15.78,41.7612 C16.129,41.7572 16.414,41.4732 16.414,41.1192 C16.414,40.7692 16.129,40.4772 15.78,40.4772 L15.78,40.4772 Z M13.11,40.0732 C12.711,39.9922 12.314,40.2522 12.234,40.6522 C12.15,41.0532 12.408,41.4522 12.806,41.5332 C13.201,41.6202 13.598,41.3622 13.68,40.9562 C13.764,40.5532 13.505,40.1602 13.11,40.0732 L13.11,40.0732 Z M10.306,39.0852 C9.878,38.8782 9.37,39.0672 9.17,39.5012 C8.974,39.9372 9.158,40.4502 9.588,40.6522 C10.013,40.8512 10.526,40.6702 10.728,40.2272 C10.925,39.8032 10.735,39.2832 10.306,39.0852 L10.306,39.0852 Z M7.564,37.2562 C7.11,36.8762 6.445,36.9472 6.072,37.3962 C5.696,37.8512 5.763,38.5202 6.213,38.8952 C6.667,39.2802 7.334,39.2142 7.706,38.7542 C8.078,38.3022 8.011,37.6242 7.564,37.2562 L7.564,37.2562 Z M5.175,34.5762 C4.789,34.0182 4.026,33.8762 3.469,34.2662 C2.912,34.6482 2.771,35.4212 3.149,35.9872 C3.536,36.5422 4.303,36.6822 4.863,36.2962 C5.417,35.9112 5.562,35.1382 5.175,34.5762 L5.175,34.5762 Z M3.702,31.2512 C3.447,30.4882 2.631,30.0742 1.881,30.3252 C1.116,30.5772 0.712,31.4072 0.957,32.1652 C1.206,32.9312 2.023,33.3462 2.782,33.0942 C3.54,32.8382 3.951,32.0172 3.702,31.2512 L3.702,31.2512 Z M3.333,27.2062 C3.333,26.2802 2.59,25.5242 1.665,25.5242 C0.746,25.5242 0,26.2802 0,27.2062 C0,28.1392 0.746,28.8962 1.665,28.8962 C2.59,28.8962 3.333,28.1392 3.333,27.2062 L3.333,27.2062 Z M15.772,12.6542 C15.421,12.6522 15.139,12.9402 15.139,13.2932 C15.139,13.6472 15.421,13.9362 15.772,13.9362 C16.124,13.9362 16.407,13.6472 16.407,13.2932 C16.407,12.9402 16.124,12.6522 15.772,12.6542 L15.772,12.6542 Z M18.75,12.8882 C18.352,12.8002 17.963,13.0552 17.876,13.4642 C17.794,13.8672 18.05,14.2602 18.446,14.3422 C18.844,14.4312 19.241,14.1732 19.323,13.7632 C19.405,13.3612 19.15,12.9692 18.75,12.8882 L18.75,12.8882 Z M21.963,13.7622 C21.533,13.5682 21.028,13.7552 20.825,14.1832 C20.631,14.6122 20.815,15.1312 21.242,15.3292 C21.673,15.5372 22.186,15.3462 22.383,14.9122 C22.582,14.4762 22.396,13.9632 21.963,13.7622 L21.963,13.7622 Z M25.334,15.5212 C24.884,15.1402 24.22,15.2092 23.846,15.6652 C23.474,16.1152 23.536,16.7912 23.988,17.1642 C24.439,17.5422 25.109,17.4772 25.474,17.0222 C25.854,16.5642 25.784,15.8952 25.334,15.5212 L25.334,15.5212 Z M28.395,18.4322 C28.012,17.8752 27.247,17.7292 26.689,18.1222 C26.135,18.5072 25.995,19.2822 26.375,19.8392 C26.762,20.4072 27.525,20.5522 28.085,20.1572 C28.643,19.7642 28.78,19.0042 28.395,18.4322 L28.395,18.4322 Z M30.596,22.2512 C30.341,21.4842 29.522,21.0712 28.772,21.3242 C28.015,21.5782 27.603,22.3992 27.853,23.1632 C28.108,23.9232 28.923,24.3382 29.675,24.0882 C30.434,23.8352 30.843,23.0052 30.596,22.2512 L30.596,22.2512 Z M31.554,27.2062 C31.554,26.2802 30.806,25.5242 29.883,25.5242 C28.962,25.5242 28.214,26.2802 28.214,27.2062 C28.214,28.1392 28.962,28.8962 29.883,28.8962 C30.806,28.8962 31.554,28.1392 31.554,27.2062 L31.554,27.2062 Z M144.712,11.8432 L142.952,6.6222 L142.223,6.6222 L144.359,12.6162 L143.593,14.8592 L144.271,14.8592 L147.174,6.6222 L146.432,6.6222 L144.712,11.8432 Z M141.375,12.6032 L141.375,8.5222 C141.375,7.2682 140.785,6.4952 139.453,6.4952 C138.423,6.4952 137.707,7.0782 137.342,7.9902 L137.342,6.6212 L136.664,6.6212 L136.664,12.6032 L137.368,12.6032 L137.368,9.4352 C137.368,7.9782 138.259,7.1042 139.278,7.1042 C140.231,7.1042 140.672,7.6482 140.672,8.6242 L140.672,12.6032 L141.375,12.6032 Z M134.193,9.6132 C134.193,8.2952 133.553,7.0652 132.234,7.0652 C130.938,7.0652 130.424,8.1552 130.424,9.6132 C130.424,11.0582 130.938,12.1472 132.234,12.1472 C133.553,12.1472 134.193,10.9182 134.193,9.6132 L134.193,9.6132 Z M134.896,6.6212 L134.896,12.6022 L134.193,12.6022 L134.193,11.3112 C133.803,12.1852 133.087,12.7302 132.107,12.7302 C130.437,12.7302 129.732,11.3362 129.732,9.6132 C129.732,7.8762 130.437,6.4952 132.107,6.4952 C133.087,6.4952 133.829,7.0282 134.219,7.9142 L134.219,6.6212 L134.896,6.6212 Z M66.06,9.6132 C66.06,8.2952 65.42,7.0652 64.1,7.0652 C62.805,7.0652 62.29,8.1552 62.29,9.6132 C62.29,11.0582 62.805,12.1472 64.1,12.1472 C65.42,12.1472 66.06,10.9182 66.06,9.6132 L66.06,9.6132 Z M66.764,6.6212 L66.764,12.6022 L66.06,12.6022 L66.06,11.3112 C65.67,12.1852 64.954,12.7302 63.974,12.7302 C62.304,12.7302 61.599,11.3362 61.599,9.6132 C61.599,7.8762 62.304,6.4952 63.974,6.4952 C64.954,6.4952 65.696,7.0282 66.086,7.9142 L66.086,6.6212 L66.764,6.6212 Z M127.923,9.6132 C127.923,8.1552 127.409,7.0652 126.114,7.0652 C124.795,7.0652 124.154,8.2952 124.154,9.6132 C124.154,10.9182 124.795,12.1472 126.114,12.1472 C127.409,12.1472 127.923,11.0582 127.923,9.6132 L127.923,9.6132 Z M128.615,9.6132 C128.615,11.3362 127.91,12.7302 126.24,12.7302 C125.26,12.7302 124.544,12.1852 124.154,11.3112 L124.154,14.8592 L123.451,14.8592 L123.451,6.6222 L124.129,6.6222 L124.129,7.9142 C124.518,7.0282 125.26,6.4952 126.24,6.4952 C127.91,6.4952 128.615,7.8762 128.615,9.6132 L128.615,9.6132 Z M117.863,12.6032 L117.863,9.3212 C117.863,7.9402 118.655,7.1042 119.597,7.1042 C120.527,7.1042 120.993,7.6362 120.993,8.6242 L120.993,12.6032 L121.696,12.6032 L121.696,8.5222 C121.696,7.2932 121.105,6.4952 119.785,6.4952 C118.768,6.4952 118.077,7.1162 117.788,7.9782 C117.637,7.0652 117.072,6.4952 115.965,6.4952 C114.998,6.4952 114.346,7.0782 114.018,7.9902 L114.018,6.6212 L113.34,6.6212 L113.34,12.6032 L114.043,12.6032 L114.043,9.4352 C114.043,7.9902 114.797,7.1042 115.777,7.1042 C116.695,7.1042 117.159,7.6362 117.159,8.6242 L117.159,12.6032 L117.863,12.6032 Z M111.204,9.6132 C111.204,8.0792 110.588,7.0652 109.306,7.0652 C108.025,7.0652 107.409,8.0792 107.409,9.6132 C107.409,11.1462 108.025,12.1472 109.306,12.1472 C110.588,12.1472 111.204,11.1462 111.204,9.6132 L111.204,9.6132 Z M111.907,9.6132 C111.907,11.3742 111.04,12.7302 109.306,12.7302 C107.573,12.7302 106.704,11.3742 106.704,9.6132 C106.704,7.8392 107.559,6.4952 109.306,6.4952 C111.052,6.4952 111.907,7.8392 111.907,9.6132 L111.907,9.6132 Z M105.881,6.8372 C105.491,6.6212 104.85,6.4952 104.235,6.4952 C102.462,6.4952 101.483,7.6232 101.483,9.6132 C101.483,11.5892 102.462,12.7302 104.235,12.7302 C104.85,12.7302 105.491,12.5912 105.881,12.3882 L105.755,11.8432 C105.366,12.0082 104.875,12.1352 104.31,12.1352 C102.778,12.1352 102.186,11.0952 102.186,9.6132 C102.186,8.1172 102.778,7.0782 104.31,7.0782 C104.875,7.0782 105.366,7.2042 105.755,7.3822 L105.881,6.8372 Z M98.031,7.2302 L98.031,6.6092 C97.893,6.5712 97.692,6.5462 97.49,6.5462 C96.46,6.5462 95.895,7.2302 95.668,8.0542 L95.668,6.6212 L94.966,6.6212 L94.966,12.6032 L95.682,12.6032 L95.682,9.4482 C95.682,8.2822 96.298,7.1922 97.529,7.1922 C97.704,7.1922 97.843,7.2042 98.031,7.2302 L98.031,7.2302 Z M92.832,9.1312 C92.832,7.9402 92.43,7.0022 91.224,7.0022 C90.017,7.0022 89.377,7.7752 89.301,9.2962 L92.832,9.2962 L92.832,9.1312 Z M93.497,9.8272 L89.288,9.8272 C89.338,11.2602 89.904,12.1852 91.475,12.1852 C92.154,12.1852 92.807,12.0202 93.309,11.8052 L93.423,12.2992 C92.945,12.5402 92.191,12.7302 91.4,12.7302 C89.389,12.7302 88.598,11.4252 88.598,9.6132 C88.598,7.7112 89.476,6.4952 91.236,6.4952 C92.908,6.4952 93.497,7.7242 93.497,9.2582 L93.497,9.8272 Z M84.216,6.6212 L83.462,6.6212 L81.891,11.7162 L80.459,6.6212 L79.767,6.6212 L81.539,12.6032 L82.218,12.6032 L83.852,7.2682 L85.46,12.6032 L86.138,12.6032 L87.909,6.6212 L87.219,6.6212 L85.786,11.7162 L84.216,6.6212 Z M78.952,11.0072 C78.952,9.9552 78.174,9.6132 76.955,9.2452 C75.912,8.9282 75.409,8.7632 75.409,8.0542 C75.409,7.3192 75.95,7.0402 76.842,7.0402 C77.47,7.0402 78.086,7.1922 78.576,7.4082 L78.714,6.8632 C78.236,6.6472 77.596,6.4952 76.842,6.4952 C75.497,6.4952 74.719,7.0142 74.719,8.1302 C74.719,9.0932 75.359,9.4862 76.766,9.8792 C77.808,10.1582 78.262,10.4232 78.262,11.0832 C78.262,11.7802 77.771,12.1852 76.842,12.1852 C76.176,12.1852 75.51,12.0082 74.908,11.7412 L74.731,12.2742 C75.409,12.5652 76.176,12.7302 76.842,12.7302 C78.186,12.7302 78.952,12.0962 78.952,11.0072 L78.952,11.0072 Z M73.346,12.6032 L73.346,8.5222 C73.346,7.2682 72.756,6.4952 71.424,6.4952 C70.393,6.4952 69.677,7.0782 69.312,7.9902 L69.312,6.6212 L68.634,6.6212 L68.634,12.6032 L69.337,12.6032 L69.337,9.4352 C69.337,7.9782 70.23,7.1042 71.247,7.1042 C72.202,7.1042 72.642,7.6482 72.642,8.6242 L72.642,12.6032 L73.346,12.6032 Z M57.024,9.1312 C57.024,7.9402 56.622,7.0022 55.415,7.0022 C54.209,7.0022 53.569,7.7752 53.493,9.2962 L57.024,9.2962 L57.024,9.1312 Z M57.689,9.8272 L53.48,9.8272 C53.53,11.2602 54.096,12.1852 55.667,12.1852 C56.345,12.1852 56.998,12.0202 57.501,11.8052 L57.614,12.2992 C57.136,12.5402 56.383,12.7302 55.591,12.7302 C53.58,12.7302 52.789,11.4252 52.789,9.6132 C52.789,7.7112 53.669,6.4952 55.428,6.4952 C57.099,6.4952 57.689,7.7242 57.689,9.2582 L57.689,9.8272 Z M51.347,12.6032 L51.347,8.5222 C51.347,7.2682 50.757,6.4952 49.425,6.4952 C48.419,6.4952 47.703,7.0652 47.339,7.9782 L47.339,4.1632 L46.636,4.1632 L46.636,12.6032 L47.339,12.6032 L47.339,9.4352 C47.339,7.9782 48.231,7.1042 49.249,7.1042 C50.203,7.1042 50.644,7.6482 50.644,8.6242 L50.644,12.6032 L51.347,12.6032 Z M44.149,12.7052 C43.169,12.7052 42.779,12.1982 42.779,11.3242 L42.779,7.2172 L41.925,7.2172 L41.925,6.6212 L42.779,6.6212 L42.779,5.0252 L43.495,5.0252 L43.495,6.6212 L45.016,6.6212 L45.016,7.2172 L43.495,7.2172 L43.495,11.2852 C43.495,11.8302 43.671,12.1212 44.312,12.1212 C44.564,12.1212 44.815,12.0842 45.003,12.0082 L45.042,12.5652 C44.827,12.6542 44.451,12.7052 44.149,12.7052 L44.149,12.7052 Z" id="Fill-7" fill="#FF8000"></path>
                <path d="M164.7234,27.8691 L169.3654,27.8691 C169.5264,27.8691 169.6524,27.7381 169.6524,27.5791 L169.6524,26.5221 C169.6524,26.3641 169.5264,26.2311 169.3654,26.2311 L164.7234,26.2311 L164.7234,24.8901 C164.7234,23.6661 164.7684,23.6331 165.8684,23.6331 L169.5414,23.6331 C169.6974,23.6331 169.8294,23.4991 169.8294,23.3391 L169.8294,22.4051 C169.8294,22.1991 169.7564,22.1251 169.5414,22.0971 C169.0754,22.0251 168.1314,21.8931 166.4064,21.8931 C163.9944,21.8931 162.7204,21.8761 162.7204,24.8901 L162.7204,29.5181 C162.7204,32.5321 163.9944,32.5151 166.4064,32.5151 C168.1314,32.5151 169.0754,32.3851 169.5414,32.3111 C169.7564,32.2831 169.8294,32.2091 169.8294,32.0031 L169.8294,31.0691 C169.8294,30.9081 169.6974,30.7771 169.5414,30.7771 L165.8684,30.7771 C164.7684,30.7771 164.7234,30.7441 164.7234,29.5181 L164.7234,27.8691 Z M189.9874,29.4661 C189.9874,28.0621 189.1944,27.3371 187.9724,26.8381 C187.0084,26.4471 186.1634,26.1151 185.5194,25.8591 C184.8754,25.6001 184.3314,25.1581 184.3314,24.6771 C184.3314,24.0191 185.1344,23.6391 186.2094,23.6391 C187.4714,23.6391 188.4634,23.8171 189.4214,23.9051 L189.4504,23.9051 C189.5974,23.9051 189.6964,23.7861 189.6964,23.6411 L189.6964,22.5581 C189.6964,22.4131 189.5814,22.3101 189.4364,22.2821 C188.9434,22.1621 187.6774,21.8971 186.2944,21.8971 C183.5974,21.8971 182.3134,23.0671 182.3134,24.6771 C182.3134,25.7001 182.7604,26.7081 184.0214,27.2341 C185.2894,27.7621 187.8864,28.3681 187.8864,29.4661 C187.8864,30.3131 187.4914,30.7801 186.2024,30.7801 C184.8614,30.7801 183.5034,30.5891 182.9224,30.5151 L182.8944,30.5151 C182.7504,30.5151 182.6184,30.6341 182.6184,30.7941 L182.6184,31.8481 C182.6184,32.0091 182.7504,32.1091 182.8944,32.1391 C183.5894,32.3001 184.8904,32.5221 186.1714,32.5221 C189.0734,32.5221 189.9874,30.9411 189.9874,29.4661 L189.9874,29.4661 Z M178.4604,25.1981 C178.4604,24.1001 177.6174,23.6331 176.1634,23.6331 C175.8614,23.6331 174.5414,23.6621 174.2804,23.6921 L174.2804,26.8631 C174.5144,26.8781 175.9214,26.9071 176.1634,26.9071 C177.6614,26.9071 178.4604,26.6171 178.4604,25.3311 L178.4604,25.1981 Z M180.8114,32.2251 C180.8114,32.3261 180.7514,32.3991 180.6374,32.3991 L178.8664,32.3991 C178.7054,32.3991 178.6494,32.2511 178.5774,32.1071 L176.4874,28.5601 L176.1634,28.5601 C175.7884,28.5601 174.6154,28.5181 174.2804,28.5011 L174.2804,32.1071 C174.2804,32.2671 174.1654,32.3991 174.0064,32.3991 L172.5574,32.3991 C172.3984,32.3991 172.2674,32.2671 172.2674,32.1071 L172.2674,22.5201 C172.2674,22.2271 172.4394,22.1251 172.7304,22.0811 C173.4834,21.9651 175.1074,21.8931 176.1634,21.8931 C178.4004,21.8931 180.4604,22.6981 180.4604,25.1981 L180.4604,25.3311 C180.4604,26.8791 179.6914,27.7271 178.5024,28.1931 L180.7824,32.1071 C180.8114,32.1511 180.8114,32.1931 180.8114,32.2251 L180.8114,32.2251 Z M161.2284,23.4431 L161.2284,22.2871 C161.2284,22.1251 161.0984,22.0091 160.9404,22.0091 L153.1324,22.0091 C152.9764,22.0091 152.8444,22.1251 152.8444,22.2871 L152.8444,23.4431 C152.8444,23.6031 152.9764,23.7041 153.1324,23.7041 L156.0284,23.7041 L156.0284,32.1071 C156.0284,32.2671 156.1594,32.3991 156.3194,32.3991 L157.7544,32.3991 C157.9134,32.3991 158.0474,32.2671 158.0474,32.1071 L158.0474,23.7041 L160.9404,23.7041 C161.0984,23.7041 161.2284,23.6031 161.2284,23.4431 L161.2284,23.4431 Z M151.4044,28.3751 L151.4044,22.2871 C151.4044,22.1251 151.2744,22.0091 151.1134,22.0091 L149.6774,22.0091 C149.5174,22.0091 149.3884,22.1251 149.3884,22.2871 L149.3884,28.3751 C149.3884,30.0431 148.6244,30.8341 147.0574,30.8341 C145.4944,30.8341 144.7284,30.0431 144.7284,28.3751 L144.7284,22.2871 C144.7284,22.1251 144.5994,22.0091 144.4384,22.0091 L143.0054,22.0091 C142.8454,22.0091 142.7134,22.1251 142.7134,22.2871 L142.7134,28.3751 C142.7134,31.4921 144.7244,32.5151 147.0574,32.5151 C149.3934,32.5151 151.4044,31.4921 151.4044,28.3751 L151.4044,28.3751 Z M135.4394,27.8691 L140.0814,27.8691 C140.2404,27.8691 140.3714,27.7381 140.3714,27.5791 L140.3714,26.5221 C140.3714,26.3641 140.2404,26.2311 140.0814,26.2311 L135.4394,26.2311 L135.4394,24.8901 C135.4394,23.6661 135.4854,23.6331 136.5824,23.6331 L140.2544,23.6331 C140.4134,23.6331 140.5454,23.4991 140.5454,23.3391 L140.5454,22.4051 C140.5454,22.1991 140.4724,22.1251 140.2544,22.0971 C139.7904,22.0251 138.8454,21.8931 137.1204,21.8931 C134.7134,21.8931 133.4364,21.8761 133.4364,24.8901 L133.4364,29.5181 C133.4364,32.5321 134.7134,32.5151 137.1204,32.5151 C138.8454,32.5151 139.7904,32.3851 140.2544,32.3111 C140.4724,32.2831 140.5454,32.2091 140.5454,32.0031 L140.5454,31.0691 C140.5454,30.9081 140.4134,30.7771 140.2544,30.7771 L136.5824,30.7771 C135.4854,30.7771 135.4394,30.7441 135.4394,29.5181 L135.4394,27.8691 Z M129.2224,25.1981 C129.2224,24.1001 128.3784,23.6331 126.9284,23.6331 C126.6224,23.6331 125.3024,23.6621 125.0434,23.6921 L125.0434,26.8631 C125.2734,26.8781 126.6794,26.9071 126.9284,26.9071 C128.4204,26.9071 129.2224,26.6171 129.2224,25.3311 L129.2224,25.1981 Z M131.5724,32.2251 C131.5724,32.3261 131.5144,32.3991 131.3984,32.3991 L129.6274,32.3991 C129.4694,32.3991 129.4104,32.2511 129.3384,32.1071 L127.2494,28.5601 L126.9284,28.5601 C126.5494,28.5601 125.3774,28.5181 125.0434,28.5011 L125.0434,32.1071 C125.0434,32.2671 124.9264,32.3991 124.7674,32.3991 L123.3164,32.3991 C123.1584,32.3991 123.0274,32.2671 123.0274,32.1071 L123.0274,22.5201 C123.0274,22.2271 123.1994,22.1251 123.4914,22.0811 C124.2464,21.9651 125.8674,21.8931 126.9284,21.8931 C129.1604,21.8931 131.2234,22.6981 131.2234,25.1981 L131.2234,25.3311 C131.2234,26.8791 130.4554,27.7271 129.2664,28.1931 L131.5424,32.1071 C131.5724,32.1511 131.5724,32.1931 131.5724,32.2251 L131.5724,32.2251 Z M103.2194,26.4561 C103.2194,24.5251 102.0614,23.6621 100.6404,23.6621 C99.2184,23.6621 98.0614,24.5251 98.0614,26.4561 L98.0614,27.9521 C98.0614,29.8841 99.2184,30.7451 100.6404,30.7451 C102.0614,30.7451 103.2194,29.8841 103.2194,27.9521 L103.2194,26.4561 Z M105.2474,26.4561 L105.2474,27.9521 C105.2474,31.1711 103.0324,32.5151 100.6404,32.5151 C98.2474,32.5151 96.0334,31.1711 96.0334,27.9521 L96.0334,26.4561 C96.0334,23.2381 98.2474,21.8931 100.6404,21.8931 C103.0324,21.8931 105.2474,23.2381 105.2474,26.4561 L105.2474,26.4561 Z M94.2044,29.4661 C94.2044,28.0621 93.4144,27.3371 92.1884,26.8381 C91.2244,26.4471 90.3784,26.1151 89.7344,25.8591 C89.0924,25.6021 88.5464,25.1581 88.5464,24.6771 C88.5464,24.0191 89.3534,23.6391 90.4244,23.6391 C91.6874,23.6391 92.6804,23.8171 93.6394,23.9051 L93.6674,23.9051 C93.8124,23.9051 93.9124,23.7861 93.9124,23.6411 L93.9124,22.5581 C93.9124,22.4131 93.7994,22.3101 93.6534,22.2821 C93.1614,22.1621 91.8954,21.8971 90.5124,21.8971 C87.8164,21.8971 86.5304,23.0671 86.5304,24.6771 C86.5304,25.7001 86.9774,26.7081 88.2414,27.2341 C89.5074,27.7621 92.1004,28.3681 92.1004,29.4661 C92.1004,30.3131 91.7094,30.7801 90.4174,30.7801 C89.0774,30.7801 87.7194,30.5891 87.1394,30.5151 L87.1104,30.5151 C86.9654,30.5151 86.8354,30.6341 86.8354,30.7941 L86.8354,31.8481 C86.8354,32.0091 86.9654,32.1091 87.1104,32.1391 C87.8074,32.3001 89.1084,32.5221 90.3884,32.5221 C93.2914,32.5221 94.2044,30.9411 94.2044,29.4661 L94.2044,29.4661 Z M116.3574,31.8141 L116.3574,22.2871 C116.3574,22.1251 116.2414,22.0091 116.0814,22.0091 L114.8334,22.0091 C114.6724,22.0091 114.5564,22.1251 114.5564,22.2871 L114.5564,29.5031 C114.5564,29.5901 114.5154,29.6361 114.4864,29.6361 C114.4404,29.6361 114.3984,29.5901 114.3704,29.5181 L110.2794,22.4791 C110.1034,22.0971 109.9444,22.0091 109.6404,22.0091 L108.0734,22.0091 C107.7544,22.0091 107.4954,22.2711 107.4954,22.5931 L107.4954,32.1071 C107.4954,32.2671 107.6224,32.3991 107.7854,32.3991 L109.0154,32.3991 C109.1754,32.3991 109.2914,32.2671 109.2914,32.1071 L109.2914,25.2271 C109.2914,25.1401 109.3234,25.1091 109.3654,25.1091 C109.4084,25.1091 109.4534,25.1401 109.4944,25.2271 L113.4304,31.8741 C113.6574,32.3991 113.9634,32.3991 114.3114,32.3991 L115.7784,32.3991 C116.0964,32.3991 116.3574,32.1381 116.3574,31.8141 L116.3574,31.8141 Z M84.1674,32.1811 L84.1674,22.5931 C84.1674,22.2711 83.9064,22.0091 83.5874,22.0091 L82.3974,22.0091 C82.1664,22.0091 81.9624,22.1541 81.8614,22.3601 L79.0794,28.0741 C79.0044,28.2061 78.9754,28.2781 78.9194,28.2781 C78.8584,28.2781 78.8284,28.2061 78.7574,28.0741 L75.9744,22.3601 C75.8724,22.1541 75.6694,22.0091 75.4384,22.0091 L74.2484,22.0091 C73.9294,22.0091 73.6674,22.2711 73.6674,22.5931 L73.6674,32.1811 C73.6674,32.3261 73.7844,32.3991 73.9164,32.3991 L75.3804,32.3991 C75.5104,32.3991 75.6124,32.2511 75.6124,32.1071 L75.6124,25.7821 C75.6124,25.6801 75.6274,25.6371 75.6564,25.6371 C75.6694,25.6371 75.6984,25.6801 75.7294,25.7231 L78.0864,30.9541 C78.1704,31.1131 78.3604,31.2031 78.5484,31.2031 L79.3034,31.2031 C79.4924,31.2031 79.6794,31.1131 79.7644,30.9541 L82.1054,25.7231 C82.1374,25.6801 82.1664,25.6371 82.1774,25.6371 C82.2084,25.6371 82.2234,25.6801 82.2234,25.7821 L82.2234,32.1071 C82.2234,32.2511 82.3254,32.3991 82.4534,32.3991 L83.9194,32.3991 C84.0504,32.3991 84.1674,32.3261 84.1674,32.1811 L84.1674,32.1811 Z M69.3904,26.4561 C69.3904,24.5251 68.2344,23.6621 66.8134,23.6621 C65.3924,23.6621 64.2344,24.5251 64.2344,26.4561 L64.2344,27.9521 C64.2344,29.8841 65.3924,30.7451 66.8134,30.7451 C68.2344,30.7451 69.3904,29.8841 69.3904,27.9521 L69.3904,26.4561 Z M71.4234,26.4561 L71.4234,27.9521 C71.4234,31.1711 69.2064,32.5151 66.8134,32.5151 C64.4204,32.5151 62.2054,31.1711 62.2054,27.9521 L62.2054,26.4561 C62.2054,23.2381 64.4204,21.8931 66.8134,21.8931 C69.2064,21.8931 71.4234,23.2381 71.4234,26.4561 L71.4234,26.4561 Z M59.9154,32.1071 L59.9154,22.2871 C59.9154,22.1251 59.7834,22.0091 59.6254,22.0091 L58.1924,22.0091 C58.0294,22.0091 57.8984,22.1251 57.8984,22.2871 L57.8984,26.0861 L53.3044,26.0861 L53.3044,22.2871 C53.3044,22.1251 53.1734,22.0091 53.0164,22.0091 L51.5804,22.0091 C51.4194,22.0091 51.2894,22.1251 51.2894,22.2871 L51.2894,32.1071 C51.2894,32.2671 51.4194,32.3991 51.5804,32.3991 L53.0164,32.3991 C53.1734,32.3991 53.3044,32.2671 53.3044,32.1071 L53.3044,27.8691 L57.8984,27.8691 L57.8984,32.1071 C57.8984,32.2671 58.0294,32.3991 58.1924,32.3991 L59.6254,32.3991 C59.7834,32.3991 59.9154,32.2671 59.9154,32.1071 L59.9154,32.1071 Z M49.1604,23.7041 L46.2684,23.7041 L46.2684,32.1071 C46.2684,32.2671 46.1374,32.3991 45.9764,32.3991 L44.5414,32.3991 C44.3824,32.3991 44.2534,32.2671 44.2534,32.1071 L44.2534,23.7041 L41.3564,23.7041 C41.1974,23.7041 41.0654,23.6031 41.0654,23.4431 L41.0654,22.2871 C41.0654,22.1251 41.1974,22.0091 41.3564,22.0091 L49.1604,22.0091 C49.3204,22.0091 49.4524,22.1251 49.4524,22.2871 L49.4524,23.4431 C49.4524,23.6031 49.3204,23.7041 49.1604,23.7041 L49.1604,23.7041 Z" id="Fill-8" fill="#4D4D4D"></path>
            </g>
        </g>
    </g>
</svg>